%TF.GenerationSoftware,KiCad,Pcbnew,9.0.5*%
%TF.CreationDate,2025-11-17T06:01:47+03:00*%
%TF.ProjectId,CHRISTMAS_RISC_V,43485249-5354-44d4-9153-5f524953435f,rev?*%
%TF.SameCoordinates,Original*%
%TF.FileFunction,Soldermask,Top*%
%TF.FilePolarity,Negative*%
%FSLAX46Y46*%
G04 Gerber Fmt 4.6, Leading zero omitted, Abs format (unit mm)*
G04 Created by KiCad (PCBNEW 9.0.5) date 2025-11-17 06:01:47*
%MOMM*%
%LPD*%
G01*
G04 APERTURE LIST*
G04 Aperture macros list*
%AMRoundRect*
0 Rectangle with rounded corners*
0 $1 Rounding radius*
0 $2 $3 $4 $5 $6 $7 $8 $9 X,Y pos of 4 corners*
0 Add a 4 corners polygon primitive as box body*
4,1,4,$2,$3,$4,$5,$6,$7,$8,$9,$2,$3,0*
0 Add four circle primitives for the rounded corners*
1,1,$1+$1,$2,$3*
1,1,$1+$1,$4,$5*
1,1,$1+$1,$6,$7*
1,1,$1+$1,$8,$9*
0 Add four rect primitives between the rounded corners*
20,1,$1+$1,$2,$3,$4,$5,0*
20,1,$1+$1,$4,$5,$6,$7,0*
20,1,$1+$1,$6,$7,$8,$9,0*
20,1,$1+$1,$8,$9,$2,$3,0*%
G04 Aperture macros list end*
%ADD10C,3.800000*%
%ADD11RoundRect,0.200000X-0.200000X0.550000X-0.200000X-0.550000X0.200000X-0.550000X0.200000X0.550000X0*%
%ADD12RoundRect,0.225000X-0.225000X-0.250000X0.225000X-0.250000X0.225000X0.250000X-0.225000X0.250000X0*%
%ADD13RoundRect,0.200000X-0.550000X-0.200000X0.550000X-0.200000X0.550000X0.200000X-0.550000X0.200000X0*%
%ADD14R,1.350000X1.350000*%
%ADD15C,1.350000*%
%ADD16RoundRect,0.250000X0.600000X0.750000X-0.600000X0.750000X-0.600000X-0.750000X0.600000X-0.750000X0*%
%ADD17O,1.700000X2.000000*%
%ADD18RoundRect,0.200000X0.200000X-0.550000X0.200000X0.550000X-0.200000X0.550000X-0.200000X-0.550000X0*%
%ADD19RoundRect,0.200000X0.550000X0.200000X-0.550000X0.200000X-0.550000X-0.200000X0.550000X-0.200000X0*%
%ADD20RoundRect,0.250000X0.400000X0.600000X-0.400000X0.600000X-0.400000X-0.600000X0.400000X-0.600000X0*%
%ADD21RoundRect,0.200000X-0.275000X0.200000X-0.275000X-0.200000X0.275000X-0.200000X0.275000X0.200000X0*%
%ADD22RoundRect,0.200000X0.275000X-0.200000X0.275000X0.200000X-0.275000X0.200000X-0.275000X-0.200000X0*%
%ADD23RoundRect,0.100000X0.637500X0.100000X-0.637500X0.100000X-0.637500X-0.100000X0.637500X-0.100000X0*%
%ADD24RoundRect,0.225000X0.250000X-0.225000X0.250000X0.225000X-0.250000X0.225000X-0.250000X-0.225000X0*%
%ADD25RoundRect,0.225000X0.225000X0.250000X-0.225000X0.250000X-0.225000X-0.250000X0.225000X-0.250000X0*%
%ADD26RoundRect,0.225000X-0.250000X0.225000X-0.250000X-0.225000X0.250000X-0.225000X0.250000X0.225000X0*%
G04 APERTURE END LIST*
D10*
%TO.C,HOLE1*%
X150000000Y-81000000D03*
%TD*%
D11*
%TO.C,VD5*%
X118890000Y-136640000D03*
X117110000Y-136640000D03*
X117110000Y-133360000D03*
X118890000Y-133360000D03*
%TD*%
D12*
%TO.C,C23*%
X149225000Y-113000000D03*
X150775000Y-113000000D03*
%TD*%
D13*
%TO.C,VD20*%
X158360000Y-141610000D03*
X158360000Y-143390000D03*
X161640000Y-143390000D03*
X161640000Y-141610000D03*
%TD*%
D12*
%TO.C,C22*%
X159225000Y-138500000D03*
X160775000Y-138500000D03*
%TD*%
D14*
%TO.C,XP2*%
X153000000Y-130000000D03*
D15*
X151000000Y-130000000D03*
X149000000Y-130000000D03*
X147000000Y-130000000D03*
%TD*%
D16*
%TO.C,XP1*%
X151250000Y-142525000D03*
D17*
X148750000Y-142525000D03*
%TD*%
D13*
%TO.C,VD19*%
X165860000Y-141610000D03*
X165860000Y-143390000D03*
X169140000Y-143390000D03*
X169140000Y-141610000D03*
%TD*%
%TO.C,VD18*%
X173360000Y-141610000D03*
X173360000Y-143390000D03*
X176640000Y-143390000D03*
X176640000Y-141610000D03*
%TD*%
D18*
%TO.C,VD17*%
X181110000Y-136640000D03*
X182890000Y-136640000D03*
X182890000Y-133360000D03*
X181110000Y-133360000D03*
%TD*%
%TO.C,VD16*%
X176110000Y-128640000D03*
X177890000Y-128640000D03*
X177890000Y-125360000D03*
X176110000Y-125360000D03*
%TD*%
%TO.C,VD15*%
X171110000Y-120640000D03*
X172890000Y-120640000D03*
X172890000Y-117360000D03*
X171110000Y-117360000D03*
%TD*%
%TO.C,VD14*%
X166110000Y-112640000D03*
X167890000Y-112640000D03*
X167890000Y-109360000D03*
X166110000Y-109360000D03*
%TD*%
%TO.C,VD13*%
X161110000Y-104640000D03*
X162890000Y-104640000D03*
X162890000Y-101360000D03*
X161110000Y-101360000D03*
%TD*%
%TO.C,VD12*%
X156110000Y-96640000D03*
X157890000Y-96640000D03*
X157890000Y-93360000D03*
X156110000Y-93360000D03*
%TD*%
D19*
%TO.C,VD11*%
X151640000Y-87890000D03*
X151640000Y-86110000D03*
X148360000Y-86110000D03*
X148360000Y-87890000D03*
%TD*%
D11*
%TO.C,VD10*%
X143890000Y-93360000D03*
X142110000Y-93360000D03*
X142110000Y-96640000D03*
X143890000Y-96640000D03*
%TD*%
%TO.C,VD9*%
X138890000Y-101360000D03*
X137110000Y-101360000D03*
X137110000Y-104640000D03*
X138890000Y-104640000D03*
%TD*%
%TO.C,VD8*%
X133890000Y-109360000D03*
X132110000Y-109360000D03*
X132110000Y-112640000D03*
X133890000Y-112640000D03*
%TD*%
%TO.C,VD7*%
X128890000Y-117360000D03*
X127110000Y-117360000D03*
X127110000Y-120640000D03*
X128890000Y-120640000D03*
%TD*%
%TO.C,VD6*%
X123890000Y-125360000D03*
X122110000Y-125360000D03*
X122110000Y-128640000D03*
X123890000Y-128640000D03*
%TD*%
D13*
%TO.C,VD4*%
X123360000Y-141610000D03*
X123360000Y-143390000D03*
X126640000Y-143390000D03*
X126640000Y-141610000D03*
%TD*%
%TO.C,VD3*%
X130860000Y-141610000D03*
X130860000Y-143390000D03*
X134140000Y-143390000D03*
X134140000Y-141610000D03*
%TD*%
%TO.C,VD2*%
X138360000Y-141610000D03*
X138360000Y-143390000D03*
X141640000Y-143390000D03*
X141640000Y-141610000D03*
%TD*%
D20*
%TO.C,VD1*%
X151750000Y-136000000D03*
X148250000Y-136000000D03*
%TD*%
D21*
%TO.C,R4*%
X145000000Y-125175000D03*
X145000000Y-126825000D03*
%TD*%
%TO.C,R3*%
X147000000Y-125175000D03*
X147000000Y-126825000D03*
%TD*%
%TO.C,R2*%
X153000000Y-125175000D03*
X153000000Y-126825000D03*
%TD*%
D22*
%TO.C,R1*%
X151000000Y-126825000D03*
X151000000Y-125175000D03*
%TD*%
D23*
%TO.C,DD1*%
X152862500Y-122925000D03*
X152862500Y-122275000D03*
X152862500Y-121625000D03*
X152862500Y-120975000D03*
X152862500Y-120325000D03*
X152862500Y-119675000D03*
X152862500Y-119025000D03*
X152862500Y-118375000D03*
X152862500Y-117725000D03*
X152862500Y-117075000D03*
X147137500Y-117075000D03*
X147137500Y-117725000D03*
X147137500Y-118375000D03*
X147137500Y-119025000D03*
X147137500Y-119675000D03*
X147137500Y-120325000D03*
X147137500Y-120975000D03*
X147137500Y-121625000D03*
X147137500Y-122275000D03*
X147137500Y-122925000D03*
%TD*%
D12*
%TO.C,C21*%
X166725000Y-138500000D03*
X168275000Y-138500000D03*
%TD*%
%TO.C,C20*%
X174225000Y-138500000D03*
X175775000Y-138500000D03*
%TD*%
D24*
%TO.C,C19*%
X178000000Y-135775000D03*
X178000000Y-134225000D03*
%TD*%
%TO.C,C18*%
X173000000Y-127775000D03*
X173000000Y-126225000D03*
%TD*%
%TO.C,C17*%
X168000000Y-119775000D03*
X168000000Y-118225000D03*
%TD*%
%TO.C,C16*%
X163000000Y-111775000D03*
X163000000Y-110225000D03*
%TD*%
%TO.C,C15*%
X158000000Y-103775000D03*
X158000000Y-102225000D03*
%TD*%
%TO.C,C14*%
X153000000Y-95775000D03*
X153000000Y-94225000D03*
%TD*%
D25*
%TO.C,C13*%
X150775000Y-91000000D03*
X149225000Y-91000000D03*
%TD*%
D26*
%TO.C,C12*%
X147000000Y-94225000D03*
X147000000Y-95775000D03*
%TD*%
%TO.C,C11*%
X142000000Y-102225000D03*
X142000000Y-103775000D03*
%TD*%
%TO.C,C10*%
X137000000Y-110225000D03*
X137000000Y-111775000D03*
%TD*%
%TO.C,C9*%
X132000000Y-118225000D03*
X132000000Y-119775000D03*
%TD*%
%TO.C,C8*%
X127000000Y-126225000D03*
X127000000Y-127775000D03*
%TD*%
%TO.C,C7*%
X122000000Y-134225000D03*
X122000000Y-135775000D03*
%TD*%
D12*
%TO.C,C6*%
X124225000Y-138500000D03*
X125775000Y-138500000D03*
%TD*%
%TO.C,C5*%
X131725000Y-138500000D03*
X133275000Y-138500000D03*
%TD*%
%TO.C,C4*%
X139225000Y-138500000D03*
X140775000Y-138500000D03*
%TD*%
D24*
%TO.C,C3*%
X149000000Y-126775000D03*
X149000000Y-125225000D03*
%TD*%
D12*
%TO.C,C2*%
X149225000Y-115000000D03*
X150775000Y-115000000D03*
%TD*%
%TO.C,C1*%
X149225000Y-133000000D03*
X150775000Y-133000000D03*
%TD*%
M02*
