%TF.GenerationSoftware,KiCad,Pcbnew,9.0.5*%
%TF.CreationDate,2025-11-17T06:01:47+03:00*%
%TF.ProjectId,CHRISTMAS_RISC_V,43485249-5354-44d4-9153-5f524953435f,rev?*%
%TF.SameCoordinates,Original*%
%TF.FileFunction,Copper,L1,Top*%
%TF.FilePolarity,Positive*%
%FSLAX46Y46*%
G04 Gerber Fmt 4.6, Leading zero omitted, Abs format (unit mm)*
G04 Created by KiCad (PCBNEW 9.0.5) date 2025-11-17 06:01:47*
%MOMM*%
%LPD*%
G01*
G04 APERTURE LIST*
G04 Aperture macros list*
%AMRoundRect*
0 Rectangle with rounded corners*
0 $1 Rounding radius*
0 $2 $3 $4 $5 $6 $7 $8 $9 X,Y pos of 4 corners*
0 Add a 4 corners polygon primitive as box body*
4,1,4,$2,$3,$4,$5,$6,$7,$8,$9,$2,$3,0*
0 Add four circle primitives for the rounded corners*
1,1,$1+$1,$2,$3*
1,1,$1+$1,$4,$5*
1,1,$1+$1,$6,$7*
1,1,$1+$1,$8,$9*
0 Add four rect primitives between the rounded corners*
20,1,$1+$1,$2,$3,$4,$5,0*
20,1,$1+$1,$4,$5,$6,$7,0*
20,1,$1+$1,$6,$7,$8,$9,0*
20,1,$1+$1,$8,$9,$2,$3,0*%
G04 Aperture macros list end*
%ADD10C,0.400000*%
%TA.AperFunction,NonConductor*%
%ADD11C,0.400000*%
%TD*%
%TA.AperFunction,ComponentPad*%
%ADD12C,3.800000*%
%TD*%
%TA.AperFunction,SMDPad,CuDef*%
%ADD13RoundRect,0.200000X-0.200000X0.550000X-0.200000X-0.550000X0.200000X-0.550000X0.200000X0.550000X0*%
%TD*%
%TA.AperFunction,SMDPad,CuDef*%
%ADD14RoundRect,0.225000X-0.225000X-0.250000X0.225000X-0.250000X0.225000X0.250000X-0.225000X0.250000X0*%
%TD*%
%TA.AperFunction,SMDPad,CuDef*%
%ADD15RoundRect,0.200000X-0.550000X-0.200000X0.550000X-0.200000X0.550000X0.200000X-0.550000X0.200000X0*%
%TD*%
%TA.AperFunction,ComponentPad*%
%ADD16R,1.350000X1.350000*%
%TD*%
%TA.AperFunction,ComponentPad*%
%ADD17C,1.350000*%
%TD*%
%TA.AperFunction,ComponentPad*%
%ADD18RoundRect,0.250000X0.600000X0.750000X-0.600000X0.750000X-0.600000X-0.750000X0.600000X-0.750000X0*%
%TD*%
%TA.AperFunction,ComponentPad*%
%ADD19O,1.700000X2.000000*%
%TD*%
%TA.AperFunction,SMDPad,CuDef*%
%ADD20RoundRect,0.200000X0.200000X-0.550000X0.200000X0.550000X-0.200000X0.550000X-0.200000X-0.550000X0*%
%TD*%
%TA.AperFunction,SMDPad,CuDef*%
%ADD21RoundRect,0.200000X0.550000X0.200000X-0.550000X0.200000X-0.550000X-0.200000X0.550000X-0.200000X0*%
%TD*%
%TA.AperFunction,SMDPad,CuDef*%
%ADD22RoundRect,0.250000X0.400000X0.600000X-0.400000X0.600000X-0.400000X-0.600000X0.400000X-0.600000X0*%
%TD*%
%TA.AperFunction,SMDPad,CuDef*%
%ADD23RoundRect,0.200000X-0.275000X0.200000X-0.275000X-0.200000X0.275000X-0.200000X0.275000X0.200000X0*%
%TD*%
%TA.AperFunction,SMDPad,CuDef*%
%ADD24RoundRect,0.200000X0.275000X-0.200000X0.275000X0.200000X-0.275000X0.200000X-0.275000X-0.200000X0*%
%TD*%
%TA.AperFunction,SMDPad,CuDef*%
%ADD25RoundRect,0.100000X0.637500X0.100000X-0.637500X0.100000X-0.637500X-0.100000X0.637500X-0.100000X0*%
%TD*%
%TA.AperFunction,SMDPad,CuDef*%
%ADD26RoundRect,0.225000X0.250000X-0.225000X0.250000X0.225000X-0.250000X0.225000X-0.250000X-0.225000X0*%
%TD*%
%TA.AperFunction,SMDPad,CuDef*%
%ADD27RoundRect,0.225000X0.225000X0.250000X-0.225000X0.250000X-0.225000X-0.250000X0.225000X-0.250000X0*%
%TD*%
%TA.AperFunction,SMDPad,CuDef*%
%ADD28RoundRect,0.225000X-0.250000X0.225000X-0.250000X-0.225000X0.250000X-0.225000X0.250000X0.225000X0*%
%TD*%
%TA.AperFunction,ViaPad*%
%ADD29C,0.600000*%
%TD*%
%TA.AperFunction,Conductor*%
%ADD30C,0.400000*%
%TD*%
%TA.AperFunction,Conductor*%
%ADD31C,1.000000*%
%TD*%
%TA.AperFunction,Conductor*%
%ADD32C,0.300000*%
%TD*%
%TA.AperFunction,Conductor*%
%ADD33C,0.800000*%
%TD*%
G04 APERTURE END LIST*
D10*
D11*
X154099657Y-112007512D02*
X155831707Y-111007512D01*
X154671085Y-112997256D02*
X155232257Y-111683520D01*
X156403136Y-111997256D02*
X154841964Y-111578941D01*
X155099657Y-113739563D02*
X156831707Y-112739563D01*
X155671085Y-114729306D02*
X156232257Y-113415570D01*
X157403136Y-113729306D02*
X155841964Y-113310992D01*
X157831707Y-114471614D02*
X156429571Y-115281138D01*
X156429571Y-115281138D02*
X156312233Y-115458854D01*
X156312233Y-115458854D02*
X156277373Y-115588952D01*
X156277373Y-115588952D02*
X156290133Y-115801528D01*
X156290133Y-115801528D02*
X156480609Y-116131443D01*
X156480609Y-116131443D02*
X156658326Y-116248781D01*
X156658326Y-116248781D02*
X156788423Y-116283640D01*
X156788423Y-116283640D02*
X157001000Y-116270881D01*
X157001000Y-116270881D02*
X158403136Y-115461357D01*
X158784088Y-116121186D02*
X159450755Y-117275887D01*
X159450755Y-117275887D02*
X157052037Y-117121186D01*
X157052037Y-117121186D02*
X157718704Y-118275887D01*
X158099657Y-118935715D02*
X159831707Y-117935715D01*
X159831707Y-117935715D02*
X158671085Y-119925459D01*
X158671085Y-119925459D02*
X160403136Y-118925459D01*
X160054540Y-120226435D02*
X160387874Y-120803786D01*
X159623466Y-121575031D02*
X159147276Y-120750245D01*
X159147276Y-120750245D02*
X160879326Y-119750245D01*
X160879326Y-119750245D02*
X161355517Y-120575031D01*
X161641231Y-121069903D02*
X162212660Y-122059646D01*
X160194895Y-122564774D02*
X161926946Y-121564774D01*
X162450755Y-122472040D02*
X163117422Y-123626740D01*
X163117422Y-123626740D02*
X160718704Y-123472040D01*
X160718704Y-123472040D02*
X161385371Y-124626740D01*
X163688851Y-124616483D02*
X163879327Y-124946398D01*
X163879327Y-124946398D02*
X163892086Y-125158974D01*
X163892086Y-125158974D02*
X163822367Y-125419169D01*
X163822367Y-125419169D02*
X163540072Y-125692124D01*
X163540072Y-125692124D02*
X162962721Y-126025458D01*
X162962721Y-126025458D02*
X162585188Y-126133455D01*
X162585188Y-126133455D02*
X162324993Y-126063736D01*
X162324993Y-126063736D02*
X162147276Y-125946398D01*
X162147276Y-125946398D02*
X161956800Y-125616483D01*
X161956800Y-125616483D02*
X161944040Y-125403907D01*
X161944040Y-125403907D02*
X162013759Y-125143712D01*
X162013759Y-125143712D02*
X162296055Y-124870757D01*
X162296055Y-124870757D02*
X162873405Y-124537424D01*
X162873405Y-124537424D02*
X163250939Y-124429426D01*
X163250939Y-124429426D02*
X163511134Y-124499145D01*
X163511134Y-124499145D02*
X163688851Y-124616483D01*
X164403136Y-125853663D02*
X163004419Y-127431013D01*
X163004419Y-127431013D02*
X165069803Y-127008363D01*
D10*
D11*
X136639690Y-127726925D02*
X134907639Y-126726925D01*
X137211118Y-126737182D02*
X135792804Y-126908060D01*
X135479068Y-125737182D02*
X135897382Y-127298353D01*
X137639690Y-125994874D02*
X135907639Y-124994874D01*
X138211118Y-125005131D02*
X136792804Y-125176010D01*
X136479068Y-124005131D02*
X136897382Y-125566303D01*
X136907639Y-123262823D02*
X138309775Y-124072347D01*
X138309775Y-124072347D02*
X138522352Y-124085107D01*
X138522352Y-124085107D02*
X138652449Y-124050247D01*
X138652449Y-124050247D02*
X138830166Y-123932909D01*
X138830166Y-123932909D02*
X139020642Y-123602994D01*
X139020642Y-123602994D02*
X139033402Y-123390418D01*
X139033402Y-123390418D02*
X138998542Y-123260320D01*
X138998542Y-123260320D02*
X138881204Y-123082604D01*
X138881204Y-123082604D02*
X137479068Y-122273080D01*
X137860020Y-121613251D02*
X138526687Y-120458551D01*
X138526687Y-120458551D02*
X139592071Y-122613251D01*
X139592071Y-122613251D02*
X140258737Y-121458551D01*
X140639690Y-120798722D02*
X138907639Y-119798722D01*
X138907639Y-119798722D02*
X141211118Y-119808978D01*
X141211118Y-119808978D02*
X139479068Y-118808978D01*
X140780044Y-118460383D02*
X141113378Y-117883032D01*
X142163499Y-118159406D02*
X141687309Y-118984192D01*
X141687309Y-118984192D02*
X139955258Y-117984192D01*
X139955258Y-117984192D02*
X140431449Y-117159406D01*
X140717163Y-116664534D02*
X141288592Y-115674791D01*
X142734928Y-117169663D02*
X141002877Y-116169663D01*
X141526687Y-115262398D02*
X142193354Y-114107697D01*
X142193354Y-114107697D02*
X143258738Y-116262398D01*
X143258738Y-116262398D02*
X143925404Y-115107697D01*
X142764782Y-113117954D02*
X142955258Y-112788039D01*
X142955258Y-112788039D02*
X143132975Y-112670701D01*
X143132975Y-112670701D02*
X143393170Y-112600982D01*
X143393170Y-112600982D02*
X143770704Y-112708979D01*
X143770704Y-112708979D02*
X144348054Y-113042313D01*
X144348054Y-113042313D02*
X144630350Y-113315268D01*
X144630350Y-113315268D02*
X144700069Y-113575463D01*
X144700069Y-113575463D02*
X144687309Y-113788039D01*
X144687309Y-113788039D02*
X144496833Y-114117954D01*
X144496833Y-114117954D02*
X144319116Y-114235292D01*
X144319116Y-114235292D02*
X144058921Y-114305011D01*
X144058921Y-114305011D02*
X143681388Y-114197013D01*
X143681388Y-114197013D02*
X143104037Y-113863680D01*
X143104037Y-113863680D02*
X142821742Y-113590725D01*
X142821742Y-113590725D02*
X142752023Y-113330530D01*
X142752023Y-113330530D02*
X142764782Y-113117954D01*
X143479068Y-111880775D02*
X145544452Y-112303424D01*
X145544452Y-112303424D02*
X144145735Y-110726074D01*
D10*
D11*
X157834585Y-130397771D02*
X157977442Y-130254914D01*
X157977442Y-130254914D02*
X158263157Y-130112057D01*
X158263157Y-130112057D02*
X158977442Y-130112057D01*
X158977442Y-130112057D02*
X159263157Y-130254914D01*
X159263157Y-130254914D02*
X159406014Y-130397771D01*
X159406014Y-130397771D02*
X159548871Y-130683485D01*
X159548871Y-130683485D02*
X159548871Y-130969200D01*
X159548871Y-130969200D02*
X159406014Y-131397771D01*
X159406014Y-131397771D02*
X157691728Y-133112057D01*
X157691728Y-133112057D02*
X159548871Y-133112057D01*
X161406014Y-130112057D02*
X161691728Y-130112057D01*
X161691728Y-130112057D02*
X161977442Y-130254914D01*
X161977442Y-130254914D02*
X162120300Y-130397771D01*
X162120300Y-130397771D02*
X162263157Y-130683485D01*
X162263157Y-130683485D02*
X162406014Y-131254914D01*
X162406014Y-131254914D02*
X162406014Y-131969200D01*
X162406014Y-131969200D02*
X162263157Y-132540628D01*
X162263157Y-132540628D02*
X162120300Y-132826342D01*
X162120300Y-132826342D02*
X161977442Y-132969200D01*
X161977442Y-132969200D02*
X161691728Y-133112057D01*
X161691728Y-133112057D02*
X161406014Y-133112057D01*
X161406014Y-133112057D02*
X161120300Y-132969200D01*
X161120300Y-132969200D02*
X160977442Y-132826342D01*
X160977442Y-132826342D02*
X160834585Y-132540628D01*
X160834585Y-132540628D02*
X160691728Y-131969200D01*
X160691728Y-131969200D02*
X160691728Y-131254914D01*
X160691728Y-131254914D02*
X160834585Y-130683485D01*
X160834585Y-130683485D02*
X160977442Y-130397771D01*
X160977442Y-130397771D02*
X161120300Y-130254914D01*
X161120300Y-130254914D02*
X161406014Y-130112057D01*
X163548871Y-130397771D02*
X163691728Y-130254914D01*
X163691728Y-130254914D02*
X163977443Y-130112057D01*
X163977443Y-130112057D02*
X164691728Y-130112057D01*
X164691728Y-130112057D02*
X164977443Y-130254914D01*
X164977443Y-130254914D02*
X165120300Y-130397771D01*
X165120300Y-130397771D02*
X165263157Y-130683485D01*
X165263157Y-130683485D02*
X165263157Y-130969200D01*
X165263157Y-130969200D02*
X165120300Y-131397771D01*
X165120300Y-131397771D02*
X163406014Y-133112057D01*
X163406014Y-133112057D02*
X165263157Y-133112057D01*
X167834586Y-130112057D02*
X167263157Y-130112057D01*
X167263157Y-130112057D02*
X166977443Y-130254914D01*
X166977443Y-130254914D02*
X166834586Y-130397771D01*
X166834586Y-130397771D02*
X166548871Y-130826342D01*
X166548871Y-130826342D02*
X166406014Y-131397771D01*
X166406014Y-131397771D02*
X166406014Y-132540628D01*
X166406014Y-132540628D02*
X166548871Y-132826342D01*
X166548871Y-132826342D02*
X166691728Y-132969200D01*
X166691728Y-132969200D02*
X166977443Y-133112057D01*
X166977443Y-133112057D02*
X167548871Y-133112057D01*
X167548871Y-133112057D02*
X167834586Y-132969200D01*
X167834586Y-132969200D02*
X167977443Y-132826342D01*
X167977443Y-132826342D02*
X168120300Y-132540628D01*
X168120300Y-132540628D02*
X168120300Y-131826342D01*
X168120300Y-131826342D02*
X167977443Y-131540628D01*
X167977443Y-131540628D02*
X167834586Y-131397771D01*
X167834586Y-131397771D02*
X167548871Y-131254914D01*
X167548871Y-131254914D02*
X166977443Y-131254914D01*
X166977443Y-131254914D02*
X166691728Y-131397771D01*
X166691728Y-131397771D02*
X166548871Y-131540628D01*
X166548871Y-131540628D02*
X166406014Y-131826342D01*
D10*
D11*
X132334585Y-130397771D02*
X132477442Y-130254914D01*
X132477442Y-130254914D02*
X132763157Y-130112057D01*
X132763157Y-130112057D02*
X133477442Y-130112057D01*
X133477442Y-130112057D02*
X133763157Y-130254914D01*
X133763157Y-130254914D02*
X133906014Y-130397771D01*
X133906014Y-130397771D02*
X134048871Y-130683485D01*
X134048871Y-130683485D02*
X134048871Y-130969200D01*
X134048871Y-130969200D02*
X133906014Y-131397771D01*
X133906014Y-131397771D02*
X132191728Y-133112057D01*
X132191728Y-133112057D02*
X134048871Y-133112057D01*
X135906014Y-130112057D02*
X136191728Y-130112057D01*
X136191728Y-130112057D02*
X136477442Y-130254914D01*
X136477442Y-130254914D02*
X136620300Y-130397771D01*
X136620300Y-130397771D02*
X136763157Y-130683485D01*
X136763157Y-130683485D02*
X136906014Y-131254914D01*
X136906014Y-131254914D02*
X136906014Y-131969200D01*
X136906014Y-131969200D02*
X136763157Y-132540628D01*
X136763157Y-132540628D02*
X136620300Y-132826342D01*
X136620300Y-132826342D02*
X136477442Y-132969200D01*
X136477442Y-132969200D02*
X136191728Y-133112057D01*
X136191728Y-133112057D02*
X135906014Y-133112057D01*
X135906014Y-133112057D02*
X135620300Y-132969200D01*
X135620300Y-132969200D02*
X135477442Y-132826342D01*
X135477442Y-132826342D02*
X135334585Y-132540628D01*
X135334585Y-132540628D02*
X135191728Y-131969200D01*
X135191728Y-131969200D02*
X135191728Y-131254914D01*
X135191728Y-131254914D02*
X135334585Y-130683485D01*
X135334585Y-130683485D02*
X135477442Y-130397771D01*
X135477442Y-130397771D02*
X135620300Y-130254914D01*
X135620300Y-130254914D02*
X135906014Y-130112057D01*
X138048871Y-130397771D02*
X138191728Y-130254914D01*
X138191728Y-130254914D02*
X138477443Y-130112057D01*
X138477443Y-130112057D02*
X139191728Y-130112057D01*
X139191728Y-130112057D02*
X139477443Y-130254914D01*
X139477443Y-130254914D02*
X139620300Y-130397771D01*
X139620300Y-130397771D02*
X139763157Y-130683485D01*
X139763157Y-130683485D02*
X139763157Y-130969200D01*
X139763157Y-130969200D02*
X139620300Y-131397771D01*
X139620300Y-131397771D02*
X137906014Y-133112057D01*
X137906014Y-133112057D02*
X139763157Y-133112057D01*
X142477443Y-130112057D02*
X141048871Y-130112057D01*
X141048871Y-130112057D02*
X140906014Y-131540628D01*
X140906014Y-131540628D02*
X141048871Y-131397771D01*
X141048871Y-131397771D02*
X141334586Y-131254914D01*
X141334586Y-131254914D02*
X142048871Y-131254914D01*
X142048871Y-131254914D02*
X142334586Y-131397771D01*
X142334586Y-131397771D02*
X142477443Y-131540628D01*
X142477443Y-131540628D02*
X142620300Y-131826342D01*
X142620300Y-131826342D02*
X142620300Y-132540628D01*
X142620300Y-132540628D02*
X142477443Y-132826342D01*
X142477443Y-132826342D02*
X142334586Y-132969200D01*
X142334586Y-132969200D02*
X142048871Y-133112057D01*
X142048871Y-133112057D02*
X141334586Y-133112057D01*
X141334586Y-133112057D02*
X141048871Y-132969200D01*
X141048871Y-132969200D02*
X140906014Y-132826342D01*
D12*
%TO.P,HOLE1,1,1*%
%TO.N,unconnected-(HOLE1-Pad1)*%
X150000000Y-81000000D03*
%TD*%
D13*
%TO.P,VD5,4,DIN*%
%TO.N,Net-(VD4-DOUT)*%
X118890000Y-136640000D03*
%TO.P,VD5,3,VSS*%
%TO.N,GND*%
X117110000Y-136640000D03*
%TO.P,VD5,2,DOUT*%
%TO.N,Net-(VD5-DOUT)*%
X117110000Y-133360000D03*
%TO.P,VD5,1,VDD*%
%TO.N,VCC5V0*%
X118890000Y-133360000D03*
%TD*%
D14*
%TO.P,C23,1*%
%TO.N,GND*%
X149225000Y-113000000D03*
%TO.P,C23,2*%
%TO.N,VCC5V0*%
X150775000Y-113000000D03*
%TD*%
D15*
%TO.P,VD20,1,VDD*%
%TO.N,VCC5V0*%
X158360000Y-141610000D03*
%TO.P,VD20,2,DOUT*%
%TO.N,unconnected-(VD20-DOUT-Pad2)*%
X158360000Y-143390000D03*
%TO.P,VD20,3,VSS*%
%TO.N,GND*%
X161640000Y-143390000D03*
%TO.P,VD20,4,DIN*%
%TO.N,Net-(VD19-DOUT)*%
X161640000Y-141610000D03*
%TD*%
D14*
%TO.P,C22,1*%
%TO.N,VCC5V0*%
X159225000Y-138500000D03*
%TO.P,C22,2*%
%TO.N,GND*%
X160775000Y-138500000D03*
%TD*%
D16*
%TO.P,XP2,1,1*%
%TO.N,/RST_EXT*%
X153000000Y-130000000D03*
D17*
%TO.P,XP2,2,2*%
%TO.N,VCC5V0*%
X151000000Y-130000000D03*
%TO.P,XP2,3,3*%
%TO.N,GND*%
X149000000Y-130000000D03*
%TO.P,XP2,4,4*%
%TO.N,/SWIO_EXT*%
X147000000Y-130000000D03*
%TD*%
D18*
%TO.P,XP1,1,1*%
%TO.N,VCC5V0*%
X151250000Y-142525000D03*
D19*
%TO.P,XP1,2,2*%
%TO.N,GND*%
X148750000Y-142525000D03*
%TD*%
D15*
%TO.P,VD19,1,VDD*%
%TO.N,VCC5V0*%
X165860000Y-141610000D03*
%TO.P,VD19,2,DOUT*%
%TO.N,Net-(VD19-DOUT)*%
X165860000Y-143390000D03*
%TO.P,VD19,3,VSS*%
%TO.N,GND*%
X169140000Y-143390000D03*
%TO.P,VD19,4,DIN*%
%TO.N,Net-(VD18-DOUT)*%
X169140000Y-141610000D03*
%TD*%
%TO.P,VD18,1,VDD*%
%TO.N,VCC5V0*%
X173360000Y-141610000D03*
%TO.P,VD18,2,DOUT*%
%TO.N,Net-(VD18-DOUT)*%
X173360000Y-143390000D03*
%TO.P,VD18,3,VSS*%
%TO.N,GND*%
X176640000Y-143390000D03*
%TO.P,VD18,4,DIN*%
%TO.N,Net-(VD17-DOUT)*%
X176640000Y-141610000D03*
%TD*%
D20*
%TO.P,VD17,1,VDD*%
%TO.N,VCC5V0*%
X181110000Y-136640000D03*
%TO.P,VD17,2,DOUT*%
%TO.N,Net-(VD17-DOUT)*%
X182890000Y-136640000D03*
%TO.P,VD17,3,VSS*%
%TO.N,GND*%
X182890000Y-133360000D03*
%TO.P,VD17,4,DIN*%
%TO.N,Net-(VD16-DOUT)*%
X181110000Y-133360000D03*
%TD*%
%TO.P,VD16,1,VDD*%
%TO.N,VCC5V0*%
X176110000Y-128640000D03*
%TO.P,VD16,2,DOUT*%
%TO.N,Net-(VD16-DOUT)*%
X177890000Y-128640000D03*
%TO.P,VD16,3,VSS*%
%TO.N,GND*%
X177890000Y-125360000D03*
%TO.P,VD16,4,DIN*%
%TO.N,Net-(VD15-DOUT)*%
X176110000Y-125360000D03*
%TD*%
%TO.P,VD15,1,VDD*%
%TO.N,VCC5V0*%
X171110000Y-120640000D03*
%TO.P,VD15,2,DOUT*%
%TO.N,Net-(VD15-DOUT)*%
X172890000Y-120640000D03*
%TO.P,VD15,3,VSS*%
%TO.N,GND*%
X172890000Y-117360000D03*
%TO.P,VD15,4,DIN*%
%TO.N,Net-(VD14-DOUT)*%
X171110000Y-117360000D03*
%TD*%
%TO.P,VD14,1,VDD*%
%TO.N,VCC5V0*%
X166110000Y-112640000D03*
%TO.P,VD14,2,DOUT*%
%TO.N,Net-(VD14-DOUT)*%
X167890000Y-112640000D03*
%TO.P,VD14,3,VSS*%
%TO.N,GND*%
X167890000Y-109360000D03*
%TO.P,VD14,4,DIN*%
%TO.N,Net-(VD13-DOUT)*%
X166110000Y-109360000D03*
%TD*%
%TO.P,VD13,1,VDD*%
%TO.N,VCC5V0*%
X161110000Y-104640000D03*
%TO.P,VD13,2,DOUT*%
%TO.N,Net-(VD13-DOUT)*%
X162890000Y-104640000D03*
%TO.P,VD13,3,VSS*%
%TO.N,GND*%
X162890000Y-101360000D03*
%TO.P,VD13,4,DIN*%
%TO.N,Net-(VD12-DOUT)*%
X161110000Y-101360000D03*
%TD*%
%TO.P,VD12,1,VDD*%
%TO.N,VCC5V0*%
X156110000Y-96640000D03*
%TO.P,VD12,2,DOUT*%
%TO.N,Net-(VD12-DOUT)*%
X157890000Y-96640000D03*
%TO.P,VD12,3,VSS*%
%TO.N,GND*%
X157890000Y-93360000D03*
%TO.P,VD12,4,DIN*%
%TO.N,Net-(VD11-DOUT)*%
X156110000Y-93360000D03*
%TD*%
D21*
%TO.P,VD11,1,VDD*%
%TO.N,VCC5V0*%
X151640000Y-87890000D03*
%TO.P,VD11,2,DOUT*%
%TO.N,Net-(VD11-DOUT)*%
X151640000Y-86110000D03*
%TO.P,VD11,3,VSS*%
%TO.N,GND*%
X148360000Y-86110000D03*
%TO.P,VD11,4,DIN*%
%TO.N,Net-(VD10-DOUT)*%
X148360000Y-87890000D03*
%TD*%
D13*
%TO.P,VD10,1,VDD*%
%TO.N,VCC5V0*%
X143890000Y-93360000D03*
%TO.P,VD10,2,DOUT*%
%TO.N,Net-(VD10-DOUT)*%
X142110000Y-93360000D03*
%TO.P,VD10,3,VSS*%
%TO.N,GND*%
X142110000Y-96640000D03*
%TO.P,VD10,4,DIN*%
%TO.N,Net-(VD10-DIN)*%
X143890000Y-96640000D03*
%TD*%
%TO.P,VD9,1,VDD*%
%TO.N,VCC5V0*%
X138890000Y-101360000D03*
%TO.P,VD9,2,DOUT*%
%TO.N,Net-(VD10-DIN)*%
X137110000Y-101360000D03*
%TO.P,VD9,3,VSS*%
%TO.N,GND*%
X137110000Y-104640000D03*
%TO.P,VD9,4,DIN*%
%TO.N,Net-(VD8-DOUT)*%
X138890000Y-104640000D03*
%TD*%
%TO.P,VD8,1,VDD*%
%TO.N,VCC5V0*%
X133890000Y-109360000D03*
%TO.P,VD8,2,DOUT*%
%TO.N,Net-(VD8-DOUT)*%
X132110000Y-109360000D03*
%TO.P,VD8,3,VSS*%
%TO.N,GND*%
X132110000Y-112640000D03*
%TO.P,VD8,4,DIN*%
%TO.N,Net-(VD7-DOUT)*%
X133890000Y-112640000D03*
%TD*%
%TO.P,VD7,1,VDD*%
%TO.N,VCC5V0*%
X128890000Y-117360000D03*
%TO.P,VD7,2,DOUT*%
%TO.N,Net-(VD7-DOUT)*%
X127110000Y-117360000D03*
%TO.P,VD7,3,VSS*%
%TO.N,GND*%
X127110000Y-120640000D03*
%TO.P,VD7,4,DIN*%
%TO.N,Net-(VD6-DOUT)*%
X128890000Y-120640000D03*
%TD*%
%TO.P,VD6,1,VDD*%
%TO.N,VCC5V0*%
X123890000Y-125360000D03*
%TO.P,VD6,2,DOUT*%
%TO.N,Net-(VD6-DOUT)*%
X122110000Y-125360000D03*
%TO.P,VD6,3,VSS*%
%TO.N,GND*%
X122110000Y-128640000D03*
%TO.P,VD6,4,DIN*%
%TO.N,Net-(VD5-DOUT)*%
X123890000Y-128640000D03*
%TD*%
D15*
%TO.P,VD4,1,VDD*%
%TO.N,VCC5V0*%
X123360000Y-141610000D03*
%TO.P,VD4,2,DOUT*%
%TO.N,Net-(VD4-DOUT)*%
X123360000Y-143390000D03*
%TO.P,VD4,3,VSS*%
%TO.N,GND*%
X126640000Y-143390000D03*
%TO.P,VD4,4,DIN*%
%TO.N,Net-(VD3-DOUT)*%
X126640000Y-141610000D03*
%TD*%
%TO.P,VD3,1,VDD*%
%TO.N,VCC5V0*%
X130860000Y-141610000D03*
%TO.P,VD3,2,DOUT*%
%TO.N,Net-(VD3-DOUT)*%
X130860000Y-143390000D03*
%TO.P,VD3,3,VSS*%
%TO.N,GND*%
X134140000Y-143390000D03*
%TO.P,VD3,4,DIN*%
%TO.N,Net-(VD2-DOUT)*%
X134140000Y-141610000D03*
%TD*%
%TO.P,VD2,1,VDD*%
%TO.N,VCC5V0*%
X138360000Y-141610000D03*
%TO.P,VD2,2,DOUT*%
%TO.N,Net-(VD2-DOUT)*%
X138360000Y-143390000D03*
%TO.P,VD2,3,VSS*%
%TO.N,GND*%
X141640000Y-143390000D03*
%TO.P,VD2,4,DIN*%
%TO.N,Net-(VD2-DIN)*%
X141640000Y-141610000D03*
%TD*%
D22*
%TO.P,VD1,1,K*%
%TO.N,VCC5V0*%
X151750000Y-136000000D03*
%TO.P,VD1,2,A*%
%TO.N,GND*%
X148250000Y-136000000D03*
%TD*%
D23*
%TO.P,R4,1*%
%TO.N,/MOSI*%
X145000000Y-125175000D03*
%TO.P,R4,2*%
%TO.N,Net-(VD2-DIN)*%
X145000000Y-126825000D03*
%TD*%
%TO.P,R3,1*%
%TO.N,/SWIO*%
X147000000Y-125175000D03*
%TO.P,R3,2*%
%TO.N,/SWIO_EXT*%
X147000000Y-126825000D03*
%TD*%
%TO.P,R2,1*%
%TO.N,/RESET*%
X153000000Y-125175000D03*
%TO.P,R2,2*%
%TO.N,/RST_EXT*%
X153000000Y-126825000D03*
%TD*%
D24*
%TO.P,R1,1*%
%TO.N,VCC5V0*%
X151000000Y-126825000D03*
%TO.P,R1,2*%
%TO.N,/RESET*%
X151000000Y-125175000D03*
%TD*%
D25*
%TO.P,DD1,1,PD4*%
%TO.N,unconnected-(DD1-PD4-Pad1)*%
X152862500Y-122925000D03*
%TO.P,DD1,2,PD5*%
%TO.N,unconnected-(DD1-PD5-Pad2)*%
X152862500Y-122275000D03*
%TO.P,DD1,3,PD6*%
%TO.N,unconnected-(DD1-PD6-Pad3)*%
X152862500Y-121625000D03*
%TO.P,DD1,4,PD7*%
%TO.N,/RESET*%
X152862500Y-120975000D03*
%TO.P,DD1,5,PA1*%
%TO.N,unconnected-(DD1-PA1-Pad5)*%
X152862500Y-120325000D03*
%TO.P,DD1,6,PA2*%
%TO.N,unconnected-(DD1-PA2-Pad6)*%
X152862500Y-119675000D03*
%TO.P,DD1,7,VSS*%
%TO.N,GND*%
X152862500Y-119025000D03*
%TO.P,DD1,8,PD0*%
%TO.N,unconnected-(DD1-PD0-Pad8)*%
X152862500Y-118375000D03*
%TO.P,DD1,9,VDD*%
%TO.N,VCC5V0*%
X152862500Y-117725000D03*
%TO.P,DD1,10,PC0*%
%TO.N,unconnected-(DD1-PC0-Pad10)*%
X152862500Y-117075000D03*
%TO.P,DD1,11,PC1*%
%TO.N,unconnected-(DD1-PC1-Pad11)*%
X147137500Y-117075000D03*
%TO.P,DD1,12,PC2*%
%TO.N,unconnected-(DD1-PC2-Pad12)*%
X147137500Y-117725000D03*
%TO.P,DD1,13,PC3*%
%TO.N,unconnected-(DD1-PC3-Pad13)*%
X147137500Y-118375000D03*
%TO.P,DD1,14,PC4*%
%TO.N,unconnected-(DD1-PC4-Pad14)*%
X147137500Y-119025000D03*
%TO.P,DD1,15,PC5*%
%TO.N,unconnected-(DD1-PC5-Pad15)*%
X147137500Y-119675000D03*
%TO.P,DD1,16,PC6*%
%TO.N,/MOSI*%
X147137500Y-120325000D03*
%TO.P,DD1,17,PC7*%
%TO.N,unconnected-(DD1-PC7-Pad17)*%
X147137500Y-120975000D03*
%TO.P,DD1,18,PD1*%
%TO.N,/SWIO*%
X147137500Y-121625000D03*
%TO.P,DD1,19,PD2*%
%TO.N,unconnected-(DD1-PD2-Pad19)*%
X147137500Y-122275000D03*
%TO.P,DD1,20,PD3*%
%TO.N,unconnected-(DD1-PD3-Pad20)*%
X147137500Y-122925000D03*
%TD*%
D14*
%TO.P,C21,1*%
%TO.N,VCC5V0*%
X166725000Y-138500000D03*
%TO.P,C21,2*%
%TO.N,GND*%
X168275000Y-138500000D03*
%TD*%
%TO.P,C20,1*%
%TO.N,VCC5V0*%
X174225000Y-138500000D03*
%TO.P,C20,2*%
%TO.N,GND*%
X175775000Y-138500000D03*
%TD*%
D26*
%TO.P,C19,1*%
%TO.N,VCC5V0*%
X178000000Y-135775000D03*
%TO.P,C19,2*%
%TO.N,GND*%
X178000000Y-134225000D03*
%TD*%
%TO.P,C18,1*%
%TO.N,VCC5V0*%
X173000000Y-127775000D03*
%TO.P,C18,2*%
%TO.N,GND*%
X173000000Y-126225000D03*
%TD*%
%TO.P,C17,1*%
%TO.N,VCC5V0*%
X168000000Y-119775000D03*
%TO.P,C17,2*%
%TO.N,GND*%
X168000000Y-118225000D03*
%TD*%
%TO.P,C16,1*%
%TO.N,VCC5V0*%
X163000000Y-111775000D03*
%TO.P,C16,2*%
%TO.N,GND*%
X163000000Y-110225000D03*
%TD*%
%TO.P,C15,1*%
%TO.N,VCC5V0*%
X158000000Y-103775000D03*
%TO.P,C15,2*%
%TO.N,GND*%
X158000000Y-102225000D03*
%TD*%
%TO.P,C14,1*%
%TO.N,VCC5V0*%
X153000000Y-95775000D03*
%TO.P,C14,2*%
%TO.N,GND*%
X153000000Y-94225000D03*
%TD*%
D27*
%TO.P,C13,1*%
%TO.N,VCC5V0*%
X150775000Y-91000000D03*
%TO.P,C13,2*%
%TO.N,GND*%
X149225000Y-91000000D03*
%TD*%
D28*
%TO.P,C12,1*%
%TO.N,VCC5V0*%
X147000000Y-94225000D03*
%TO.P,C12,2*%
%TO.N,GND*%
X147000000Y-95775000D03*
%TD*%
%TO.P,C11,1*%
%TO.N,VCC5V0*%
X142000000Y-102225000D03*
%TO.P,C11,2*%
%TO.N,GND*%
X142000000Y-103775000D03*
%TD*%
%TO.P,C10,1*%
%TO.N,VCC5V0*%
X137000000Y-110225000D03*
%TO.P,C10,2*%
%TO.N,GND*%
X137000000Y-111775000D03*
%TD*%
%TO.P,C9,1*%
%TO.N,VCC5V0*%
X132000000Y-118225000D03*
%TO.P,C9,2*%
%TO.N,GND*%
X132000000Y-119775000D03*
%TD*%
%TO.P,C8,1*%
%TO.N,VCC5V0*%
X127000000Y-126225000D03*
%TO.P,C8,2*%
%TO.N,GND*%
X127000000Y-127775000D03*
%TD*%
%TO.P,C7,1*%
%TO.N,VCC5V0*%
X122000000Y-134225000D03*
%TO.P,C7,2*%
%TO.N,GND*%
X122000000Y-135775000D03*
%TD*%
D14*
%TO.P,C6,1*%
%TO.N,VCC5V0*%
X124225000Y-138500000D03*
%TO.P,C6,2*%
%TO.N,GND*%
X125775000Y-138500000D03*
%TD*%
%TO.P,C5,1*%
%TO.N,VCC5V0*%
X131725000Y-138500000D03*
%TO.P,C5,2*%
%TO.N,GND*%
X133275000Y-138500000D03*
%TD*%
%TO.P,C4,1*%
%TO.N,VCC5V0*%
X139225000Y-138500000D03*
%TO.P,C4,2*%
%TO.N,GND*%
X140775000Y-138500000D03*
%TD*%
D26*
%TO.P,C3,1*%
%TO.N,GND*%
X149000000Y-126775000D03*
%TO.P,C3,2*%
%TO.N,/RESET*%
X149000000Y-125225000D03*
%TD*%
D14*
%TO.P,C2,1*%
%TO.N,GND*%
X149225000Y-115000000D03*
%TO.P,C2,2*%
%TO.N,VCC5V0*%
X150775000Y-115000000D03*
%TD*%
%TO.P,C1,1*%
%TO.N,GND*%
X149225000Y-133000000D03*
%TO.P,C1,2*%
%TO.N,VCC5V0*%
X150775000Y-133000000D03*
%TD*%
D29*
%TO.N,GND*%
X127000000Y-129000000D03*
X132000000Y-121000000D03*
X137000000Y-113000000D03*
X142000000Y-105000000D03*
X148000000Y-91000000D03*
X147000000Y-97000000D03*
X153000000Y-93000000D03*
X158000000Y-101000000D03*
X163000000Y-109000000D03*
X168000000Y-117000000D03*
X173000000Y-125000000D03*
X178000000Y-133000000D03*
X122000000Y-137000000D03*
X177000000Y-138500000D03*
X169500000Y-138500000D03*
X162000000Y-138500000D03*
X127000000Y-138500000D03*
X134500000Y-138500000D03*
X142000000Y-138500000D03*
X117000000Y-135000000D03*
%TO.N,VCC5V0*%
X141500000Y-136000000D03*
X143500000Y-136000000D03*
X142500000Y-136000000D03*
X158500000Y-136000000D03*
X157500000Y-136000000D03*
X156500000Y-136000000D03*
%TO.N,GND*%
X178000000Y-127000000D03*
X173000000Y-119000000D03*
X168000000Y-111000000D03*
X163000000Y-103000000D03*
X158000000Y-95000000D03*
X150000000Y-86000000D03*
X142000000Y-95000000D03*
X137000000Y-103000000D03*
X132000000Y-111000000D03*
X127000000Y-119000000D03*
X122000000Y-127000000D03*
X183000000Y-135000000D03*
X175000000Y-143500000D03*
X167500000Y-143500000D03*
X160000000Y-143500000D03*
X125000000Y-143500000D03*
X132500000Y-143500000D03*
X140000000Y-143500000D03*
X151000000Y-119000000D03*
X150000000Y-119000000D03*
X148000000Y-115000000D03*
X148000000Y-113000000D03*
%TD*%
D30*
%TO.N,VCC5V0*%
X150000000Y-95000000D02*
X150000000Y-99000000D01*
D31*
X150000000Y-99000000D02*
X153000000Y-99000000D01*
D30*
X150775000Y-94225000D02*
X150000000Y-95000000D01*
X150775000Y-91000000D02*
X150775000Y-94225000D01*
X148500000Y-94500000D02*
X148500000Y-98500000D01*
D31*
X149000000Y-99000000D02*
X150000000Y-99000000D01*
D30*
X148500000Y-98500000D02*
X149000000Y-99000000D01*
X148225000Y-94225000D02*
X148500000Y-94500000D01*
X147000000Y-94225000D02*
X148225000Y-94225000D01*
X153000000Y-95775000D02*
X153000000Y-99000000D01*
D31*
X146000000Y-99000000D02*
X149000000Y-99000000D01*
X153000000Y-99000000D02*
X154000000Y-99000000D01*
X145000000Y-100000000D02*
X146000000Y-99000000D01*
X155000000Y-100000000D02*
X154000000Y-99000000D01*
D30*
X158000000Y-103775000D02*
X155275000Y-103775000D01*
D31*
X155000000Y-103500000D02*
X155000000Y-100000000D01*
D30*
X155275000Y-103775000D02*
X155000000Y-103500000D01*
X144775000Y-102225000D02*
X145000000Y-102000000D01*
D31*
X145000000Y-102000000D02*
X145000000Y-100000000D01*
D30*
X142000000Y-102225000D02*
X144775000Y-102225000D01*
D31*
X145000000Y-105000000D02*
X145000000Y-102000000D01*
X159000000Y-108000000D02*
X156000000Y-108000000D01*
X160000000Y-109000000D02*
X159000000Y-108000000D01*
X160000000Y-112000000D02*
X160000000Y-109000000D01*
X156000000Y-108000000D02*
X155000000Y-107000000D01*
X155000000Y-107000000D02*
X155000000Y-103500000D01*
D30*
X139775000Y-110225000D02*
X140000000Y-110000000D01*
D31*
X140000000Y-110000000D02*
X140000000Y-109000000D01*
D30*
X137000000Y-110225000D02*
X139775000Y-110225000D01*
D31*
X145000000Y-107000000D02*
X145000000Y-105000000D01*
X144000000Y-108000000D02*
X145000000Y-107000000D01*
X140000000Y-109000000D02*
X141000000Y-108000000D01*
X141000000Y-108000000D02*
X144000000Y-108000000D01*
X140000000Y-114000000D02*
X140000000Y-110000000D01*
X139000000Y-115000000D02*
X140000000Y-114000000D01*
X135000000Y-116000000D02*
X136000000Y-115000000D01*
X136000000Y-115000000D02*
X139000000Y-115000000D01*
X135000000Y-118000000D02*
X135000000Y-116000000D01*
D30*
X163000000Y-111775000D02*
X160225000Y-111775000D01*
X160225000Y-111775000D02*
X160000000Y-112000000D01*
D31*
X160000000Y-114000000D02*
X160000000Y-112000000D01*
X164000000Y-115000000D02*
X161000000Y-115000000D01*
X161000000Y-115000000D02*
X160000000Y-114000000D01*
X165000000Y-116000000D02*
X164000000Y-115000000D01*
D30*
X166000000Y-118500000D02*
X165000000Y-118500000D01*
D31*
X165000000Y-120000000D02*
X165000000Y-118500000D01*
D30*
X166500000Y-119000000D02*
X166000000Y-118500000D01*
X166500000Y-119500000D02*
X166500000Y-119000000D01*
X166775000Y-119775000D02*
X166500000Y-119500000D01*
X168000000Y-119775000D02*
X166775000Y-119775000D01*
X132000000Y-118225000D02*
X134775000Y-118225000D01*
X134775000Y-118225000D02*
X135000000Y-118000000D01*
D31*
X135000000Y-120000000D02*
X135000000Y-118000000D01*
X130000000Y-125000000D02*
X135000000Y-120000000D01*
X170000000Y-125000000D02*
X165000000Y-120000000D01*
X165000000Y-118500000D02*
X165000000Y-116000000D01*
X171250000Y-130500000D02*
X170000000Y-129250000D01*
X170000000Y-129250000D02*
X170000000Y-125000000D01*
X173000000Y-130500000D02*
X171250000Y-130500000D01*
D32*
%TO.N,Net-(VD16-DOUT)*%
X181110000Y-132110000D02*
X181110000Y-133360000D01*
X179000000Y-131250000D02*
X180250000Y-131250000D01*
X180250000Y-131250000D02*
X181110000Y-132110000D01*
X177890000Y-130140000D02*
X179000000Y-131250000D01*
X177890000Y-128640000D02*
X177890000Y-130140000D01*
%TO.N,Net-(VD15-DOUT)*%
X176110000Y-124110000D02*
X176110000Y-125360000D01*
X174000000Y-123000000D02*
X175000000Y-123000000D01*
X175000000Y-123000000D02*
X176110000Y-124110000D01*
X172890000Y-121890000D02*
X174000000Y-123000000D01*
X172890000Y-120640000D02*
X172890000Y-121890000D01*
%TO.N,Net-(VD14-DOUT)*%
X170000000Y-115000000D02*
X171110000Y-116110000D01*
X167890000Y-113890000D02*
X169000000Y-115000000D01*
X169000000Y-115000000D02*
X170000000Y-115000000D01*
X171110000Y-116110000D02*
X171110000Y-117360000D01*
X167890000Y-112640000D02*
X167890000Y-113890000D01*
%TO.N,Net-(VD13-DOUT)*%
X165500000Y-107000000D02*
X166110000Y-107610000D01*
X163625000Y-107000000D02*
X165500000Y-107000000D01*
X162890000Y-106265000D02*
X163625000Y-107000000D01*
X166110000Y-107610000D02*
X166110000Y-109360000D01*
X162890000Y-104640000D02*
X162890000Y-106265000D01*
%TO.N,Net-(VD12-DOUT)*%
X161110000Y-99735000D02*
X161110000Y-101360000D01*
X157890000Y-97890000D02*
X159000000Y-99000000D01*
X160375000Y-99000000D02*
X161110000Y-99735000D01*
X157890000Y-96640000D02*
X157890000Y-97890000D01*
X159000000Y-99000000D02*
X160375000Y-99000000D01*
%TO.N,Net-(VD10-DIN)*%
X143890000Y-98110000D02*
X143890000Y-96640000D01*
X138000000Y-99000000D02*
X143000000Y-99000000D01*
X143000000Y-99000000D02*
X143890000Y-98110000D01*
X137110000Y-99890000D02*
X138000000Y-99000000D01*
X137110000Y-101360000D02*
X137110000Y-99890000D01*
%TO.N,Net-(VD8-DOUT)*%
X138890000Y-106110000D02*
X138890000Y-104640000D01*
X138000000Y-107000000D02*
X138890000Y-106110000D01*
X132110000Y-107890000D02*
X133000000Y-107000000D01*
X132110000Y-109360000D02*
X132110000Y-107890000D01*
X133000000Y-107000000D02*
X138000000Y-107000000D01*
%TO.N,Net-(VD7-DOUT)*%
X133000000Y-115000000D02*
X133890000Y-114110000D01*
X133890000Y-114110000D02*
X133890000Y-112640000D01*
X128000000Y-115000000D02*
X133000000Y-115000000D01*
X127110000Y-115890000D02*
X128000000Y-115000000D01*
X127110000Y-117360000D02*
X127110000Y-115890000D01*
%TO.N,Net-(VD17-DOUT)*%
X182890000Y-138110000D02*
X182890000Y-136640000D01*
X179390000Y-141610000D02*
X182890000Y-138110000D01*
X176640000Y-141610000D02*
X179390000Y-141610000D01*
%TO.N,Net-(VD4-DOUT)*%
X118890000Y-140390000D02*
X118890000Y-136640000D01*
X121890000Y-143390000D02*
X118890000Y-140390000D01*
X123360000Y-143390000D02*
X121890000Y-143390000D01*
%TO.N,Net-(VD5-DOUT)*%
X123890000Y-130110000D02*
X123890000Y-128640000D01*
X122750000Y-131250000D02*
X123890000Y-130110000D01*
X117110000Y-132265000D02*
X118125000Y-131250000D01*
X118125000Y-131250000D02*
X122750000Y-131250000D01*
X117110000Y-133360000D02*
X117110000Y-132265000D01*
%TO.N,Net-(VD6-DOUT)*%
X127250000Y-123750000D02*
X128890000Y-122110000D01*
X122500000Y-123750000D02*
X127250000Y-123750000D01*
X128890000Y-122110000D02*
X128890000Y-120640000D01*
X122110000Y-124140000D02*
X122500000Y-123750000D01*
X122110000Y-125360000D02*
X122110000Y-124140000D01*
D30*
%TO.N,VCC5V0*%
X129775000Y-126225000D02*
X130000000Y-126000000D01*
X127000000Y-126225000D02*
X129775000Y-126225000D01*
X173000000Y-127775000D02*
X173000000Y-130500000D01*
D31*
X174000000Y-130500000D02*
X173000000Y-130500000D01*
X175000000Y-131500000D02*
X174000000Y-130500000D01*
X175000000Y-134000000D02*
X175000000Y-131500000D01*
X130000000Y-129250000D02*
X130000000Y-126000000D01*
X126000000Y-130500000D02*
X128750000Y-130500000D01*
X128750000Y-130500000D02*
X130000000Y-129250000D01*
X125000000Y-134000000D02*
X125000000Y-131500000D01*
X125000000Y-131500000D02*
X126000000Y-130500000D01*
D30*
X123500000Y-136500000D02*
X123500000Y-134225000D01*
X123500000Y-134225000D02*
X124775000Y-134225000D01*
X124225000Y-137225000D02*
X123500000Y-136500000D01*
X124225000Y-138500000D02*
X124225000Y-137225000D01*
X124775000Y-134225000D02*
X125000000Y-134000000D01*
X122000000Y-134225000D02*
X123500000Y-134225000D01*
X176500000Y-134500000D02*
X176000000Y-134000000D01*
X176000000Y-134000000D02*
X175000000Y-134000000D01*
X176500000Y-135500000D02*
X176500000Y-134500000D01*
X178000000Y-135775000D02*
X176775000Y-135775000D01*
X176775000Y-135775000D02*
X176500000Y-135500000D01*
X173000000Y-138000000D02*
X173000000Y-136000000D01*
D31*
X170000000Y-136000000D02*
X173000000Y-136000000D01*
D30*
X173500000Y-138500000D02*
X173000000Y-138000000D01*
X174225000Y-138500000D02*
X173500000Y-138500000D01*
D31*
X173000000Y-136000000D02*
X174000000Y-136000000D01*
X175000000Y-135000000D02*
X175000000Y-134000000D01*
D30*
%TO.N,GND*%
X127000000Y-127775000D02*
X127000000Y-129000000D01*
%TO.N,VCC5V0*%
X130725000Y-118225000D02*
X132000000Y-118225000D01*
X129860000Y-117360000D02*
X130725000Y-118225000D01*
X128890000Y-117360000D02*
X129860000Y-117360000D01*
%TO.N,GND*%
X132000000Y-119775000D02*
X132000000Y-121000000D01*
X137000000Y-111775000D02*
X137000000Y-113000000D01*
X142000000Y-103775000D02*
X142000000Y-105000000D01*
X149225000Y-91000000D02*
X148000000Y-91000000D01*
X147000000Y-95775000D02*
X147000000Y-97000000D01*
X153000000Y-94225000D02*
X153000000Y-93000000D01*
X158000000Y-102225000D02*
X158000000Y-101000000D01*
X163000000Y-110225000D02*
X163000000Y-109000000D01*
X168000000Y-118225000D02*
X168000000Y-117000000D01*
X173000000Y-126225000D02*
X173000000Y-125000000D01*
X178000000Y-134225000D02*
X178000000Y-133000000D01*
X122000000Y-135775000D02*
X122000000Y-137000000D01*
%TO.N,VCC5V0*%
X179275000Y-135775000D02*
X178000000Y-135775000D01*
X180140000Y-136640000D02*
X179275000Y-135775000D01*
X181110000Y-136640000D02*
X180140000Y-136640000D01*
X174387500Y-127775000D02*
X173000000Y-127775000D01*
X175252500Y-128640000D02*
X174387500Y-127775000D01*
X176110000Y-128640000D02*
X175252500Y-128640000D01*
X169387500Y-119775000D02*
X168000000Y-119775000D01*
X170252500Y-120640000D02*
X169387500Y-119775000D01*
X171110000Y-120640000D02*
X170252500Y-120640000D01*
X164275000Y-111775000D02*
X163000000Y-111775000D01*
X166110000Y-112640000D02*
X165140000Y-112640000D01*
X165140000Y-112640000D02*
X164275000Y-111775000D01*
X159275000Y-103775000D02*
X158000000Y-103775000D01*
X160140000Y-104640000D02*
X159275000Y-103775000D01*
X161110000Y-104640000D02*
X160140000Y-104640000D01*
X154275000Y-95775000D02*
X153000000Y-95775000D01*
X155140000Y-96640000D02*
X154275000Y-95775000D01*
X156110000Y-96640000D02*
X155140000Y-96640000D01*
X145725000Y-94225000D02*
X147000000Y-94225000D01*
X144860000Y-93360000D02*
X145725000Y-94225000D01*
X143890000Y-93360000D02*
X144860000Y-93360000D01*
X140725000Y-102225000D02*
X142000000Y-102225000D01*
X139860000Y-101360000D02*
X140725000Y-102225000D01*
X138890000Y-101360000D02*
X139860000Y-101360000D01*
X135725000Y-110225000D02*
X137000000Y-110225000D01*
X133890000Y-109360000D02*
X134860000Y-109360000D01*
X134860000Y-109360000D02*
X135725000Y-110225000D01*
X119860000Y-133360000D02*
X120725000Y-134225000D01*
X118890000Y-133360000D02*
X119860000Y-133360000D01*
X120725000Y-134225000D02*
X122000000Y-134225000D01*
X124860000Y-125360000D02*
X125725000Y-126225000D01*
X125725000Y-126225000D02*
X127000000Y-126225000D01*
X123890000Y-125360000D02*
X124860000Y-125360000D01*
X151640000Y-90135000D02*
X150775000Y-91000000D01*
X151640000Y-87890000D02*
X151640000Y-90135000D01*
X166725000Y-138500000D02*
X166725000Y-136275000D01*
X166725000Y-136275000D02*
X167000000Y-136000000D01*
X159225000Y-136275000D02*
X159500000Y-136000000D01*
X159225000Y-138500000D02*
X159225000Y-136275000D01*
D31*
X159500000Y-136000000D02*
X167000000Y-136000000D01*
D30*
X131725000Y-136225000D02*
X131500000Y-136000000D01*
X131725000Y-138500000D02*
X131725000Y-136225000D01*
D31*
X139000000Y-136000000D02*
X131500000Y-136000000D01*
D30*
X139225000Y-136225000D02*
X139000000Y-136000000D01*
X139225000Y-138500000D02*
X139225000Y-136225000D01*
%TO.N,GND*%
X175775000Y-138500000D02*
X177000000Y-138500000D01*
X168275000Y-138500000D02*
X169500000Y-138500000D01*
X160775000Y-138500000D02*
X162000000Y-138500000D01*
X125775000Y-138500000D02*
X127000000Y-138500000D01*
X133275000Y-138500000D02*
X134500000Y-138500000D01*
X140775000Y-138500000D02*
X142000000Y-138500000D01*
%TO.N,VCC5V0*%
X173360000Y-140640000D02*
X174225000Y-139775000D01*
X174225000Y-139775000D02*
X174225000Y-138500000D01*
X173360000Y-141610000D02*
X173360000Y-140640000D01*
X165860000Y-140640000D02*
X166725000Y-139775000D01*
X166725000Y-139775000D02*
X166725000Y-138500000D01*
X165860000Y-141610000D02*
X165860000Y-140640000D01*
X159225000Y-139775000D02*
X159225000Y-138500000D01*
X158360000Y-140640000D02*
X159225000Y-139775000D01*
X158360000Y-141610000D02*
X158360000Y-140640000D01*
X139225000Y-139775000D02*
X139225000Y-138500000D01*
X138360000Y-140640000D02*
X139225000Y-139775000D01*
X138360000Y-141610000D02*
X138360000Y-140640000D01*
X131725000Y-139775000D02*
X131725000Y-138500000D01*
X130860000Y-140640000D02*
X131725000Y-139775000D01*
X130860000Y-141610000D02*
X130860000Y-140640000D01*
X124225000Y-139775000D02*
X124225000Y-138500000D01*
X123360000Y-140640000D02*
X124225000Y-139775000D01*
X123360000Y-141610000D02*
X123360000Y-140640000D01*
%TO.N,GND*%
X117110000Y-136640000D02*
X117110000Y-135110000D01*
X117110000Y-135110000D02*
X117000000Y-135000000D01*
D31*
%TO.N,VCC5V0*%
X156500000Y-136000000D02*
X159500000Y-136000000D01*
X142500000Y-136000000D02*
X139000000Y-136000000D01*
X143500000Y-136000000D02*
X142500000Y-136000000D01*
X156500000Y-136000000D02*
X151750000Y-136000000D01*
D30*
%TO.N,GND*%
X177890000Y-126890000D02*
X178000000Y-127000000D01*
X177890000Y-125360000D02*
X177890000Y-126890000D01*
X172890000Y-118890000D02*
X173000000Y-119000000D01*
X172890000Y-117360000D02*
X172890000Y-118890000D01*
X167890000Y-110890000D02*
X168000000Y-111000000D01*
X167890000Y-109360000D02*
X167890000Y-110890000D01*
X162890000Y-102890000D02*
X163000000Y-103000000D01*
X162890000Y-101360000D02*
X162890000Y-102890000D01*
X157890000Y-94890000D02*
X158000000Y-95000000D01*
X157890000Y-93360000D02*
X157890000Y-94890000D01*
X149890000Y-86110000D02*
X150000000Y-86000000D01*
X148360000Y-86110000D02*
X149890000Y-86110000D01*
X142110000Y-95110000D02*
X142000000Y-95000000D01*
X142110000Y-96640000D02*
X142110000Y-95110000D01*
X137110000Y-103110000D02*
X137000000Y-103000000D01*
X137110000Y-104640000D02*
X137110000Y-103110000D01*
X132110000Y-111110000D02*
X132000000Y-111000000D01*
X132110000Y-112640000D02*
X132110000Y-111110000D01*
X127110000Y-119110000D02*
X127000000Y-119000000D01*
X127110000Y-120640000D02*
X127110000Y-119110000D01*
X122110000Y-127110000D02*
X122000000Y-127000000D01*
X122110000Y-128640000D02*
X122110000Y-127110000D01*
X182890000Y-134890000D02*
X183000000Y-135000000D01*
X182890000Y-133360000D02*
X182890000Y-134890000D01*
X175110000Y-143390000D02*
X175000000Y-143500000D01*
X176640000Y-143390000D02*
X175110000Y-143390000D01*
X167610000Y-143390000D02*
X167500000Y-143500000D01*
X169140000Y-143390000D02*
X167610000Y-143390000D01*
X160110000Y-143390000D02*
X160000000Y-143500000D01*
X161640000Y-143390000D02*
X160110000Y-143390000D01*
X125110000Y-143390000D02*
X125000000Y-143500000D01*
X126640000Y-143390000D02*
X125110000Y-143390000D01*
X132610000Y-143390000D02*
X132500000Y-143500000D01*
X134140000Y-143390000D02*
X132610000Y-143390000D01*
X140110000Y-143390000D02*
X140000000Y-143500000D01*
X141640000Y-143390000D02*
X140110000Y-143390000D01*
D32*
%TO.N,Net-(VD11-DOUT)*%
X156110000Y-89110000D02*
X156110000Y-93360000D01*
X153110000Y-86110000D02*
X156110000Y-89110000D01*
X151640000Y-86110000D02*
X153110000Y-86110000D01*
%TO.N,Net-(VD10-DOUT)*%
X146110000Y-87890000D02*
X148360000Y-87890000D01*
X142110000Y-91890000D02*
X146110000Y-87890000D01*
X142110000Y-93360000D02*
X142110000Y-91890000D01*
%TO.N,Net-(VD18-DOUT)*%
X171250000Y-142000000D02*
X171250000Y-143000000D01*
X170860000Y-141610000D02*
X171250000Y-142000000D01*
X169140000Y-141610000D02*
X170860000Y-141610000D01*
X171640000Y-143390000D02*
X171250000Y-143000000D01*
X173360000Y-143390000D02*
X171640000Y-143390000D01*
%TO.N,Net-(VD19-DOUT)*%
X164140000Y-143390000D02*
X165860000Y-143390000D01*
X163750000Y-143000000D02*
X164140000Y-143390000D01*
X163360000Y-141610000D02*
X163750000Y-142000000D01*
X163750000Y-142000000D02*
X163750000Y-143000000D01*
X161640000Y-141610000D02*
X163360000Y-141610000D01*
%TO.N,Net-(VD3-DOUT)*%
X128750000Y-142000000D02*
X128750000Y-143000000D01*
X128360000Y-141610000D02*
X128750000Y-142000000D01*
X126640000Y-141610000D02*
X128360000Y-141610000D01*
X129140000Y-143390000D02*
X128750000Y-143000000D01*
X130860000Y-143390000D02*
X129140000Y-143390000D01*
%TO.N,Net-(VD2-DOUT)*%
X136250000Y-142000000D02*
X136250000Y-143000000D01*
X135860000Y-141610000D02*
X136250000Y-142000000D01*
X134140000Y-141610000D02*
X135860000Y-141610000D01*
X136640000Y-143390000D02*
X136250000Y-143000000D01*
X138360000Y-143390000D02*
X136640000Y-143390000D01*
%TO.N,Net-(VD2-DIN)*%
X143390000Y-141610000D02*
X145000000Y-140000000D01*
X141640000Y-141610000D02*
X143390000Y-141610000D01*
X145000000Y-126825000D02*
X145000000Y-140000000D01*
%TO.N,GND*%
X151025000Y-119025000D02*
X151000000Y-119000000D01*
X152862500Y-119025000D02*
X151025000Y-119025000D01*
X150000000Y-119000000D02*
X151000000Y-119000000D01*
X149225000Y-118225000D02*
X150000000Y-119000000D01*
X149225000Y-115000000D02*
X149225000Y-118225000D01*
X149225000Y-115000000D02*
X148000000Y-115000000D01*
X149225000Y-113000000D02*
X148000000Y-113000000D01*
X149225000Y-113000000D02*
X149225000Y-115000000D01*
%TO.N,VCC5V0*%
X150775000Y-113000000D02*
X150775000Y-115000000D01*
X151725000Y-117725000D02*
X150775000Y-116775000D01*
X150775000Y-116775000D02*
X150775000Y-115000000D01*
X152862500Y-117725000D02*
X151725000Y-117725000D01*
X154475000Y-117725000D02*
X155000000Y-118250000D01*
D30*
X155000000Y-118250000D02*
X155000000Y-118750000D01*
D32*
X152862500Y-117725000D02*
X154475000Y-117725000D01*
D30*
X155000000Y-132000000D02*
X155000000Y-118750000D01*
X150775000Y-133000000D02*
X154000000Y-133000000D01*
X154000000Y-133000000D02*
X155000000Y-132000000D01*
D32*
%TO.N,/MOSI*%
X145000000Y-121250000D02*
X145000000Y-125175000D01*
X145925000Y-120325000D02*
X145000000Y-121250000D01*
X147137500Y-120325000D02*
X145925000Y-120325000D01*
%TO.N,/RESET*%
X151000000Y-121750000D02*
X151000000Y-125175000D01*
X151775000Y-120975000D02*
X151000000Y-121750000D01*
X152862500Y-120975000D02*
X151775000Y-120975000D01*
%TO.N,/SWIO*%
X147000000Y-124500000D02*
X147000000Y-125175000D01*
X148500000Y-122000000D02*
X148500000Y-123500000D01*
X148000000Y-124000000D02*
X147500000Y-124000000D01*
X147500000Y-124000000D02*
X147000000Y-124500000D01*
X148125000Y-121625000D02*
X148500000Y-122000000D01*
X147137500Y-121625000D02*
X148125000Y-121625000D01*
X148500000Y-123500000D02*
X148000000Y-124000000D01*
D30*
%TO.N,/RESET*%
X153000000Y-125175000D02*
X151000000Y-125175000D01*
X150950000Y-125225000D02*
X151000000Y-125175000D01*
X149000000Y-125225000D02*
X150950000Y-125225000D01*
%TO.N,/RST_EXT*%
X153000000Y-126825000D02*
X153000000Y-130000000D01*
%TO.N,VCC5V0*%
X151000000Y-126825000D02*
X151000000Y-130000000D01*
%TO.N,GND*%
X149000000Y-126775000D02*
X149000000Y-130000000D01*
%TO.N,/SWIO_EXT*%
X147000000Y-126825000D02*
X147000000Y-130000000D01*
%TO.N,GND*%
X149225000Y-130225000D02*
X149000000Y-130000000D01*
X149225000Y-133000000D02*
X149225000Y-130225000D01*
%TO.N,VCC5V0*%
X150775000Y-130225000D02*
X151000000Y-130000000D01*
X150775000Y-133000000D02*
X150775000Y-130225000D01*
X150775000Y-133775000D02*
X151750000Y-134750000D01*
X150775000Y-133000000D02*
X150775000Y-133775000D01*
X151750000Y-134750000D02*
X151750000Y-136000000D01*
%TO.N,GND*%
X148250000Y-134750000D02*
X148250000Y-136000000D01*
X149225000Y-133775000D02*
X148250000Y-134750000D01*
X149225000Y-133000000D02*
X149225000Y-133775000D01*
D33*
X148250000Y-142025000D02*
X148750000Y-142525000D01*
X148250000Y-136000000D02*
X148250000Y-142025000D01*
%TO.N,VCC5V0*%
X151750000Y-142025000D02*
X151250000Y-142525000D01*
X151750000Y-136000000D02*
X151750000Y-142025000D01*
D31*
X125000000Y-135000000D02*
X125000000Y-134000000D01*
X126000000Y-136000000D02*
X125000000Y-135000000D01*
X130000000Y-136000000D02*
X126000000Y-136000000D01*
X131500000Y-136000000D02*
X130000000Y-136000000D01*
X174000000Y-136000000D02*
X175000000Y-135000000D01*
X167000000Y-136000000D02*
X170000000Y-136000000D01*
X130000000Y-126000000D02*
X130000000Y-125000000D01*
%TD*%
M02*
