M48
; DRILL file {KiCad 9.0.5} date 2025-11-17T06:02:19+0300
; FORMAT={-:-/ absolute / metric / decimal}
; #@! TF.CreationDate,2025-11-17T06:02:19+03:00
; #@! TF.GenerationSoftware,Kicad,Pcbnew,9.0.5
; #@! TF.FileFunction,Plated,1,2,PTH
FMAT,2
METRIC
; #@! TA.AperFunction,Plated,PTH,ViaDrill
T1C0.300
; #@! TA.AperFunction,Plated,PTH,ComponentDrill
T2C0.800
; #@! TA.AperFunction,Plated,PTH,ComponentDrill
T3C1.000
; #@! TA.AperFunction,Plated,PTH,ComponentDrill
T4C2.200
%
G90
G05
T1
X117.0Y-135.0
X122.0Y-127.0
X122.0Y-137.0
X125.0Y-143.5
X127.0Y-119.0
X127.0Y-129.0
X127.0Y-138.5
X132.0Y-111.0
X132.0Y-121.0
X132.5Y-143.5
X134.5Y-138.5
X137.0Y-103.0
X137.0Y-113.0
X140.0Y-143.5
X141.5Y-136.0
X142.0Y-95.0
X142.0Y-105.0
X142.0Y-138.5
X142.5Y-136.0
X143.5Y-136.0
X147.0Y-97.0
X148.0Y-91.0
X148.0Y-113.0
X148.0Y-115.0
X150.0Y-86.0
X150.0Y-119.0
X151.0Y-119.0
X153.0Y-93.0
X156.5Y-136.0
X157.5Y-136.0
X158.0Y-95.0
X158.0Y-101.0
X158.5Y-136.0
X160.0Y-143.5
X162.0Y-138.5
X163.0Y-103.0
X163.0Y-109.0
X167.5Y-143.5
X168.0Y-111.0
X168.0Y-117.0
X169.5Y-138.5
X173.0Y-119.0
X173.0Y-125.0
X175.0Y-143.5
X177.0Y-138.5
X178.0Y-127.0
X178.0Y-133.0
X183.0Y-135.0
T2
X147.0Y-130.0
X149.0Y-130.0
X151.0Y-130.0
X153.0Y-130.0
T3
X148.75Y-142.525
X151.25Y-142.525
T4
X150.0Y-81.0
M30
