%TF.GenerationSoftware,KiCad,Pcbnew,9.0.5*%
%TF.CreationDate,2025-11-17T06:01:47+03:00*%
%TF.ProjectId,CHRISTMAS_RISC_V,43485249-5354-44d4-9153-5f524953435f,rev?*%
%TF.SameCoordinates,Original*%
%TF.FileFunction,Legend,Top*%
%TF.FilePolarity,Positive*%
%FSLAX46Y46*%
G04 Gerber Fmt 4.6, Leading zero omitted, Abs format (unit mm)*
G04 Created by KiCad (PCBNEW 9.0.5) date 2025-11-17 06:01:47*
%MOMM*%
%LPD*%
G01*
G04 APERTURE LIST*
%ADD10C,0.150000*%
%ADD11C,0.120000*%
G04 APERTURE END LIST*
D10*
X116690476Y-138454819D02*
X117023809Y-139454819D01*
X117023809Y-139454819D02*
X117357142Y-138454819D01*
X117690476Y-139454819D02*
X117690476Y-138454819D01*
X117690476Y-138454819D02*
X117928571Y-138454819D01*
X117928571Y-138454819D02*
X118071428Y-138502438D01*
X118071428Y-138502438D02*
X118166666Y-138597676D01*
X118166666Y-138597676D02*
X118214285Y-138692914D01*
X118214285Y-138692914D02*
X118261904Y-138883390D01*
X118261904Y-138883390D02*
X118261904Y-139026247D01*
X118261904Y-139026247D02*
X118214285Y-139216723D01*
X118214285Y-139216723D02*
X118166666Y-139311961D01*
X118166666Y-139311961D02*
X118071428Y-139407200D01*
X118071428Y-139407200D02*
X117928571Y-139454819D01*
X117928571Y-139454819D02*
X117690476Y-139454819D01*
X119166666Y-138454819D02*
X118690476Y-138454819D01*
X118690476Y-138454819D02*
X118642857Y-138931009D01*
X118642857Y-138931009D02*
X118690476Y-138883390D01*
X118690476Y-138883390D02*
X118785714Y-138835771D01*
X118785714Y-138835771D02*
X119023809Y-138835771D01*
X119023809Y-138835771D02*
X119119047Y-138883390D01*
X119119047Y-138883390D02*
X119166666Y-138931009D01*
X119166666Y-138931009D02*
X119214285Y-139026247D01*
X119214285Y-139026247D02*
X119214285Y-139264342D01*
X119214285Y-139264342D02*
X119166666Y-139359580D01*
X119166666Y-139359580D02*
X119119047Y-139407200D01*
X119119047Y-139407200D02*
X119023809Y-139454819D01*
X119023809Y-139454819D02*
X118785714Y-139454819D01*
X118785714Y-139454819D02*
X118690476Y-139407200D01*
X118690476Y-139407200D02*
X118642857Y-139359580D01*
X118487704Y-132128571D02*
X118487704Y-131671428D01*
X118487704Y-131900000D02*
X119287704Y-131900000D01*
X119287704Y-131900000D02*
X119173419Y-131823809D01*
X119173419Y-131823809D02*
X119097228Y-131747619D01*
X119097228Y-131747619D02*
X119059133Y-131671428D01*
X149357142Y-110359580D02*
X149309523Y-110407200D01*
X149309523Y-110407200D02*
X149166666Y-110454819D01*
X149166666Y-110454819D02*
X149071428Y-110454819D01*
X149071428Y-110454819D02*
X148928571Y-110407200D01*
X148928571Y-110407200D02*
X148833333Y-110311961D01*
X148833333Y-110311961D02*
X148785714Y-110216723D01*
X148785714Y-110216723D02*
X148738095Y-110026247D01*
X148738095Y-110026247D02*
X148738095Y-109883390D01*
X148738095Y-109883390D02*
X148785714Y-109692914D01*
X148785714Y-109692914D02*
X148833333Y-109597676D01*
X148833333Y-109597676D02*
X148928571Y-109502438D01*
X148928571Y-109502438D02*
X149071428Y-109454819D01*
X149071428Y-109454819D02*
X149166666Y-109454819D01*
X149166666Y-109454819D02*
X149309523Y-109502438D01*
X149309523Y-109502438D02*
X149357142Y-109550057D01*
X149738095Y-109550057D02*
X149785714Y-109502438D01*
X149785714Y-109502438D02*
X149880952Y-109454819D01*
X149880952Y-109454819D02*
X150119047Y-109454819D01*
X150119047Y-109454819D02*
X150214285Y-109502438D01*
X150214285Y-109502438D02*
X150261904Y-109550057D01*
X150261904Y-109550057D02*
X150309523Y-109645295D01*
X150309523Y-109645295D02*
X150309523Y-109740533D01*
X150309523Y-109740533D02*
X150261904Y-109883390D01*
X150261904Y-109883390D02*
X149690476Y-110454819D01*
X149690476Y-110454819D02*
X150309523Y-110454819D01*
X150642857Y-109454819D02*
X151261904Y-109454819D01*
X151261904Y-109454819D02*
X150928571Y-109835771D01*
X150928571Y-109835771D02*
X151071428Y-109835771D01*
X151071428Y-109835771D02*
X151166666Y-109883390D01*
X151166666Y-109883390D02*
X151214285Y-109931009D01*
X151214285Y-109931009D02*
X151261904Y-110026247D01*
X151261904Y-110026247D02*
X151261904Y-110264342D01*
X151261904Y-110264342D02*
X151214285Y-110359580D01*
X151214285Y-110359580D02*
X151166666Y-110407200D01*
X151166666Y-110407200D02*
X151071428Y-110454819D01*
X151071428Y-110454819D02*
X150785714Y-110454819D01*
X150785714Y-110454819D02*
X150690476Y-110407200D01*
X150690476Y-110407200D02*
X150642857Y-110359580D01*
X158214286Y-145454819D02*
X158547619Y-146454819D01*
X158547619Y-146454819D02*
X158880952Y-145454819D01*
X159214286Y-146454819D02*
X159214286Y-145454819D01*
X159214286Y-145454819D02*
X159452381Y-145454819D01*
X159452381Y-145454819D02*
X159595238Y-145502438D01*
X159595238Y-145502438D02*
X159690476Y-145597676D01*
X159690476Y-145597676D02*
X159738095Y-145692914D01*
X159738095Y-145692914D02*
X159785714Y-145883390D01*
X159785714Y-145883390D02*
X159785714Y-146026247D01*
X159785714Y-146026247D02*
X159738095Y-146216723D01*
X159738095Y-146216723D02*
X159690476Y-146311961D01*
X159690476Y-146311961D02*
X159595238Y-146407200D01*
X159595238Y-146407200D02*
X159452381Y-146454819D01*
X159452381Y-146454819D02*
X159214286Y-146454819D01*
X160166667Y-145550057D02*
X160214286Y-145502438D01*
X160214286Y-145502438D02*
X160309524Y-145454819D01*
X160309524Y-145454819D02*
X160547619Y-145454819D01*
X160547619Y-145454819D02*
X160642857Y-145502438D01*
X160642857Y-145502438D02*
X160690476Y-145550057D01*
X160690476Y-145550057D02*
X160738095Y-145645295D01*
X160738095Y-145645295D02*
X160738095Y-145740533D01*
X160738095Y-145740533D02*
X160690476Y-145883390D01*
X160690476Y-145883390D02*
X160119048Y-146454819D01*
X160119048Y-146454819D02*
X160738095Y-146454819D01*
X161357143Y-145454819D02*
X161452381Y-145454819D01*
X161452381Y-145454819D02*
X161547619Y-145502438D01*
X161547619Y-145502438D02*
X161595238Y-145550057D01*
X161595238Y-145550057D02*
X161642857Y-145645295D01*
X161642857Y-145645295D02*
X161690476Y-145835771D01*
X161690476Y-145835771D02*
X161690476Y-146073866D01*
X161690476Y-146073866D02*
X161642857Y-146264342D01*
X161642857Y-146264342D02*
X161595238Y-146359580D01*
X161595238Y-146359580D02*
X161547619Y-146407200D01*
X161547619Y-146407200D02*
X161452381Y-146454819D01*
X161452381Y-146454819D02*
X161357143Y-146454819D01*
X161357143Y-146454819D02*
X161261905Y-146407200D01*
X161261905Y-146407200D02*
X161214286Y-146359580D01*
X161214286Y-146359580D02*
X161166667Y-146264342D01*
X161166667Y-146264342D02*
X161119048Y-146073866D01*
X161119048Y-146073866D02*
X161119048Y-145835771D01*
X161119048Y-145835771D02*
X161166667Y-145645295D01*
X161166667Y-145645295D02*
X161214286Y-145550057D01*
X161214286Y-145550057D02*
X161261905Y-145502438D01*
X161261905Y-145502438D02*
X161357143Y-145454819D01*
X157128571Y-142012295D02*
X156671428Y-142012295D01*
X156900000Y-142012295D02*
X156900000Y-141212295D01*
X156900000Y-141212295D02*
X156823809Y-141326580D01*
X156823809Y-141326580D02*
X156747619Y-141402771D01*
X156747619Y-141402771D02*
X156671428Y-141440866D01*
X160857142Y-136859580D02*
X160809523Y-136907200D01*
X160809523Y-136907200D02*
X160666666Y-136954819D01*
X160666666Y-136954819D02*
X160571428Y-136954819D01*
X160571428Y-136954819D02*
X160428571Y-136907200D01*
X160428571Y-136907200D02*
X160333333Y-136811961D01*
X160333333Y-136811961D02*
X160285714Y-136716723D01*
X160285714Y-136716723D02*
X160238095Y-136526247D01*
X160238095Y-136526247D02*
X160238095Y-136383390D01*
X160238095Y-136383390D02*
X160285714Y-136192914D01*
X160285714Y-136192914D02*
X160333333Y-136097676D01*
X160333333Y-136097676D02*
X160428571Y-136002438D01*
X160428571Y-136002438D02*
X160571428Y-135954819D01*
X160571428Y-135954819D02*
X160666666Y-135954819D01*
X160666666Y-135954819D02*
X160809523Y-136002438D01*
X160809523Y-136002438D02*
X160857142Y-136050057D01*
X161238095Y-136050057D02*
X161285714Y-136002438D01*
X161285714Y-136002438D02*
X161380952Y-135954819D01*
X161380952Y-135954819D02*
X161619047Y-135954819D01*
X161619047Y-135954819D02*
X161714285Y-136002438D01*
X161714285Y-136002438D02*
X161761904Y-136050057D01*
X161761904Y-136050057D02*
X161809523Y-136145295D01*
X161809523Y-136145295D02*
X161809523Y-136240533D01*
X161809523Y-136240533D02*
X161761904Y-136383390D01*
X161761904Y-136383390D02*
X161190476Y-136954819D01*
X161190476Y-136954819D02*
X161809523Y-136954819D01*
X162190476Y-136050057D02*
X162238095Y-136002438D01*
X162238095Y-136002438D02*
X162333333Y-135954819D01*
X162333333Y-135954819D02*
X162571428Y-135954819D01*
X162571428Y-135954819D02*
X162666666Y-136002438D01*
X162666666Y-136002438D02*
X162714285Y-136050057D01*
X162714285Y-136050057D02*
X162761904Y-136145295D01*
X162761904Y-136145295D02*
X162761904Y-136240533D01*
X162761904Y-136240533D02*
X162714285Y-136383390D01*
X162714285Y-136383390D02*
X162142857Y-136954819D01*
X162142857Y-136954819D02*
X162761904Y-136954819D01*
X140690476Y-127954819D02*
X141357142Y-128954819D01*
X141357142Y-127954819D02*
X140690476Y-128954819D01*
X141738095Y-128954819D02*
X141738095Y-127954819D01*
X141738095Y-127954819D02*
X142119047Y-127954819D01*
X142119047Y-127954819D02*
X142214285Y-128002438D01*
X142214285Y-128002438D02*
X142261904Y-128050057D01*
X142261904Y-128050057D02*
X142309523Y-128145295D01*
X142309523Y-128145295D02*
X142309523Y-128288152D01*
X142309523Y-128288152D02*
X142261904Y-128383390D01*
X142261904Y-128383390D02*
X142214285Y-128431009D01*
X142214285Y-128431009D02*
X142119047Y-128478628D01*
X142119047Y-128478628D02*
X141738095Y-128478628D01*
X142690476Y-128050057D02*
X142738095Y-128002438D01*
X142738095Y-128002438D02*
X142833333Y-127954819D01*
X142833333Y-127954819D02*
X143071428Y-127954819D01*
X143071428Y-127954819D02*
X143166666Y-128002438D01*
X143166666Y-128002438D02*
X143214285Y-128050057D01*
X143214285Y-128050057D02*
X143261904Y-128145295D01*
X143261904Y-128145295D02*
X143261904Y-128240533D01*
X143261904Y-128240533D02*
X143214285Y-128383390D01*
X143214285Y-128383390D02*
X142642857Y-128954819D01*
X142642857Y-128954819D02*
X143261904Y-128954819D01*
X148690476Y-145954819D02*
X149357142Y-146954819D01*
X149357142Y-145954819D02*
X148690476Y-146954819D01*
X149738095Y-146954819D02*
X149738095Y-145954819D01*
X149738095Y-145954819D02*
X150119047Y-145954819D01*
X150119047Y-145954819D02*
X150214285Y-146002438D01*
X150214285Y-146002438D02*
X150261904Y-146050057D01*
X150261904Y-146050057D02*
X150309523Y-146145295D01*
X150309523Y-146145295D02*
X150309523Y-146288152D01*
X150309523Y-146288152D02*
X150261904Y-146383390D01*
X150261904Y-146383390D02*
X150214285Y-146431009D01*
X150214285Y-146431009D02*
X150119047Y-146478628D01*
X150119047Y-146478628D02*
X149738095Y-146478628D01*
X151261904Y-146954819D02*
X150690476Y-146954819D01*
X150976190Y-146954819D02*
X150976190Y-145954819D01*
X150976190Y-145954819D02*
X150880952Y-146097676D01*
X150880952Y-146097676D02*
X150785714Y-146192914D01*
X150785714Y-146192914D02*
X150690476Y-146240533D01*
X165714286Y-145454819D02*
X166047619Y-146454819D01*
X166047619Y-146454819D02*
X166380952Y-145454819D01*
X166714286Y-146454819D02*
X166714286Y-145454819D01*
X166714286Y-145454819D02*
X166952381Y-145454819D01*
X166952381Y-145454819D02*
X167095238Y-145502438D01*
X167095238Y-145502438D02*
X167190476Y-145597676D01*
X167190476Y-145597676D02*
X167238095Y-145692914D01*
X167238095Y-145692914D02*
X167285714Y-145883390D01*
X167285714Y-145883390D02*
X167285714Y-146026247D01*
X167285714Y-146026247D02*
X167238095Y-146216723D01*
X167238095Y-146216723D02*
X167190476Y-146311961D01*
X167190476Y-146311961D02*
X167095238Y-146407200D01*
X167095238Y-146407200D02*
X166952381Y-146454819D01*
X166952381Y-146454819D02*
X166714286Y-146454819D01*
X168238095Y-146454819D02*
X167666667Y-146454819D01*
X167952381Y-146454819D02*
X167952381Y-145454819D01*
X167952381Y-145454819D02*
X167857143Y-145597676D01*
X167857143Y-145597676D02*
X167761905Y-145692914D01*
X167761905Y-145692914D02*
X167666667Y-145740533D01*
X168714286Y-146454819D02*
X168904762Y-146454819D01*
X168904762Y-146454819D02*
X169000000Y-146407200D01*
X169000000Y-146407200D02*
X169047619Y-146359580D01*
X169047619Y-146359580D02*
X169142857Y-146216723D01*
X169142857Y-146216723D02*
X169190476Y-146026247D01*
X169190476Y-146026247D02*
X169190476Y-145645295D01*
X169190476Y-145645295D02*
X169142857Y-145550057D01*
X169142857Y-145550057D02*
X169095238Y-145502438D01*
X169095238Y-145502438D02*
X169000000Y-145454819D01*
X169000000Y-145454819D02*
X168809524Y-145454819D01*
X168809524Y-145454819D02*
X168714286Y-145502438D01*
X168714286Y-145502438D02*
X168666667Y-145550057D01*
X168666667Y-145550057D02*
X168619048Y-145645295D01*
X168619048Y-145645295D02*
X168619048Y-145883390D01*
X168619048Y-145883390D02*
X168666667Y-145978628D01*
X168666667Y-145978628D02*
X168714286Y-146026247D01*
X168714286Y-146026247D02*
X168809524Y-146073866D01*
X168809524Y-146073866D02*
X169000000Y-146073866D01*
X169000000Y-146073866D02*
X169095238Y-146026247D01*
X169095238Y-146026247D02*
X169142857Y-145978628D01*
X169142857Y-145978628D02*
X169190476Y-145883390D01*
X164628571Y-142012295D02*
X164171428Y-142012295D01*
X164400000Y-142012295D02*
X164400000Y-141212295D01*
X164400000Y-141212295D02*
X164323809Y-141326580D01*
X164323809Y-141326580D02*
X164247619Y-141402771D01*
X164247619Y-141402771D02*
X164171428Y-141440866D01*
X173214286Y-145454819D02*
X173547619Y-146454819D01*
X173547619Y-146454819D02*
X173880952Y-145454819D01*
X174214286Y-146454819D02*
X174214286Y-145454819D01*
X174214286Y-145454819D02*
X174452381Y-145454819D01*
X174452381Y-145454819D02*
X174595238Y-145502438D01*
X174595238Y-145502438D02*
X174690476Y-145597676D01*
X174690476Y-145597676D02*
X174738095Y-145692914D01*
X174738095Y-145692914D02*
X174785714Y-145883390D01*
X174785714Y-145883390D02*
X174785714Y-146026247D01*
X174785714Y-146026247D02*
X174738095Y-146216723D01*
X174738095Y-146216723D02*
X174690476Y-146311961D01*
X174690476Y-146311961D02*
X174595238Y-146407200D01*
X174595238Y-146407200D02*
X174452381Y-146454819D01*
X174452381Y-146454819D02*
X174214286Y-146454819D01*
X175738095Y-146454819D02*
X175166667Y-146454819D01*
X175452381Y-146454819D02*
X175452381Y-145454819D01*
X175452381Y-145454819D02*
X175357143Y-145597676D01*
X175357143Y-145597676D02*
X175261905Y-145692914D01*
X175261905Y-145692914D02*
X175166667Y-145740533D01*
X176309524Y-145883390D02*
X176214286Y-145835771D01*
X176214286Y-145835771D02*
X176166667Y-145788152D01*
X176166667Y-145788152D02*
X176119048Y-145692914D01*
X176119048Y-145692914D02*
X176119048Y-145645295D01*
X176119048Y-145645295D02*
X176166667Y-145550057D01*
X176166667Y-145550057D02*
X176214286Y-145502438D01*
X176214286Y-145502438D02*
X176309524Y-145454819D01*
X176309524Y-145454819D02*
X176500000Y-145454819D01*
X176500000Y-145454819D02*
X176595238Y-145502438D01*
X176595238Y-145502438D02*
X176642857Y-145550057D01*
X176642857Y-145550057D02*
X176690476Y-145645295D01*
X176690476Y-145645295D02*
X176690476Y-145692914D01*
X176690476Y-145692914D02*
X176642857Y-145788152D01*
X176642857Y-145788152D02*
X176595238Y-145835771D01*
X176595238Y-145835771D02*
X176500000Y-145883390D01*
X176500000Y-145883390D02*
X176309524Y-145883390D01*
X176309524Y-145883390D02*
X176214286Y-145931009D01*
X176214286Y-145931009D02*
X176166667Y-145978628D01*
X176166667Y-145978628D02*
X176119048Y-146073866D01*
X176119048Y-146073866D02*
X176119048Y-146264342D01*
X176119048Y-146264342D02*
X176166667Y-146359580D01*
X176166667Y-146359580D02*
X176214286Y-146407200D01*
X176214286Y-146407200D02*
X176309524Y-146454819D01*
X176309524Y-146454819D02*
X176500000Y-146454819D01*
X176500000Y-146454819D02*
X176595238Y-146407200D01*
X176595238Y-146407200D02*
X176642857Y-146359580D01*
X176642857Y-146359580D02*
X176690476Y-146264342D01*
X176690476Y-146264342D02*
X176690476Y-146073866D01*
X176690476Y-146073866D02*
X176642857Y-145978628D01*
X176642857Y-145978628D02*
X176595238Y-145931009D01*
X176595238Y-145931009D02*
X176500000Y-145883390D01*
X172128571Y-142012295D02*
X171671428Y-142012295D01*
X171900000Y-142012295D02*
X171900000Y-141212295D01*
X171900000Y-141212295D02*
X171823809Y-141326580D01*
X171823809Y-141326580D02*
X171747619Y-141402771D01*
X171747619Y-141402771D02*
X171671428Y-141440866D01*
X180214286Y-138954819D02*
X180547619Y-139954819D01*
X180547619Y-139954819D02*
X180880952Y-138954819D01*
X181214286Y-139954819D02*
X181214286Y-138954819D01*
X181214286Y-138954819D02*
X181452381Y-138954819D01*
X181452381Y-138954819D02*
X181595238Y-139002438D01*
X181595238Y-139002438D02*
X181690476Y-139097676D01*
X181690476Y-139097676D02*
X181738095Y-139192914D01*
X181738095Y-139192914D02*
X181785714Y-139383390D01*
X181785714Y-139383390D02*
X181785714Y-139526247D01*
X181785714Y-139526247D02*
X181738095Y-139716723D01*
X181738095Y-139716723D02*
X181690476Y-139811961D01*
X181690476Y-139811961D02*
X181595238Y-139907200D01*
X181595238Y-139907200D02*
X181452381Y-139954819D01*
X181452381Y-139954819D02*
X181214286Y-139954819D01*
X182738095Y-139954819D02*
X182166667Y-139954819D01*
X182452381Y-139954819D02*
X182452381Y-138954819D01*
X182452381Y-138954819D02*
X182357143Y-139097676D01*
X182357143Y-139097676D02*
X182261905Y-139192914D01*
X182261905Y-139192914D02*
X182166667Y-139240533D01*
X183071429Y-138954819D02*
X183738095Y-138954819D01*
X183738095Y-138954819D02*
X183309524Y-139954819D01*
X181512295Y-137871428D02*
X181512295Y-138328571D01*
X181512295Y-138099999D02*
X180712295Y-138099999D01*
X180712295Y-138099999D02*
X180826580Y-138176190D01*
X180826580Y-138176190D02*
X180902771Y-138252380D01*
X180902771Y-138252380D02*
X180940866Y-138328571D01*
X175214286Y-130954819D02*
X175547619Y-131954819D01*
X175547619Y-131954819D02*
X175880952Y-130954819D01*
X176214286Y-131954819D02*
X176214286Y-130954819D01*
X176214286Y-130954819D02*
X176452381Y-130954819D01*
X176452381Y-130954819D02*
X176595238Y-131002438D01*
X176595238Y-131002438D02*
X176690476Y-131097676D01*
X176690476Y-131097676D02*
X176738095Y-131192914D01*
X176738095Y-131192914D02*
X176785714Y-131383390D01*
X176785714Y-131383390D02*
X176785714Y-131526247D01*
X176785714Y-131526247D02*
X176738095Y-131716723D01*
X176738095Y-131716723D02*
X176690476Y-131811961D01*
X176690476Y-131811961D02*
X176595238Y-131907200D01*
X176595238Y-131907200D02*
X176452381Y-131954819D01*
X176452381Y-131954819D02*
X176214286Y-131954819D01*
X177738095Y-131954819D02*
X177166667Y-131954819D01*
X177452381Y-131954819D02*
X177452381Y-130954819D01*
X177452381Y-130954819D02*
X177357143Y-131097676D01*
X177357143Y-131097676D02*
X177261905Y-131192914D01*
X177261905Y-131192914D02*
X177166667Y-131240533D01*
X178595238Y-130954819D02*
X178404762Y-130954819D01*
X178404762Y-130954819D02*
X178309524Y-131002438D01*
X178309524Y-131002438D02*
X178261905Y-131050057D01*
X178261905Y-131050057D02*
X178166667Y-131192914D01*
X178166667Y-131192914D02*
X178119048Y-131383390D01*
X178119048Y-131383390D02*
X178119048Y-131764342D01*
X178119048Y-131764342D02*
X178166667Y-131859580D01*
X178166667Y-131859580D02*
X178214286Y-131907200D01*
X178214286Y-131907200D02*
X178309524Y-131954819D01*
X178309524Y-131954819D02*
X178500000Y-131954819D01*
X178500000Y-131954819D02*
X178595238Y-131907200D01*
X178595238Y-131907200D02*
X178642857Y-131859580D01*
X178642857Y-131859580D02*
X178690476Y-131764342D01*
X178690476Y-131764342D02*
X178690476Y-131526247D01*
X178690476Y-131526247D02*
X178642857Y-131431009D01*
X178642857Y-131431009D02*
X178595238Y-131383390D01*
X178595238Y-131383390D02*
X178500000Y-131335771D01*
X178500000Y-131335771D02*
X178309524Y-131335771D01*
X178309524Y-131335771D02*
X178214286Y-131383390D01*
X178214286Y-131383390D02*
X178166667Y-131431009D01*
X178166667Y-131431009D02*
X178119048Y-131526247D01*
X176512295Y-129871428D02*
X176512295Y-130328571D01*
X176512295Y-130099999D02*
X175712295Y-130099999D01*
X175712295Y-130099999D02*
X175826580Y-130176190D01*
X175826580Y-130176190D02*
X175902771Y-130252380D01*
X175902771Y-130252380D02*
X175940866Y-130328571D01*
X170214286Y-122954819D02*
X170547619Y-123954819D01*
X170547619Y-123954819D02*
X170880952Y-122954819D01*
X171214286Y-123954819D02*
X171214286Y-122954819D01*
X171214286Y-122954819D02*
X171452381Y-122954819D01*
X171452381Y-122954819D02*
X171595238Y-123002438D01*
X171595238Y-123002438D02*
X171690476Y-123097676D01*
X171690476Y-123097676D02*
X171738095Y-123192914D01*
X171738095Y-123192914D02*
X171785714Y-123383390D01*
X171785714Y-123383390D02*
X171785714Y-123526247D01*
X171785714Y-123526247D02*
X171738095Y-123716723D01*
X171738095Y-123716723D02*
X171690476Y-123811961D01*
X171690476Y-123811961D02*
X171595238Y-123907200D01*
X171595238Y-123907200D02*
X171452381Y-123954819D01*
X171452381Y-123954819D02*
X171214286Y-123954819D01*
X172738095Y-123954819D02*
X172166667Y-123954819D01*
X172452381Y-123954819D02*
X172452381Y-122954819D01*
X172452381Y-122954819D02*
X172357143Y-123097676D01*
X172357143Y-123097676D02*
X172261905Y-123192914D01*
X172261905Y-123192914D02*
X172166667Y-123240533D01*
X173642857Y-122954819D02*
X173166667Y-122954819D01*
X173166667Y-122954819D02*
X173119048Y-123431009D01*
X173119048Y-123431009D02*
X173166667Y-123383390D01*
X173166667Y-123383390D02*
X173261905Y-123335771D01*
X173261905Y-123335771D02*
X173500000Y-123335771D01*
X173500000Y-123335771D02*
X173595238Y-123383390D01*
X173595238Y-123383390D02*
X173642857Y-123431009D01*
X173642857Y-123431009D02*
X173690476Y-123526247D01*
X173690476Y-123526247D02*
X173690476Y-123764342D01*
X173690476Y-123764342D02*
X173642857Y-123859580D01*
X173642857Y-123859580D02*
X173595238Y-123907200D01*
X173595238Y-123907200D02*
X173500000Y-123954819D01*
X173500000Y-123954819D02*
X173261905Y-123954819D01*
X173261905Y-123954819D02*
X173166667Y-123907200D01*
X173166667Y-123907200D02*
X173119048Y-123859580D01*
X171512295Y-121871428D02*
X171512295Y-122328571D01*
X171512295Y-122099999D02*
X170712295Y-122099999D01*
X170712295Y-122099999D02*
X170826580Y-122176190D01*
X170826580Y-122176190D02*
X170902771Y-122252380D01*
X170902771Y-122252380D02*
X170940866Y-122328571D01*
X165214286Y-114954819D02*
X165547619Y-115954819D01*
X165547619Y-115954819D02*
X165880952Y-114954819D01*
X166214286Y-115954819D02*
X166214286Y-114954819D01*
X166214286Y-114954819D02*
X166452381Y-114954819D01*
X166452381Y-114954819D02*
X166595238Y-115002438D01*
X166595238Y-115002438D02*
X166690476Y-115097676D01*
X166690476Y-115097676D02*
X166738095Y-115192914D01*
X166738095Y-115192914D02*
X166785714Y-115383390D01*
X166785714Y-115383390D02*
X166785714Y-115526247D01*
X166785714Y-115526247D02*
X166738095Y-115716723D01*
X166738095Y-115716723D02*
X166690476Y-115811961D01*
X166690476Y-115811961D02*
X166595238Y-115907200D01*
X166595238Y-115907200D02*
X166452381Y-115954819D01*
X166452381Y-115954819D02*
X166214286Y-115954819D01*
X167738095Y-115954819D02*
X167166667Y-115954819D01*
X167452381Y-115954819D02*
X167452381Y-114954819D01*
X167452381Y-114954819D02*
X167357143Y-115097676D01*
X167357143Y-115097676D02*
X167261905Y-115192914D01*
X167261905Y-115192914D02*
X167166667Y-115240533D01*
X168595238Y-115288152D02*
X168595238Y-115954819D01*
X168357143Y-114907200D02*
X168119048Y-115621485D01*
X168119048Y-115621485D02*
X168738095Y-115621485D01*
X166512295Y-113871428D02*
X166512295Y-114328571D01*
X166512295Y-114099999D02*
X165712295Y-114099999D01*
X165712295Y-114099999D02*
X165826580Y-114176190D01*
X165826580Y-114176190D02*
X165902771Y-114252380D01*
X165902771Y-114252380D02*
X165940866Y-114328571D01*
X160214286Y-106954819D02*
X160547619Y-107954819D01*
X160547619Y-107954819D02*
X160880952Y-106954819D01*
X161214286Y-107954819D02*
X161214286Y-106954819D01*
X161214286Y-106954819D02*
X161452381Y-106954819D01*
X161452381Y-106954819D02*
X161595238Y-107002438D01*
X161595238Y-107002438D02*
X161690476Y-107097676D01*
X161690476Y-107097676D02*
X161738095Y-107192914D01*
X161738095Y-107192914D02*
X161785714Y-107383390D01*
X161785714Y-107383390D02*
X161785714Y-107526247D01*
X161785714Y-107526247D02*
X161738095Y-107716723D01*
X161738095Y-107716723D02*
X161690476Y-107811961D01*
X161690476Y-107811961D02*
X161595238Y-107907200D01*
X161595238Y-107907200D02*
X161452381Y-107954819D01*
X161452381Y-107954819D02*
X161214286Y-107954819D01*
X162738095Y-107954819D02*
X162166667Y-107954819D01*
X162452381Y-107954819D02*
X162452381Y-106954819D01*
X162452381Y-106954819D02*
X162357143Y-107097676D01*
X162357143Y-107097676D02*
X162261905Y-107192914D01*
X162261905Y-107192914D02*
X162166667Y-107240533D01*
X163071429Y-106954819D02*
X163690476Y-106954819D01*
X163690476Y-106954819D02*
X163357143Y-107335771D01*
X163357143Y-107335771D02*
X163500000Y-107335771D01*
X163500000Y-107335771D02*
X163595238Y-107383390D01*
X163595238Y-107383390D02*
X163642857Y-107431009D01*
X163642857Y-107431009D02*
X163690476Y-107526247D01*
X163690476Y-107526247D02*
X163690476Y-107764342D01*
X163690476Y-107764342D02*
X163642857Y-107859580D01*
X163642857Y-107859580D02*
X163595238Y-107907200D01*
X163595238Y-107907200D02*
X163500000Y-107954819D01*
X163500000Y-107954819D02*
X163214286Y-107954819D01*
X163214286Y-107954819D02*
X163119048Y-107907200D01*
X163119048Y-107907200D02*
X163071429Y-107859580D01*
X161512295Y-105871428D02*
X161512295Y-106328571D01*
X161512295Y-106099999D02*
X160712295Y-106099999D01*
X160712295Y-106099999D02*
X160826580Y-106176190D01*
X160826580Y-106176190D02*
X160902771Y-106252380D01*
X160902771Y-106252380D02*
X160940866Y-106328571D01*
X155214286Y-98954819D02*
X155547619Y-99954819D01*
X155547619Y-99954819D02*
X155880952Y-98954819D01*
X156214286Y-99954819D02*
X156214286Y-98954819D01*
X156214286Y-98954819D02*
X156452381Y-98954819D01*
X156452381Y-98954819D02*
X156595238Y-99002438D01*
X156595238Y-99002438D02*
X156690476Y-99097676D01*
X156690476Y-99097676D02*
X156738095Y-99192914D01*
X156738095Y-99192914D02*
X156785714Y-99383390D01*
X156785714Y-99383390D02*
X156785714Y-99526247D01*
X156785714Y-99526247D02*
X156738095Y-99716723D01*
X156738095Y-99716723D02*
X156690476Y-99811961D01*
X156690476Y-99811961D02*
X156595238Y-99907200D01*
X156595238Y-99907200D02*
X156452381Y-99954819D01*
X156452381Y-99954819D02*
X156214286Y-99954819D01*
X157738095Y-99954819D02*
X157166667Y-99954819D01*
X157452381Y-99954819D02*
X157452381Y-98954819D01*
X157452381Y-98954819D02*
X157357143Y-99097676D01*
X157357143Y-99097676D02*
X157261905Y-99192914D01*
X157261905Y-99192914D02*
X157166667Y-99240533D01*
X158119048Y-99050057D02*
X158166667Y-99002438D01*
X158166667Y-99002438D02*
X158261905Y-98954819D01*
X158261905Y-98954819D02*
X158500000Y-98954819D01*
X158500000Y-98954819D02*
X158595238Y-99002438D01*
X158595238Y-99002438D02*
X158642857Y-99050057D01*
X158642857Y-99050057D02*
X158690476Y-99145295D01*
X158690476Y-99145295D02*
X158690476Y-99240533D01*
X158690476Y-99240533D02*
X158642857Y-99383390D01*
X158642857Y-99383390D02*
X158071429Y-99954819D01*
X158071429Y-99954819D02*
X158690476Y-99954819D01*
X156512295Y-97871428D02*
X156512295Y-98328571D01*
X156512295Y-98099999D02*
X155712295Y-98099999D01*
X155712295Y-98099999D02*
X155826580Y-98176190D01*
X155826580Y-98176190D02*
X155902771Y-98252380D01*
X155902771Y-98252380D02*
X155940866Y-98328571D01*
X148214286Y-92454819D02*
X148547619Y-93454819D01*
X148547619Y-93454819D02*
X148880952Y-92454819D01*
X149214286Y-93454819D02*
X149214286Y-92454819D01*
X149214286Y-92454819D02*
X149452381Y-92454819D01*
X149452381Y-92454819D02*
X149595238Y-92502438D01*
X149595238Y-92502438D02*
X149690476Y-92597676D01*
X149690476Y-92597676D02*
X149738095Y-92692914D01*
X149738095Y-92692914D02*
X149785714Y-92883390D01*
X149785714Y-92883390D02*
X149785714Y-93026247D01*
X149785714Y-93026247D02*
X149738095Y-93216723D01*
X149738095Y-93216723D02*
X149690476Y-93311961D01*
X149690476Y-93311961D02*
X149595238Y-93407200D01*
X149595238Y-93407200D02*
X149452381Y-93454819D01*
X149452381Y-93454819D02*
X149214286Y-93454819D01*
X150738095Y-93454819D02*
X150166667Y-93454819D01*
X150452381Y-93454819D02*
X150452381Y-92454819D01*
X150452381Y-92454819D02*
X150357143Y-92597676D01*
X150357143Y-92597676D02*
X150261905Y-92692914D01*
X150261905Y-92692914D02*
X150166667Y-92740533D01*
X151690476Y-93454819D02*
X151119048Y-93454819D01*
X151404762Y-93454819D02*
X151404762Y-92454819D01*
X151404762Y-92454819D02*
X151309524Y-92597676D01*
X151309524Y-92597676D02*
X151214286Y-92692914D01*
X151214286Y-92692914D02*
X151119048Y-92740533D01*
X152871428Y-87487704D02*
X153328571Y-87487704D01*
X153099999Y-87487704D02*
X153099999Y-88287704D01*
X153099999Y-88287704D02*
X153176190Y-88173419D01*
X153176190Y-88173419D02*
X153252380Y-88097228D01*
X153252380Y-88097228D02*
X153328571Y-88059133D01*
X141214286Y-98454819D02*
X141547619Y-99454819D01*
X141547619Y-99454819D02*
X141880952Y-98454819D01*
X142214286Y-99454819D02*
X142214286Y-98454819D01*
X142214286Y-98454819D02*
X142452381Y-98454819D01*
X142452381Y-98454819D02*
X142595238Y-98502438D01*
X142595238Y-98502438D02*
X142690476Y-98597676D01*
X142690476Y-98597676D02*
X142738095Y-98692914D01*
X142738095Y-98692914D02*
X142785714Y-98883390D01*
X142785714Y-98883390D02*
X142785714Y-99026247D01*
X142785714Y-99026247D02*
X142738095Y-99216723D01*
X142738095Y-99216723D02*
X142690476Y-99311961D01*
X142690476Y-99311961D02*
X142595238Y-99407200D01*
X142595238Y-99407200D02*
X142452381Y-99454819D01*
X142452381Y-99454819D02*
X142214286Y-99454819D01*
X143738095Y-99454819D02*
X143166667Y-99454819D01*
X143452381Y-99454819D02*
X143452381Y-98454819D01*
X143452381Y-98454819D02*
X143357143Y-98597676D01*
X143357143Y-98597676D02*
X143261905Y-98692914D01*
X143261905Y-98692914D02*
X143166667Y-98740533D01*
X144357143Y-98454819D02*
X144452381Y-98454819D01*
X144452381Y-98454819D02*
X144547619Y-98502438D01*
X144547619Y-98502438D02*
X144595238Y-98550057D01*
X144595238Y-98550057D02*
X144642857Y-98645295D01*
X144642857Y-98645295D02*
X144690476Y-98835771D01*
X144690476Y-98835771D02*
X144690476Y-99073866D01*
X144690476Y-99073866D02*
X144642857Y-99264342D01*
X144642857Y-99264342D02*
X144595238Y-99359580D01*
X144595238Y-99359580D02*
X144547619Y-99407200D01*
X144547619Y-99407200D02*
X144452381Y-99454819D01*
X144452381Y-99454819D02*
X144357143Y-99454819D01*
X144357143Y-99454819D02*
X144261905Y-99407200D01*
X144261905Y-99407200D02*
X144214286Y-99359580D01*
X144214286Y-99359580D02*
X144166667Y-99264342D01*
X144166667Y-99264342D02*
X144119048Y-99073866D01*
X144119048Y-99073866D02*
X144119048Y-98835771D01*
X144119048Y-98835771D02*
X144166667Y-98645295D01*
X144166667Y-98645295D02*
X144214286Y-98550057D01*
X144214286Y-98550057D02*
X144261905Y-98502438D01*
X144261905Y-98502438D02*
X144357143Y-98454819D01*
X143487704Y-92128571D02*
X143487704Y-91671428D01*
X143487704Y-91900000D02*
X144287704Y-91900000D01*
X144287704Y-91900000D02*
X144173419Y-91823809D01*
X144173419Y-91823809D02*
X144097228Y-91747619D01*
X144097228Y-91747619D02*
X144059133Y-91671428D01*
X136690476Y-106454819D02*
X137023809Y-107454819D01*
X137023809Y-107454819D02*
X137357142Y-106454819D01*
X137690476Y-107454819D02*
X137690476Y-106454819D01*
X137690476Y-106454819D02*
X137928571Y-106454819D01*
X137928571Y-106454819D02*
X138071428Y-106502438D01*
X138071428Y-106502438D02*
X138166666Y-106597676D01*
X138166666Y-106597676D02*
X138214285Y-106692914D01*
X138214285Y-106692914D02*
X138261904Y-106883390D01*
X138261904Y-106883390D02*
X138261904Y-107026247D01*
X138261904Y-107026247D02*
X138214285Y-107216723D01*
X138214285Y-107216723D02*
X138166666Y-107311961D01*
X138166666Y-107311961D02*
X138071428Y-107407200D01*
X138071428Y-107407200D02*
X137928571Y-107454819D01*
X137928571Y-107454819D02*
X137690476Y-107454819D01*
X138738095Y-107454819D02*
X138928571Y-107454819D01*
X138928571Y-107454819D02*
X139023809Y-107407200D01*
X139023809Y-107407200D02*
X139071428Y-107359580D01*
X139071428Y-107359580D02*
X139166666Y-107216723D01*
X139166666Y-107216723D02*
X139214285Y-107026247D01*
X139214285Y-107026247D02*
X139214285Y-106645295D01*
X139214285Y-106645295D02*
X139166666Y-106550057D01*
X139166666Y-106550057D02*
X139119047Y-106502438D01*
X139119047Y-106502438D02*
X139023809Y-106454819D01*
X139023809Y-106454819D02*
X138833333Y-106454819D01*
X138833333Y-106454819D02*
X138738095Y-106502438D01*
X138738095Y-106502438D02*
X138690476Y-106550057D01*
X138690476Y-106550057D02*
X138642857Y-106645295D01*
X138642857Y-106645295D02*
X138642857Y-106883390D01*
X138642857Y-106883390D02*
X138690476Y-106978628D01*
X138690476Y-106978628D02*
X138738095Y-107026247D01*
X138738095Y-107026247D02*
X138833333Y-107073866D01*
X138833333Y-107073866D02*
X139023809Y-107073866D01*
X139023809Y-107073866D02*
X139119047Y-107026247D01*
X139119047Y-107026247D02*
X139166666Y-106978628D01*
X139166666Y-106978628D02*
X139214285Y-106883390D01*
X138487704Y-100128571D02*
X138487704Y-99671428D01*
X138487704Y-99900000D02*
X139287704Y-99900000D01*
X139287704Y-99900000D02*
X139173419Y-99823809D01*
X139173419Y-99823809D02*
X139097228Y-99747619D01*
X139097228Y-99747619D02*
X139059133Y-99671428D01*
X131690476Y-114454819D02*
X132023809Y-115454819D01*
X132023809Y-115454819D02*
X132357142Y-114454819D01*
X132690476Y-115454819D02*
X132690476Y-114454819D01*
X132690476Y-114454819D02*
X132928571Y-114454819D01*
X132928571Y-114454819D02*
X133071428Y-114502438D01*
X133071428Y-114502438D02*
X133166666Y-114597676D01*
X133166666Y-114597676D02*
X133214285Y-114692914D01*
X133214285Y-114692914D02*
X133261904Y-114883390D01*
X133261904Y-114883390D02*
X133261904Y-115026247D01*
X133261904Y-115026247D02*
X133214285Y-115216723D01*
X133214285Y-115216723D02*
X133166666Y-115311961D01*
X133166666Y-115311961D02*
X133071428Y-115407200D01*
X133071428Y-115407200D02*
X132928571Y-115454819D01*
X132928571Y-115454819D02*
X132690476Y-115454819D01*
X133833333Y-114883390D02*
X133738095Y-114835771D01*
X133738095Y-114835771D02*
X133690476Y-114788152D01*
X133690476Y-114788152D02*
X133642857Y-114692914D01*
X133642857Y-114692914D02*
X133642857Y-114645295D01*
X133642857Y-114645295D02*
X133690476Y-114550057D01*
X133690476Y-114550057D02*
X133738095Y-114502438D01*
X133738095Y-114502438D02*
X133833333Y-114454819D01*
X133833333Y-114454819D02*
X134023809Y-114454819D01*
X134023809Y-114454819D02*
X134119047Y-114502438D01*
X134119047Y-114502438D02*
X134166666Y-114550057D01*
X134166666Y-114550057D02*
X134214285Y-114645295D01*
X134214285Y-114645295D02*
X134214285Y-114692914D01*
X134214285Y-114692914D02*
X134166666Y-114788152D01*
X134166666Y-114788152D02*
X134119047Y-114835771D01*
X134119047Y-114835771D02*
X134023809Y-114883390D01*
X134023809Y-114883390D02*
X133833333Y-114883390D01*
X133833333Y-114883390D02*
X133738095Y-114931009D01*
X133738095Y-114931009D02*
X133690476Y-114978628D01*
X133690476Y-114978628D02*
X133642857Y-115073866D01*
X133642857Y-115073866D02*
X133642857Y-115264342D01*
X133642857Y-115264342D02*
X133690476Y-115359580D01*
X133690476Y-115359580D02*
X133738095Y-115407200D01*
X133738095Y-115407200D02*
X133833333Y-115454819D01*
X133833333Y-115454819D02*
X134023809Y-115454819D01*
X134023809Y-115454819D02*
X134119047Y-115407200D01*
X134119047Y-115407200D02*
X134166666Y-115359580D01*
X134166666Y-115359580D02*
X134214285Y-115264342D01*
X134214285Y-115264342D02*
X134214285Y-115073866D01*
X134214285Y-115073866D02*
X134166666Y-114978628D01*
X134166666Y-114978628D02*
X134119047Y-114931009D01*
X134119047Y-114931009D02*
X134023809Y-114883390D01*
X133487704Y-108128571D02*
X133487704Y-107671428D01*
X133487704Y-107900000D02*
X134287704Y-107900000D01*
X134287704Y-107900000D02*
X134173419Y-107823809D01*
X134173419Y-107823809D02*
X134097228Y-107747619D01*
X134097228Y-107747619D02*
X134059133Y-107671428D01*
X126690476Y-122454819D02*
X127023809Y-123454819D01*
X127023809Y-123454819D02*
X127357142Y-122454819D01*
X127690476Y-123454819D02*
X127690476Y-122454819D01*
X127690476Y-122454819D02*
X127928571Y-122454819D01*
X127928571Y-122454819D02*
X128071428Y-122502438D01*
X128071428Y-122502438D02*
X128166666Y-122597676D01*
X128166666Y-122597676D02*
X128214285Y-122692914D01*
X128214285Y-122692914D02*
X128261904Y-122883390D01*
X128261904Y-122883390D02*
X128261904Y-123026247D01*
X128261904Y-123026247D02*
X128214285Y-123216723D01*
X128214285Y-123216723D02*
X128166666Y-123311961D01*
X128166666Y-123311961D02*
X128071428Y-123407200D01*
X128071428Y-123407200D02*
X127928571Y-123454819D01*
X127928571Y-123454819D02*
X127690476Y-123454819D01*
X128595238Y-122454819D02*
X129261904Y-122454819D01*
X129261904Y-122454819D02*
X128833333Y-123454819D01*
X128487704Y-116128571D02*
X128487704Y-115671428D01*
X128487704Y-115900000D02*
X129287704Y-115900000D01*
X129287704Y-115900000D02*
X129173419Y-115823809D01*
X129173419Y-115823809D02*
X129097228Y-115747619D01*
X129097228Y-115747619D02*
X129059133Y-115671428D01*
X121690476Y-130454819D02*
X122023809Y-131454819D01*
X122023809Y-131454819D02*
X122357142Y-130454819D01*
X122690476Y-131454819D02*
X122690476Y-130454819D01*
X122690476Y-130454819D02*
X122928571Y-130454819D01*
X122928571Y-130454819D02*
X123071428Y-130502438D01*
X123071428Y-130502438D02*
X123166666Y-130597676D01*
X123166666Y-130597676D02*
X123214285Y-130692914D01*
X123214285Y-130692914D02*
X123261904Y-130883390D01*
X123261904Y-130883390D02*
X123261904Y-131026247D01*
X123261904Y-131026247D02*
X123214285Y-131216723D01*
X123214285Y-131216723D02*
X123166666Y-131311961D01*
X123166666Y-131311961D02*
X123071428Y-131407200D01*
X123071428Y-131407200D02*
X122928571Y-131454819D01*
X122928571Y-131454819D02*
X122690476Y-131454819D01*
X124119047Y-130454819D02*
X123928571Y-130454819D01*
X123928571Y-130454819D02*
X123833333Y-130502438D01*
X123833333Y-130502438D02*
X123785714Y-130550057D01*
X123785714Y-130550057D02*
X123690476Y-130692914D01*
X123690476Y-130692914D02*
X123642857Y-130883390D01*
X123642857Y-130883390D02*
X123642857Y-131264342D01*
X123642857Y-131264342D02*
X123690476Y-131359580D01*
X123690476Y-131359580D02*
X123738095Y-131407200D01*
X123738095Y-131407200D02*
X123833333Y-131454819D01*
X123833333Y-131454819D02*
X124023809Y-131454819D01*
X124023809Y-131454819D02*
X124119047Y-131407200D01*
X124119047Y-131407200D02*
X124166666Y-131359580D01*
X124166666Y-131359580D02*
X124214285Y-131264342D01*
X124214285Y-131264342D02*
X124214285Y-131026247D01*
X124214285Y-131026247D02*
X124166666Y-130931009D01*
X124166666Y-130931009D02*
X124119047Y-130883390D01*
X124119047Y-130883390D02*
X124023809Y-130835771D01*
X124023809Y-130835771D02*
X123833333Y-130835771D01*
X123833333Y-130835771D02*
X123738095Y-130883390D01*
X123738095Y-130883390D02*
X123690476Y-130931009D01*
X123690476Y-130931009D02*
X123642857Y-131026247D01*
X123487704Y-124128571D02*
X123487704Y-123671428D01*
X123487704Y-123900000D02*
X124287704Y-123900000D01*
X124287704Y-123900000D02*
X124173419Y-123823809D01*
X124173419Y-123823809D02*
X124097228Y-123747619D01*
X124097228Y-123747619D02*
X124059133Y-123671428D01*
X123690476Y-145454819D02*
X124023809Y-146454819D01*
X124023809Y-146454819D02*
X124357142Y-145454819D01*
X124690476Y-146454819D02*
X124690476Y-145454819D01*
X124690476Y-145454819D02*
X124928571Y-145454819D01*
X124928571Y-145454819D02*
X125071428Y-145502438D01*
X125071428Y-145502438D02*
X125166666Y-145597676D01*
X125166666Y-145597676D02*
X125214285Y-145692914D01*
X125214285Y-145692914D02*
X125261904Y-145883390D01*
X125261904Y-145883390D02*
X125261904Y-146026247D01*
X125261904Y-146026247D02*
X125214285Y-146216723D01*
X125214285Y-146216723D02*
X125166666Y-146311961D01*
X125166666Y-146311961D02*
X125071428Y-146407200D01*
X125071428Y-146407200D02*
X124928571Y-146454819D01*
X124928571Y-146454819D02*
X124690476Y-146454819D01*
X126119047Y-145788152D02*
X126119047Y-146454819D01*
X125880952Y-145407200D02*
X125642857Y-146121485D01*
X125642857Y-146121485D02*
X126261904Y-146121485D01*
X122128571Y-142012295D02*
X121671428Y-142012295D01*
X121900000Y-142012295D02*
X121900000Y-141212295D01*
X121900000Y-141212295D02*
X121823809Y-141326580D01*
X121823809Y-141326580D02*
X121747619Y-141402771D01*
X121747619Y-141402771D02*
X121671428Y-141440866D01*
X131190476Y-145454819D02*
X131523809Y-146454819D01*
X131523809Y-146454819D02*
X131857142Y-145454819D01*
X132190476Y-146454819D02*
X132190476Y-145454819D01*
X132190476Y-145454819D02*
X132428571Y-145454819D01*
X132428571Y-145454819D02*
X132571428Y-145502438D01*
X132571428Y-145502438D02*
X132666666Y-145597676D01*
X132666666Y-145597676D02*
X132714285Y-145692914D01*
X132714285Y-145692914D02*
X132761904Y-145883390D01*
X132761904Y-145883390D02*
X132761904Y-146026247D01*
X132761904Y-146026247D02*
X132714285Y-146216723D01*
X132714285Y-146216723D02*
X132666666Y-146311961D01*
X132666666Y-146311961D02*
X132571428Y-146407200D01*
X132571428Y-146407200D02*
X132428571Y-146454819D01*
X132428571Y-146454819D02*
X132190476Y-146454819D01*
X133095238Y-145454819D02*
X133714285Y-145454819D01*
X133714285Y-145454819D02*
X133380952Y-145835771D01*
X133380952Y-145835771D02*
X133523809Y-145835771D01*
X133523809Y-145835771D02*
X133619047Y-145883390D01*
X133619047Y-145883390D02*
X133666666Y-145931009D01*
X133666666Y-145931009D02*
X133714285Y-146026247D01*
X133714285Y-146026247D02*
X133714285Y-146264342D01*
X133714285Y-146264342D02*
X133666666Y-146359580D01*
X133666666Y-146359580D02*
X133619047Y-146407200D01*
X133619047Y-146407200D02*
X133523809Y-146454819D01*
X133523809Y-146454819D02*
X133238095Y-146454819D01*
X133238095Y-146454819D02*
X133142857Y-146407200D01*
X133142857Y-146407200D02*
X133095238Y-146359580D01*
X129628571Y-142012295D02*
X129171428Y-142012295D01*
X129400000Y-142012295D02*
X129400000Y-141212295D01*
X129400000Y-141212295D02*
X129323809Y-141326580D01*
X129323809Y-141326580D02*
X129247619Y-141402771D01*
X129247619Y-141402771D02*
X129171428Y-141440866D01*
X138690476Y-145454819D02*
X139023809Y-146454819D01*
X139023809Y-146454819D02*
X139357142Y-145454819D01*
X139690476Y-146454819D02*
X139690476Y-145454819D01*
X139690476Y-145454819D02*
X139928571Y-145454819D01*
X139928571Y-145454819D02*
X140071428Y-145502438D01*
X140071428Y-145502438D02*
X140166666Y-145597676D01*
X140166666Y-145597676D02*
X140214285Y-145692914D01*
X140214285Y-145692914D02*
X140261904Y-145883390D01*
X140261904Y-145883390D02*
X140261904Y-146026247D01*
X140261904Y-146026247D02*
X140214285Y-146216723D01*
X140214285Y-146216723D02*
X140166666Y-146311961D01*
X140166666Y-146311961D02*
X140071428Y-146407200D01*
X140071428Y-146407200D02*
X139928571Y-146454819D01*
X139928571Y-146454819D02*
X139690476Y-146454819D01*
X140642857Y-145550057D02*
X140690476Y-145502438D01*
X140690476Y-145502438D02*
X140785714Y-145454819D01*
X140785714Y-145454819D02*
X141023809Y-145454819D01*
X141023809Y-145454819D02*
X141119047Y-145502438D01*
X141119047Y-145502438D02*
X141166666Y-145550057D01*
X141166666Y-145550057D02*
X141214285Y-145645295D01*
X141214285Y-145645295D02*
X141214285Y-145740533D01*
X141214285Y-145740533D02*
X141166666Y-145883390D01*
X141166666Y-145883390D02*
X140595238Y-146454819D01*
X140595238Y-146454819D02*
X141214285Y-146454819D01*
X137128571Y-142012295D02*
X136671428Y-142012295D01*
X136900000Y-142012295D02*
X136900000Y-141212295D01*
X136900000Y-141212295D02*
X136823809Y-141326580D01*
X136823809Y-141326580D02*
X136747619Y-141402771D01*
X136747619Y-141402771D02*
X136671428Y-141440866D01*
X144190476Y-135454819D02*
X144523809Y-136454819D01*
X144523809Y-136454819D02*
X144857142Y-135454819D01*
X145190476Y-136454819D02*
X145190476Y-135454819D01*
X145190476Y-135454819D02*
X145428571Y-135454819D01*
X145428571Y-135454819D02*
X145571428Y-135502438D01*
X145571428Y-135502438D02*
X145666666Y-135597676D01*
X145666666Y-135597676D02*
X145714285Y-135692914D01*
X145714285Y-135692914D02*
X145761904Y-135883390D01*
X145761904Y-135883390D02*
X145761904Y-136026247D01*
X145761904Y-136026247D02*
X145714285Y-136216723D01*
X145714285Y-136216723D02*
X145666666Y-136311961D01*
X145666666Y-136311961D02*
X145571428Y-136407200D01*
X145571428Y-136407200D02*
X145428571Y-136454819D01*
X145428571Y-136454819D02*
X145190476Y-136454819D01*
X146714285Y-136454819D02*
X146142857Y-136454819D01*
X146428571Y-136454819D02*
X146428571Y-135454819D01*
X146428571Y-135454819D02*
X146333333Y-135597676D01*
X146333333Y-135597676D02*
X146238095Y-135692914D01*
X146238095Y-135692914D02*
X146142857Y-135740533D01*
X140954819Y-126166666D02*
X140478628Y-126499999D01*
X140954819Y-126738094D02*
X139954819Y-126738094D01*
X139954819Y-126738094D02*
X139954819Y-126357142D01*
X139954819Y-126357142D02*
X140002438Y-126261904D01*
X140002438Y-126261904D02*
X140050057Y-126214285D01*
X140050057Y-126214285D02*
X140145295Y-126166666D01*
X140145295Y-126166666D02*
X140288152Y-126166666D01*
X140288152Y-126166666D02*
X140383390Y-126214285D01*
X140383390Y-126214285D02*
X140431009Y-126261904D01*
X140431009Y-126261904D02*
X140478628Y-126357142D01*
X140478628Y-126357142D02*
X140478628Y-126738094D01*
X140288152Y-125309523D02*
X140954819Y-125309523D01*
X139907200Y-125547618D02*
X140621485Y-125785713D01*
X140621485Y-125785713D02*
X140621485Y-125166666D01*
X142454819Y-126166666D02*
X141978628Y-126499999D01*
X142454819Y-126738094D02*
X141454819Y-126738094D01*
X141454819Y-126738094D02*
X141454819Y-126357142D01*
X141454819Y-126357142D02*
X141502438Y-126261904D01*
X141502438Y-126261904D02*
X141550057Y-126214285D01*
X141550057Y-126214285D02*
X141645295Y-126166666D01*
X141645295Y-126166666D02*
X141788152Y-126166666D01*
X141788152Y-126166666D02*
X141883390Y-126214285D01*
X141883390Y-126214285D02*
X141931009Y-126261904D01*
X141931009Y-126261904D02*
X141978628Y-126357142D01*
X141978628Y-126357142D02*
X141978628Y-126738094D01*
X141454819Y-125833332D02*
X141454819Y-125214285D01*
X141454819Y-125214285D02*
X141835771Y-125547618D01*
X141835771Y-125547618D02*
X141835771Y-125404761D01*
X141835771Y-125404761D02*
X141883390Y-125309523D01*
X141883390Y-125309523D02*
X141931009Y-125261904D01*
X141931009Y-125261904D02*
X142026247Y-125214285D01*
X142026247Y-125214285D02*
X142264342Y-125214285D01*
X142264342Y-125214285D02*
X142359580Y-125261904D01*
X142359580Y-125261904D02*
X142407200Y-125309523D01*
X142407200Y-125309523D02*
X142454819Y-125404761D01*
X142454819Y-125404761D02*
X142454819Y-125690475D01*
X142454819Y-125690475D02*
X142407200Y-125785713D01*
X142407200Y-125785713D02*
X142359580Y-125833332D01*
X156954819Y-126166666D02*
X156478628Y-126499999D01*
X156954819Y-126738094D02*
X155954819Y-126738094D01*
X155954819Y-126738094D02*
X155954819Y-126357142D01*
X155954819Y-126357142D02*
X156002438Y-126261904D01*
X156002438Y-126261904D02*
X156050057Y-126214285D01*
X156050057Y-126214285D02*
X156145295Y-126166666D01*
X156145295Y-126166666D02*
X156288152Y-126166666D01*
X156288152Y-126166666D02*
X156383390Y-126214285D01*
X156383390Y-126214285D02*
X156431009Y-126261904D01*
X156431009Y-126261904D02*
X156478628Y-126357142D01*
X156478628Y-126357142D02*
X156478628Y-126738094D01*
X156050057Y-125785713D02*
X156002438Y-125738094D01*
X156002438Y-125738094D02*
X155954819Y-125642856D01*
X155954819Y-125642856D02*
X155954819Y-125404761D01*
X155954819Y-125404761D02*
X156002438Y-125309523D01*
X156002438Y-125309523D02*
X156050057Y-125261904D01*
X156050057Y-125261904D02*
X156145295Y-125214285D01*
X156145295Y-125214285D02*
X156240533Y-125214285D01*
X156240533Y-125214285D02*
X156383390Y-125261904D01*
X156383390Y-125261904D02*
X156954819Y-125833332D01*
X156954819Y-125833332D02*
X156954819Y-125214285D01*
X155454819Y-126166666D02*
X154978628Y-126499999D01*
X155454819Y-126738094D02*
X154454819Y-126738094D01*
X154454819Y-126738094D02*
X154454819Y-126357142D01*
X154454819Y-126357142D02*
X154502438Y-126261904D01*
X154502438Y-126261904D02*
X154550057Y-126214285D01*
X154550057Y-126214285D02*
X154645295Y-126166666D01*
X154645295Y-126166666D02*
X154788152Y-126166666D01*
X154788152Y-126166666D02*
X154883390Y-126214285D01*
X154883390Y-126214285D02*
X154931009Y-126261904D01*
X154931009Y-126261904D02*
X154978628Y-126357142D01*
X154978628Y-126357142D02*
X154978628Y-126738094D01*
X155454819Y-125214285D02*
X155454819Y-125785713D01*
X155454819Y-125499999D02*
X154454819Y-125499999D01*
X154454819Y-125499999D02*
X154597676Y-125595237D01*
X154597676Y-125595237D02*
X154692914Y-125690475D01*
X154692914Y-125690475D02*
X154740533Y-125785713D01*
X155454819Y-121238094D02*
X154454819Y-121238094D01*
X154454819Y-121238094D02*
X154454819Y-120999999D01*
X154454819Y-120999999D02*
X154502438Y-120857142D01*
X154502438Y-120857142D02*
X154597676Y-120761904D01*
X154597676Y-120761904D02*
X154692914Y-120714285D01*
X154692914Y-120714285D02*
X154883390Y-120666666D01*
X154883390Y-120666666D02*
X155026247Y-120666666D01*
X155026247Y-120666666D02*
X155216723Y-120714285D01*
X155216723Y-120714285D02*
X155311961Y-120761904D01*
X155311961Y-120761904D02*
X155407200Y-120857142D01*
X155407200Y-120857142D02*
X155454819Y-120999999D01*
X155454819Y-120999999D02*
X155454819Y-121238094D01*
X155454819Y-120238094D02*
X154454819Y-120238094D01*
X154454819Y-120238094D02*
X154454819Y-119999999D01*
X154454819Y-119999999D02*
X154502438Y-119857142D01*
X154502438Y-119857142D02*
X154597676Y-119761904D01*
X154597676Y-119761904D02*
X154692914Y-119714285D01*
X154692914Y-119714285D02*
X154883390Y-119666666D01*
X154883390Y-119666666D02*
X155026247Y-119666666D01*
X155026247Y-119666666D02*
X155216723Y-119714285D01*
X155216723Y-119714285D02*
X155311961Y-119761904D01*
X155311961Y-119761904D02*
X155407200Y-119857142D01*
X155407200Y-119857142D02*
X155454819Y-119999999D01*
X155454819Y-119999999D02*
X155454819Y-120238094D01*
X155454819Y-118714285D02*
X155454819Y-119285713D01*
X155454819Y-118999999D02*
X154454819Y-118999999D01*
X154454819Y-118999999D02*
X154597676Y-119095237D01*
X154597676Y-119095237D02*
X154692914Y-119190475D01*
X154692914Y-119190475D02*
X154740533Y-119285713D01*
X166857142Y-136859580D02*
X166809523Y-136907200D01*
X166809523Y-136907200D02*
X166666666Y-136954819D01*
X166666666Y-136954819D02*
X166571428Y-136954819D01*
X166571428Y-136954819D02*
X166428571Y-136907200D01*
X166428571Y-136907200D02*
X166333333Y-136811961D01*
X166333333Y-136811961D02*
X166285714Y-136716723D01*
X166285714Y-136716723D02*
X166238095Y-136526247D01*
X166238095Y-136526247D02*
X166238095Y-136383390D01*
X166238095Y-136383390D02*
X166285714Y-136192914D01*
X166285714Y-136192914D02*
X166333333Y-136097676D01*
X166333333Y-136097676D02*
X166428571Y-136002438D01*
X166428571Y-136002438D02*
X166571428Y-135954819D01*
X166571428Y-135954819D02*
X166666666Y-135954819D01*
X166666666Y-135954819D02*
X166809523Y-136002438D01*
X166809523Y-136002438D02*
X166857142Y-136050057D01*
X167238095Y-136050057D02*
X167285714Y-136002438D01*
X167285714Y-136002438D02*
X167380952Y-135954819D01*
X167380952Y-135954819D02*
X167619047Y-135954819D01*
X167619047Y-135954819D02*
X167714285Y-136002438D01*
X167714285Y-136002438D02*
X167761904Y-136050057D01*
X167761904Y-136050057D02*
X167809523Y-136145295D01*
X167809523Y-136145295D02*
X167809523Y-136240533D01*
X167809523Y-136240533D02*
X167761904Y-136383390D01*
X167761904Y-136383390D02*
X167190476Y-136954819D01*
X167190476Y-136954819D02*
X167809523Y-136954819D01*
X168761904Y-136954819D02*
X168190476Y-136954819D01*
X168476190Y-136954819D02*
X168476190Y-135954819D01*
X168476190Y-135954819D02*
X168380952Y-136097676D01*
X168380952Y-136097676D02*
X168285714Y-136192914D01*
X168285714Y-136192914D02*
X168190476Y-136240533D01*
X172857142Y-136859580D02*
X172809523Y-136907200D01*
X172809523Y-136907200D02*
X172666666Y-136954819D01*
X172666666Y-136954819D02*
X172571428Y-136954819D01*
X172571428Y-136954819D02*
X172428571Y-136907200D01*
X172428571Y-136907200D02*
X172333333Y-136811961D01*
X172333333Y-136811961D02*
X172285714Y-136716723D01*
X172285714Y-136716723D02*
X172238095Y-136526247D01*
X172238095Y-136526247D02*
X172238095Y-136383390D01*
X172238095Y-136383390D02*
X172285714Y-136192914D01*
X172285714Y-136192914D02*
X172333333Y-136097676D01*
X172333333Y-136097676D02*
X172428571Y-136002438D01*
X172428571Y-136002438D02*
X172571428Y-135954819D01*
X172571428Y-135954819D02*
X172666666Y-135954819D01*
X172666666Y-135954819D02*
X172809523Y-136002438D01*
X172809523Y-136002438D02*
X172857142Y-136050057D01*
X173238095Y-136050057D02*
X173285714Y-136002438D01*
X173285714Y-136002438D02*
X173380952Y-135954819D01*
X173380952Y-135954819D02*
X173619047Y-135954819D01*
X173619047Y-135954819D02*
X173714285Y-136002438D01*
X173714285Y-136002438D02*
X173761904Y-136050057D01*
X173761904Y-136050057D02*
X173809523Y-136145295D01*
X173809523Y-136145295D02*
X173809523Y-136240533D01*
X173809523Y-136240533D02*
X173761904Y-136383390D01*
X173761904Y-136383390D02*
X173190476Y-136954819D01*
X173190476Y-136954819D02*
X173809523Y-136954819D01*
X174428571Y-135954819D02*
X174523809Y-135954819D01*
X174523809Y-135954819D02*
X174619047Y-136002438D01*
X174619047Y-136002438D02*
X174666666Y-136050057D01*
X174666666Y-136050057D02*
X174714285Y-136145295D01*
X174714285Y-136145295D02*
X174761904Y-136335771D01*
X174761904Y-136335771D02*
X174761904Y-136573866D01*
X174761904Y-136573866D02*
X174714285Y-136764342D01*
X174714285Y-136764342D02*
X174666666Y-136859580D01*
X174666666Y-136859580D02*
X174619047Y-136907200D01*
X174619047Y-136907200D02*
X174523809Y-136954819D01*
X174523809Y-136954819D02*
X174428571Y-136954819D01*
X174428571Y-136954819D02*
X174333333Y-136907200D01*
X174333333Y-136907200D02*
X174285714Y-136859580D01*
X174285714Y-136859580D02*
X174238095Y-136764342D01*
X174238095Y-136764342D02*
X174190476Y-136573866D01*
X174190476Y-136573866D02*
X174190476Y-136335771D01*
X174190476Y-136335771D02*
X174238095Y-136145295D01*
X174238095Y-136145295D02*
X174285714Y-136050057D01*
X174285714Y-136050057D02*
X174333333Y-136002438D01*
X174333333Y-136002438D02*
X174428571Y-135954819D01*
X176359580Y-135642857D02*
X176407200Y-135690476D01*
X176407200Y-135690476D02*
X176454819Y-135833333D01*
X176454819Y-135833333D02*
X176454819Y-135928571D01*
X176454819Y-135928571D02*
X176407200Y-136071428D01*
X176407200Y-136071428D02*
X176311961Y-136166666D01*
X176311961Y-136166666D02*
X176216723Y-136214285D01*
X176216723Y-136214285D02*
X176026247Y-136261904D01*
X176026247Y-136261904D02*
X175883390Y-136261904D01*
X175883390Y-136261904D02*
X175692914Y-136214285D01*
X175692914Y-136214285D02*
X175597676Y-136166666D01*
X175597676Y-136166666D02*
X175502438Y-136071428D01*
X175502438Y-136071428D02*
X175454819Y-135928571D01*
X175454819Y-135928571D02*
X175454819Y-135833333D01*
X175454819Y-135833333D02*
X175502438Y-135690476D01*
X175502438Y-135690476D02*
X175550057Y-135642857D01*
X176454819Y-134690476D02*
X176454819Y-135261904D01*
X176454819Y-134976190D02*
X175454819Y-134976190D01*
X175454819Y-134976190D02*
X175597676Y-135071428D01*
X175597676Y-135071428D02*
X175692914Y-135166666D01*
X175692914Y-135166666D02*
X175740533Y-135261904D01*
X176454819Y-134214285D02*
X176454819Y-134023809D01*
X176454819Y-134023809D02*
X176407200Y-133928571D01*
X176407200Y-133928571D02*
X176359580Y-133880952D01*
X176359580Y-133880952D02*
X176216723Y-133785714D01*
X176216723Y-133785714D02*
X176026247Y-133738095D01*
X176026247Y-133738095D02*
X175645295Y-133738095D01*
X175645295Y-133738095D02*
X175550057Y-133785714D01*
X175550057Y-133785714D02*
X175502438Y-133833333D01*
X175502438Y-133833333D02*
X175454819Y-133928571D01*
X175454819Y-133928571D02*
X175454819Y-134119047D01*
X175454819Y-134119047D02*
X175502438Y-134214285D01*
X175502438Y-134214285D02*
X175550057Y-134261904D01*
X175550057Y-134261904D02*
X175645295Y-134309523D01*
X175645295Y-134309523D02*
X175883390Y-134309523D01*
X175883390Y-134309523D02*
X175978628Y-134261904D01*
X175978628Y-134261904D02*
X176026247Y-134214285D01*
X176026247Y-134214285D02*
X176073866Y-134119047D01*
X176073866Y-134119047D02*
X176073866Y-133928571D01*
X176073866Y-133928571D02*
X176026247Y-133833333D01*
X176026247Y-133833333D02*
X175978628Y-133785714D01*
X175978628Y-133785714D02*
X175883390Y-133738095D01*
X171359580Y-127642857D02*
X171407200Y-127690476D01*
X171407200Y-127690476D02*
X171454819Y-127833333D01*
X171454819Y-127833333D02*
X171454819Y-127928571D01*
X171454819Y-127928571D02*
X171407200Y-128071428D01*
X171407200Y-128071428D02*
X171311961Y-128166666D01*
X171311961Y-128166666D02*
X171216723Y-128214285D01*
X171216723Y-128214285D02*
X171026247Y-128261904D01*
X171026247Y-128261904D02*
X170883390Y-128261904D01*
X170883390Y-128261904D02*
X170692914Y-128214285D01*
X170692914Y-128214285D02*
X170597676Y-128166666D01*
X170597676Y-128166666D02*
X170502438Y-128071428D01*
X170502438Y-128071428D02*
X170454819Y-127928571D01*
X170454819Y-127928571D02*
X170454819Y-127833333D01*
X170454819Y-127833333D02*
X170502438Y-127690476D01*
X170502438Y-127690476D02*
X170550057Y-127642857D01*
X171454819Y-126690476D02*
X171454819Y-127261904D01*
X171454819Y-126976190D02*
X170454819Y-126976190D01*
X170454819Y-126976190D02*
X170597676Y-127071428D01*
X170597676Y-127071428D02*
X170692914Y-127166666D01*
X170692914Y-127166666D02*
X170740533Y-127261904D01*
X170883390Y-126119047D02*
X170835771Y-126214285D01*
X170835771Y-126214285D02*
X170788152Y-126261904D01*
X170788152Y-126261904D02*
X170692914Y-126309523D01*
X170692914Y-126309523D02*
X170645295Y-126309523D01*
X170645295Y-126309523D02*
X170550057Y-126261904D01*
X170550057Y-126261904D02*
X170502438Y-126214285D01*
X170502438Y-126214285D02*
X170454819Y-126119047D01*
X170454819Y-126119047D02*
X170454819Y-125928571D01*
X170454819Y-125928571D02*
X170502438Y-125833333D01*
X170502438Y-125833333D02*
X170550057Y-125785714D01*
X170550057Y-125785714D02*
X170645295Y-125738095D01*
X170645295Y-125738095D02*
X170692914Y-125738095D01*
X170692914Y-125738095D02*
X170788152Y-125785714D01*
X170788152Y-125785714D02*
X170835771Y-125833333D01*
X170835771Y-125833333D02*
X170883390Y-125928571D01*
X170883390Y-125928571D02*
X170883390Y-126119047D01*
X170883390Y-126119047D02*
X170931009Y-126214285D01*
X170931009Y-126214285D02*
X170978628Y-126261904D01*
X170978628Y-126261904D02*
X171073866Y-126309523D01*
X171073866Y-126309523D02*
X171264342Y-126309523D01*
X171264342Y-126309523D02*
X171359580Y-126261904D01*
X171359580Y-126261904D02*
X171407200Y-126214285D01*
X171407200Y-126214285D02*
X171454819Y-126119047D01*
X171454819Y-126119047D02*
X171454819Y-125928571D01*
X171454819Y-125928571D02*
X171407200Y-125833333D01*
X171407200Y-125833333D02*
X171359580Y-125785714D01*
X171359580Y-125785714D02*
X171264342Y-125738095D01*
X171264342Y-125738095D02*
X171073866Y-125738095D01*
X171073866Y-125738095D02*
X170978628Y-125785714D01*
X170978628Y-125785714D02*
X170931009Y-125833333D01*
X170931009Y-125833333D02*
X170883390Y-125928571D01*
X166359580Y-119642857D02*
X166407200Y-119690476D01*
X166407200Y-119690476D02*
X166454819Y-119833333D01*
X166454819Y-119833333D02*
X166454819Y-119928571D01*
X166454819Y-119928571D02*
X166407200Y-120071428D01*
X166407200Y-120071428D02*
X166311961Y-120166666D01*
X166311961Y-120166666D02*
X166216723Y-120214285D01*
X166216723Y-120214285D02*
X166026247Y-120261904D01*
X166026247Y-120261904D02*
X165883390Y-120261904D01*
X165883390Y-120261904D02*
X165692914Y-120214285D01*
X165692914Y-120214285D02*
X165597676Y-120166666D01*
X165597676Y-120166666D02*
X165502438Y-120071428D01*
X165502438Y-120071428D02*
X165454819Y-119928571D01*
X165454819Y-119928571D02*
X165454819Y-119833333D01*
X165454819Y-119833333D02*
X165502438Y-119690476D01*
X165502438Y-119690476D02*
X165550057Y-119642857D01*
X166454819Y-118690476D02*
X166454819Y-119261904D01*
X166454819Y-118976190D02*
X165454819Y-118976190D01*
X165454819Y-118976190D02*
X165597676Y-119071428D01*
X165597676Y-119071428D02*
X165692914Y-119166666D01*
X165692914Y-119166666D02*
X165740533Y-119261904D01*
X165454819Y-118357142D02*
X165454819Y-117690476D01*
X165454819Y-117690476D02*
X166454819Y-118119047D01*
X161359580Y-111642857D02*
X161407200Y-111690476D01*
X161407200Y-111690476D02*
X161454819Y-111833333D01*
X161454819Y-111833333D02*
X161454819Y-111928571D01*
X161454819Y-111928571D02*
X161407200Y-112071428D01*
X161407200Y-112071428D02*
X161311961Y-112166666D01*
X161311961Y-112166666D02*
X161216723Y-112214285D01*
X161216723Y-112214285D02*
X161026247Y-112261904D01*
X161026247Y-112261904D02*
X160883390Y-112261904D01*
X160883390Y-112261904D02*
X160692914Y-112214285D01*
X160692914Y-112214285D02*
X160597676Y-112166666D01*
X160597676Y-112166666D02*
X160502438Y-112071428D01*
X160502438Y-112071428D02*
X160454819Y-111928571D01*
X160454819Y-111928571D02*
X160454819Y-111833333D01*
X160454819Y-111833333D02*
X160502438Y-111690476D01*
X160502438Y-111690476D02*
X160550057Y-111642857D01*
X161454819Y-110690476D02*
X161454819Y-111261904D01*
X161454819Y-110976190D02*
X160454819Y-110976190D01*
X160454819Y-110976190D02*
X160597676Y-111071428D01*
X160597676Y-111071428D02*
X160692914Y-111166666D01*
X160692914Y-111166666D02*
X160740533Y-111261904D01*
X160454819Y-109833333D02*
X160454819Y-110023809D01*
X160454819Y-110023809D02*
X160502438Y-110119047D01*
X160502438Y-110119047D02*
X160550057Y-110166666D01*
X160550057Y-110166666D02*
X160692914Y-110261904D01*
X160692914Y-110261904D02*
X160883390Y-110309523D01*
X160883390Y-110309523D02*
X161264342Y-110309523D01*
X161264342Y-110309523D02*
X161359580Y-110261904D01*
X161359580Y-110261904D02*
X161407200Y-110214285D01*
X161407200Y-110214285D02*
X161454819Y-110119047D01*
X161454819Y-110119047D02*
X161454819Y-109928571D01*
X161454819Y-109928571D02*
X161407200Y-109833333D01*
X161407200Y-109833333D02*
X161359580Y-109785714D01*
X161359580Y-109785714D02*
X161264342Y-109738095D01*
X161264342Y-109738095D02*
X161026247Y-109738095D01*
X161026247Y-109738095D02*
X160931009Y-109785714D01*
X160931009Y-109785714D02*
X160883390Y-109833333D01*
X160883390Y-109833333D02*
X160835771Y-109928571D01*
X160835771Y-109928571D02*
X160835771Y-110119047D01*
X160835771Y-110119047D02*
X160883390Y-110214285D01*
X160883390Y-110214285D02*
X160931009Y-110261904D01*
X160931009Y-110261904D02*
X161026247Y-110309523D01*
X156359580Y-103642857D02*
X156407200Y-103690476D01*
X156407200Y-103690476D02*
X156454819Y-103833333D01*
X156454819Y-103833333D02*
X156454819Y-103928571D01*
X156454819Y-103928571D02*
X156407200Y-104071428D01*
X156407200Y-104071428D02*
X156311961Y-104166666D01*
X156311961Y-104166666D02*
X156216723Y-104214285D01*
X156216723Y-104214285D02*
X156026247Y-104261904D01*
X156026247Y-104261904D02*
X155883390Y-104261904D01*
X155883390Y-104261904D02*
X155692914Y-104214285D01*
X155692914Y-104214285D02*
X155597676Y-104166666D01*
X155597676Y-104166666D02*
X155502438Y-104071428D01*
X155502438Y-104071428D02*
X155454819Y-103928571D01*
X155454819Y-103928571D02*
X155454819Y-103833333D01*
X155454819Y-103833333D02*
X155502438Y-103690476D01*
X155502438Y-103690476D02*
X155550057Y-103642857D01*
X156454819Y-102690476D02*
X156454819Y-103261904D01*
X156454819Y-102976190D02*
X155454819Y-102976190D01*
X155454819Y-102976190D02*
X155597676Y-103071428D01*
X155597676Y-103071428D02*
X155692914Y-103166666D01*
X155692914Y-103166666D02*
X155740533Y-103261904D01*
X155454819Y-101785714D02*
X155454819Y-102261904D01*
X155454819Y-102261904D02*
X155931009Y-102309523D01*
X155931009Y-102309523D02*
X155883390Y-102261904D01*
X155883390Y-102261904D02*
X155835771Y-102166666D01*
X155835771Y-102166666D02*
X155835771Y-101928571D01*
X155835771Y-101928571D02*
X155883390Y-101833333D01*
X155883390Y-101833333D02*
X155931009Y-101785714D01*
X155931009Y-101785714D02*
X156026247Y-101738095D01*
X156026247Y-101738095D02*
X156264342Y-101738095D01*
X156264342Y-101738095D02*
X156359580Y-101785714D01*
X156359580Y-101785714D02*
X156407200Y-101833333D01*
X156407200Y-101833333D02*
X156454819Y-101928571D01*
X156454819Y-101928571D02*
X156454819Y-102166666D01*
X156454819Y-102166666D02*
X156407200Y-102261904D01*
X156407200Y-102261904D02*
X156359580Y-102309523D01*
X153359580Y-99642857D02*
X153407200Y-99690476D01*
X153407200Y-99690476D02*
X153454819Y-99833333D01*
X153454819Y-99833333D02*
X153454819Y-99928571D01*
X153454819Y-99928571D02*
X153407200Y-100071428D01*
X153407200Y-100071428D02*
X153311961Y-100166666D01*
X153311961Y-100166666D02*
X153216723Y-100214285D01*
X153216723Y-100214285D02*
X153026247Y-100261904D01*
X153026247Y-100261904D02*
X152883390Y-100261904D01*
X152883390Y-100261904D02*
X152692914Y-100214285D01*
X152692914Y-100214285D02*
X152597676Y-100166666D01*
X152597676Y-100166666D02*
X152502438Y-100071428D01*
X152502438Y-100071428D02*
X152454819Y-99928571D01*
X152454819Y-99928571D02*
X152454819Y-99833333D01*
X152454819Y-99833333D02*
X152502438Y-99690476D01*
X152502438Y-99690476D02*
X152550057Y-99642857D01*
X153454819Y-98690476D02*
X153454819Y-99261904D01*
X153454819Y-98976190D02*
X152454819Y-98976190D01*
X152454819Y-98976190D02*
X152597676Y-99071428D01*
X152597676Y-99071428D02*
X152692914Y-99166666D01*
X152692914Y-99166666D02*
X152740533Y-99261904D01*
X152788152Y-97833333D02*
X153454819Y-97833333D01*
X152407200Y-98071428D02*
X153121485Y-98309523D01*
X153121485Y-98309523D02*
X153121485Y-97690476D01*
X149357142Y-94859580D02*
X149309523Y-94907200D01*
X149309523Y-94907200D02*
X149166666Y-94954819D01*
X149166666Y-94954819D02*
X149071428Y-94954819D01*
X149071428Y-94954819D02*
X148928571Y-94907200D01*
X148928571Y-94907200D02*
X148833333Y-94811961D01*
X148833333Y-94811961D02*
X148785714Y-94716723D01*
X148785714Y-94716723D02*
X148738095Y-94526247D01*
X148738095Y-94526247D02*
X148738095Y-94383390D01*
X148738095Y-94383390D02*
X148785714Y-94192914D01*
X148785714Y-94192914D02*
X148833333Y-94097676D01*
X148833333Y-94097676D02*
X148928571Y-94002438D01*
X148928571Y-94002438D02*
X149071428Y-93954819D01*
X149071428Y-93954819D02*
X149166666Y-93954819D01*
X149166666Y-93954819D02*
X149309523Y-94002438D01*
X149309523Y-94002438D02*
X149357142Y-94050057D01*
X150309523Y-94954819D02*
X149738095Y-94954819D01*
X150023809Y-94954819D02*
X150023809Y-93954819D01*
X150023809Y-93954819D02*
X149928571Y-94097676D01*
X149928571Y-94097676D02*
X149833333Y-94192914D01*
X149833333Y-94192914D02*
X149738095Y-94240533D01*
X150642857Y-93954819D02*
X151261904Y-93954819D01*
X151261904Y-93954819D02*
X150928571Y-94335771D01*
X150928571Y-94335771D02*
X151071428Y-94335771D01*
X151071428Y-94335771D02*
X151166666Y-94383390D01*
X151166666Y-94383390D02*
X151214285Y-94431009D01*
X151214285Y-94431009D02*
X151261904Y-94526247D01*
X151261904Y-94526247D02*
X151261904Y-94764342D01*
X151261904Y-94764342D02*
X151214285Y-94859580D01*
X151214285Y-94859580D02*
X151166666Y-94907200D01*
X151166666Y-94907200D02*
X151071428Y-94954819D01*
X151071428Y-94954819D02*
X150785714Y-94954819D01*
X150785714Y-94954819D02*
X150690476Y-94907200D01*
X150690476Y-94907200D02*
X150642857Y-94859580D01*
X147359580Y-99642857D02*
X147407200Y-99690476D01*
X147407200Y-99690476D02*
X147454819Y-99833333D01*
X147454819Y-99833333D02*
X147454819Y-99928571D01*
X147454819Y-99928571D02*
X147407200Y-100071428D01*
X147407200Y-100071428D02*
X147311961Y-100166666D01*
X147311961Y-100166666D02*
X147216723Y-100214285D01*
X147216723Y-100214285D02*
X147026247Y-100261904D01*
X147026247Y-100261904D02*
X146883390Y-100261904D01*
X146883390Y-100261904D02*
X146692914Y-100214285D01*
X146692914Y-100214285D02*
X146597676Y-100166666D01*
X146597676Y-100166666D02*
X146502438Y-100071428D01*
X146502438Y-100071428D02*
X146454819Y-99928571D01*
X146454819Y-99928571D02*
X146454819Y-99833333D01*
X146454819Y-99833333D02*
X146502438Y-99690476D01*
X146502438Y-99690476D02*
X146550057Y-99642857D01*
X147454819Y-98690476D02*
X147454819Y-99261904D01*
X147454819Y-98976190D02*
X146454819Y-98976190D01*
X146454819Y-98976190D02*
X146597676Y-99071428D01*
X146597676Y-99071428D02*
X146692914Y-99166666D01*
X146692914Y-99166666D02*
X146740533Y-99261904D01*
X146550057Y-98309523D02*
X146502438Y-98261904D01*
X146502438Y-98261904D02*
X146454819Y-98166666D01*
X146454819Y-98166666D02*
X146454819Y-97928571D01*
X146454819Y-97928571D02*
X146502438Y-97833333D01*
X146502438Y-97833333D02*
X146550057Y-97785714D01*
X146550057Y-97785714D02*
X146645295Y-97738095D01*
X146645295Y-97738095D02*
X146740533Y-97738095D01*
X146740533Y-97738095D02*
X146883390Y-97785714D01*
X146883390Y-97785714D02*
X147454819Y-98357142D01*
X147454819Y-98357142D02*
X147454819Y-97738095D01*
X144359580Y-103642857D02*
X144407200Y-103690476D01*
X144407200Y-103690476D02*
X144454819Y-103833333D01*
X144454819Y-103833333D02*
X144454819Y-103928571D01*
X144454819Y-103928571D02*
X144407200Y-104071428D01*
X144407200Y-104071428D02*
X144311961Y-104166666D01*
X144311961Y-104166666D02*
X144216723Y-104214285D01*
X144216723Y-104214285D02*
X144026247Y-104261904D01*
X144026247Y-104261904D02*
X143883390Y-104261904D01*
X143883390Y-104261904D02*
X143692914Y-104214285D01*
X143692914Y-104214285D02*
X143597676Y-104166666D01*
X143597676Y-104166666D02*
X143502438Y-104071428D01*
X143502438Y-104071428D02*
X143454819Y-103928571D01*
X143454819Y-103928571D02*
X143454819Y-103833333D01*
X143454819Y-103833333D02*
X143502438Y-103690476D01*
X143502438Y-103690476D02*
X143550057Y-103642857D01*
X144454819Y-102690476D02*
X144454819Y-103261904D01*
X144454819Y-102976190D02*
X143454819Y-102976190D01*
X143454819Y-102976190D02*
X143597676Y-103071428D01*
X143597676Y-103071428D02*
X143692914Y-103166666D01*
X143692914Y-103166666D02*
X143740533Y-103261904D01*
X144454819Y-101738095D02*
X144454819Y-102309523D01*
X144454819Y-102023809D02*
X143454819Y-102023809D01*
X143454819Y-102023809D02*
X143597676Y-102119047D01*
X143597676Y-102119047D02*
X143692914Y-102214285D01*
X143692914Y-102214285D02*
X143740533Y-102309523D01*
X139359580Y-111642857D02*
X139407200Y-111690476D01*
X139407200Y-111690476D02*
X139454819Y-111833333D01*
X139454819Y-111833333D02*
X139454819Y-111928571D01*
X139454819Y-111928571D02*
X139407200Y-112071428D01*
X139407200Y-112071428D02*
X139311961Y-112166666D01*
X139311961Y-112166666D02*
X139216723Y-112214285D01*
X139216723Y-112214285D02*
X139026247Y-112261904D01*
X139026247Y-112261904D02*
X138883390Y-112261904D01*
X138883390Y-112261904D02*
X138692914Y-112214285D01*
X138692914Y-112214285D02*
X138597676Y-112166666D01*
X138597676Y-112166666D02*
X138502438Y-112071428D01*
X138502438Y-112071428D02*
X138454819Y-111928571D01*
X138454819Y-111928571D02*
X138454819Y-111833333D01*
X138454819Y-111833333D02*
X138502438Y-111690476D01*
X138502438Y-111690476D02*
X138550057Y-111642857D01*
X139454819Y-110690476D02*
X139454819Y-111261904D01*
X139454819Y-110976190D02*
X138454819Y-110976190D01*
X138454819Y-110976190D02*
X138597676Y-111071428D01*
X138597676Y-111071428D02*
X138692914Y-111166666D01*
X138692914Y-111166666D02*
X138740533Y-111261904D01*
X138454819Y-110071428D02*
X138454819Y-109976190D01*
X138454819Y-109976190D02*
X138502438Y-109880952D01*
X138502438Y-109880952D02*
X138550057Y-109833333D01*
X138550057Y-109833333D02*
X138645295Y-109785714D01*
X138645295Y-109785714D02*
X138835771Y-109738095D01*
X138835771Y-109738095D02*
X139073866Y-109738095D01*
X139073866Y-109738095D02*
X139264342Y-109785714D01*
X139264342Y-109785714D02*
X139359580Y-109833333D01*
X139359580Y-109833333D02*
X139407200Y-109880952D01*
X139407200Y-109880952D02*
X139454819Y-109976190D01*
X139454819Y-109976190D02*
X139454819Y-110071428D01*
X139454819Y-110071428D02*
X139407200Y-110166666D01*
X139407200Y-110166666D02*
X139359580Y-110214285D01*
X139359580Y-110214285D02*
X139264342Y-110261904D01*
X139264342Y-110261904D02*
X139073866Y-110309523D01*
X139073866Y-110309523D02*
X138835771Y-110309523D01*
X138835771Y-110309523D02*
X138645295Y-110261904D01*
X138645295Y-110261904D02*
X138550057Y-110214285D01*
X138550057Y-110214285D02*
X138502438Y-110166666D01*
X138502438Y-110166666D02*
X138454819Y-110071428D01*
X134359580Y-119166666D02*
X134407200Y-119214285D01*
X134407200Y-119214285D02*
X134454819Y-119357142D01*
X134454819Y-119357142D02*
X134454819Y-119452380D01*
X134454819Y-119452380D02*
X134407200Y-119595237D01*
X134407200Y-119595237D02*
X134311961Y-119690475D01*
X134311961Y-119690475D02*
X134216723Y-119738094D01*
X134216723Y-119738094D02*
X134026247Y-119785713D01*
X134026247Y-119785713D02*
X133883390Y-119785713D01*
X133883390Y-119785713D02*
X133692914Y-119738094D01*
X133692914Y-119738094D02*
X133597676Y-119690475D01*
X133597676Y-119690475D02*
X133502438Y-119595237D01*
X133502438Y-119595237D02*
X133454819Y-119452380D01*
X133454819Y-119452380D02*
X133454819Y-119357142D01*
X133454819Y-119357142D02*
X133502438Y-119214285D01*
X133502438Y-119214285D02*
X133550057Y-119166666D01*
X134454819Y-118690475D02*
X134454819Y-118499999D01*
X134454819Y-118499999D02*
X134407200Y-118404761D01*
X134407200Y-118404761D02*
X134359580Y-118357142D01*
X134359580Y-118357142D02*
X134216723Y-118261904D01*
X134216723Y-118261904D02*
X134026247Y-118214285D01*
X134026247Y-118214285D02*
X133645295Y-118214285D01*
X133645295Y-118214285D02*
X133550057Y-118261904D01*
X133550057Y-118261904D02*
X133502438Y-118309523D01*
X133502438Y-118309523D02*
X133454819Y-118404761D01*
X133454819Y-118404761D02*
X133454819Y-118595237D01*
X133454819Y-118595237D02*
X133502438Y-118690475D01*
X133502438Y-118690475D02*
X133550057Y-118738094D01*
X133550057Y-118738094D02*
X133645295Y-118785713D01*
X133645295Y-118785713D02*
X133883390Y-118785713D01*
X133883390Y-118785713D02*
X133978628Y-118738094D01*
X133978628Y-118738094D02*
X134026247Y-118690475D01*
X134026247Y-118690475D02*
X134073866Y-118595237D01*
X134073866Y-118595237D02*
X134073866Y-118404761D01*
X134073866Y-118404761D02*
X134026247Y-118309523D01*
X134026247Y-118309523D02*
X133978628Y-118261904D01*
X133978628Y-118261904D02*
X133883390Y-118214285D01*
X129359580Y-127166666D02*
X129407200Y-127214285D01*
X129407200Y-127214285D02*
X129454819Y-127357142D01*
X129454819Y-127357142D02*
X129454819Y-127452380D01*
X129454819Y-127452380D02*
X129407200Y-127595237D01*
X129407200Y-127595237D02*
X129311961Y-127690475D01*
X129311961Y-127690475D02*
X129216723Y-127738094D01*
X129216723Y-127738094D02*
X129026247Y-127785713D01*
X129026247Y-127785713D02*
X128883390Y-127785713D01*
X128883390Y-127785713D02*
X128692914Y-127738094D01*
X128692914Y-127738094D02*
X128597676Y-127690475D01*
X128597676Y-127690475D02*
X128502438Y-127595237D01*
X128502438Y-127595237D02*
X128454819Y-127452380D01*
X128454819Y-127452380D02*
X128454819Y-127357142D01*
X128454819Y-127357142D02*
X128502438Y-127214285D01*
X128502438Y-127214285D02*
X128550057Y-127166666D01*
X128883390Y-126595237D02*
X128835771Y-126690475D01*
X128835771Y-126690475D02*
X128788152Y-126738094D01*
X128788152Y-126738094D02*
X128692914Y-126785713D01*
X128692914Y-126785713D02*
X128645295Y-126785713D01*
X128645295Y-126785713D02*
X128550057Y-126738094D01*
X128550057Y-126738094D02*
X128502438Y-126690475D01*
X128502438Y-126690475D02*
X128454819Y-126595237D01*
X128454819Y-126595237D02*
X128454819Y-126404761D01*
X128454819Y-126404761D02*
X128502438Y-126309523D01*
X128502438Y-126309523D02*
X128550057Y-126261904D01*
X128550057Y-126261904D02*
X128645295Y-126214285D01*
X128645295Y-126214285D02*
X128692914Y-126214285D01*
X128692914Y-126214285D02*
X128788152Y-126261904D01*
X128788152Y-126261904D02*
X128835771Y-126309523D01*
X128835771Y-126309523D02*
X128883390Y-126404761D01*
X128883390Y-126404761D02*
X128883390Y-126595237D01*
X128883390Y-126595237D02*
X128931009Y-126690475D01*
X128931009Y-126690475D02*
X128978628Y-126738094D01*
X128978628Y-126738094D02*
X129073866Y-126785713D01*
X129073866Y-126785713D02*
X129264342Y-126785713D01*
X129264342Y-126785713D02*
X129359580Y-126738094D01*
X129359580Y-126738094D02*
X129407200Y-126690475D01*
X129407200Y-126690475D02*
X129454819Y-126595237D01*
X129454819Y-126595237D02*
X129454819Y-126404761D01*
X129454819Y-126404761D02*
X129407200Y-126309523D01*
X129407200Y-126309523D02*
X129359580Y-126261904D01*
X129359580Y-126261904D02*
X129264342Y-126214285D01*
X129264342Y-126214285D02*
X129073866Y-126214285D01*
X129073866Y-126214285D02*
X128978628Y-126261904D01*
X128978628Y-126261904D02*
X128931009Y-126309523D01*
X128931009Y-126309523D02*
X128883390Y-126404761D01*
X124359580Y-135166666D02*
X124407200Y-135214285D01*
X124407200Y-135214285D02*
X124454819Y-135357142D01*
X124454819Y-135357142D02*
X124454819Y-135452380D01*
X124454819Y-135452380D02*
X124407200Y-135595237D01*
X124407200Y-135595237D02*
X124311961Y-135690475D01*
X124311961Y-135690475D02*
X124216723Y-135738094D01*
X124216723Y-135738094D02*
X124026247Y-135785713D01*
X124026247Y-135785713D02*
X123883390Y-135785713D01*
X123883390Y-135785713D02*
X123692914Y-135738094D01*
X123692914Y-135738094D02*
X123597676Y-135690475D01*
X123597676Y-135690475D02*
X123502438Y-135595237D01*
X123502438Y-135595237D02*
X123454819Y-135452380D01*
X123454819Y-135452380D02*
X123454819Y-135357142D01*
X123454819Y-135357142D02*
X123502438Y-135214285D01*
X123502438Y-135214285D02*
X123550057Y-135166666D01*
X123454819Y-134833332D02*
X123454819Y-134166666D01*
X123454819Y-134166666D02*
X124454819Y-134595237D01*
X125833333Y-136859580D02*
X125785714Y-136907200D01*
X125785714Y-136907200D02*
X125642857Y-136954819D01*
X125642857Y-136954819D02*
X125547619Y-136954819D01*
X125547619Y-136954819D02*
X125404762Y-136907200D01*
X125404762Y-136907200D02*
X125309524Y-136811961D01*
X125309524Y-136811961D02*
X125261905Y-136716723D01*
X125261905Y-136716723D02*
X125214286Y-136526247D01*
X125214286Y-136526247D02*
X125214286Y-136383390D01*
X125214286Y-136383390D02*
X125261905Y-136192914D01*
X125261905Y-136192914D02*
X125309524Y-136097676D01*
X125309524Y-136097676D02*
X125404762Y-136002438D01*
X125404762Y-136002438D02*
X125547619Y-135954819D01*
X125547619Y-135954819D02*
X125642857Y-135954819D01*
X125642857Y-135954819D02*
X125785714Y-136002438D01*
X125785714Y-136002438D02*
X125833333Y-136050057D01*
X126690476Y-135954819D02*
X126500000Y-135954819D01*
X126500000Y-135954819D02*
X126404762Y-136002438D01*
X126404762Y-136002438D02*
X126357143Y-136050057D01*
X126357143Y-136050057D02*
X126261905Y-136192914D01*
X126261905Y-136192914D02*
X126214286Y-136383390D01*
X126214286Y-136383390D02*
X126214286Y-136764342D01*
X126214286Y-136764342D02*
X126261905Y-136859580D01*
X126261905Y-136859580D02*
X126309524Y-136907200D01*
X126309524Y-136907200D02*
X126404762Y-136954819D01*
X126404762Y-136954819D02*
X126595238Y-136954819D01*
X126595238Y-136954819D02*
X126690476Y-136907200D01*
X126690476Y-136907200D02*
X126738095Y-136859580D01*
X126738095Y-136859580D02*
X126785714Y-136764342D01*
X126785714Y-136764342D02*
X126785714Y-136526247D01*
X126785714Y-136526247D02*
X126738095Y-136431009D01*
X126738095Y-136431009D02*
X126690476Y-136383390D01*
X126690476Y-136383390D02*
X126595238Y-136335771D01*
X126595238Y-136335771D02*
X126404762Y-136335771D01*
X126404762Y-136335771D02*
X126309524Y-136383390D01*
X126309524Y-136383390D02*
X126261905Y-136431009D01*
X126261905Y-136431009D02*
X126214286Y-136526247D01*
X132333333Y-136859580D02*
X132285714Y-136907200D01*
X132285714Y-136907200D02*
X132142857Y-136954819D01*
X132142857Y-136954819D02*
X132047619Y-136954819D01*
X132047619Y-136954819D02*
X131904762Y-136907200D01*
X131904762Y-136907200D02*
X131809524Y-136811961D01*
X131809524Y-136811961D02*
X131761905Y-136716723D01*
X131761905Y-136716723D02*
X131714286Y-136526247D01*
X131714286Y-136526247D02*
X131714286Y-136383390D01*
X131714286Y-136383390D02*
X131761905Y-136192914D01*
X131761905Y-136192914D02*
X131809524Y-136097676D01*
X131809524Y-136097676D02*
X131904762Y-136002438D01*
X131904762Y-136002438D02*
X132047619Y-135954819D01*
X132047619Y-135954819D02*
X132142857Y-135954819D01*
X132142857Y-135954819D02*
X132285714Y-136002438D01*
X132285714Y-136002438D02*
X132333333Y-136050057D01*
X133238095Y-135954819D02*
X132761905Y-135954819D01*
X132761905Y-135954819D02*
X132714286Y-136431009D01*
X132714286Y-136431009D02*
X132761905Y-136383390D01*
X132761905Y-136383390D02*
X132857143Y-136335771D01*
X132857143Y-136335771D02*
X133095238Y-136335771D01*
X133095238Y-136335771D02*
X133190476Y-136383390D01*
X133190476Y-136383390D02*
X133238095Y-136431009D01*
X133238095Y-136431009D02*
X133285714Y-136526247D01*
X133285714Y-136526247D02*
X133285714Y-136764342D01*
X133285714Y-136764342D02*
X133238095Y-136859580D01*
X133238095Y-136859580D02*
X133190476Y-136907200D01*
X133190476Y-136907200D02*
X133095238Y-136954819D01*
X133095238Y-136954819D02*
X132857143Y-136954819D01*
X132857143Y-136954819D02*
X132761905Y-136907200D01*
X132761905Y-136907200D02*
X132714286Y-136859580D01*
X138833333Y-136859580D02*
X138785714Y-136907200D01*
X138785714Y-136907200D02*
X138642857Y-136954819D01*
X138642857Y-136954819D02*
X138547619Y-136954819D01*
X138547619Y-136954819D02*
X138404762Y-136907200D01*
X138404762Y-136907200D02*
X138309524Y-136811961D01*
X138309524Y-136811961D02*
X138261905Y-136716723D01*
X138261905Y-136716723D02*
X138214286Y-136526247D01*
X138214286Y-136526247D02*
X138214286Y-136383390D01*
X138214286Y-136383390D02*
X138261905Y-136192914D01*
X138261905Y-136192914D02*
X138309524Y-136097676D01*
X138309524Y-136097676D02*
X138404762Y-136002438D01*
X138404762Y-136002438D02*
X138547619Y-135954819D01*
X138547619Y-135954819D02*
X138642857Y-135954819D01*
X138642857Y-135954819D02*
X138785714Y-136002438D01*
X138785714Y-136002438D02*
X138833333Y-136050057D01*
X139690476Y-136288152D02*
X139690476Y-136954819D01*
X139452381Y-135907200D02*
X139214286Y-136621485D01*
X139214286Y-136621485D02*
X139833333Y-136621485D01*
X143859580Y-126166666D02*
X143907200Y-126214285D01*
X143907200Y-126214285D02*
X143954819Y-126357142D01*
X143954819Y-126357142D02*
X143954819Y-126452380D01*
X143954819Y-126452380D02*
X143907200Y-126595237D01*
X143907200Y-126595237D02*
X143811961Y-126690475D01*
X143811961Y-126690475D02*
X143716723Y-126738094D01*
X143716723Y-126738094D02*
X143526247Y-126785713D01*
X143526247Y-126785713D02*
X143383390Y-126785713D01*
X143383390Y-126785713D02*
X143192914Y-126738094D01*
X143192914Y-126738094D02*
X143097676Y-126690475D01*
X143097676Y-126690475D02*
X143002438Y-126595237D01*
X143002438Y-126595237D02*
X142954819Y-126452380D01*
X142954819Y-126452380D02*
X142954819Y-126357142D01*
X142954819Y-126357142D02*
X143002438Y-126214285D01*
X143002438Y-126214285D02*
X143050057Y-126166666D01*
X142954819Y-125833332D02*
X142954819Y-125214285D01*
X142954819Y-125214285D02*
X143335771Y-125547618D01*
X143335771Y-125547618D02*
X143335771Y-125404761D01*
X143335771Y-125404761D02*
X143383390Y-125309523D01*
X143383390Y-125309523D02*
X143431009Y-125261904D01*
X143431009Y-125261904D02*
X143526247Y-125214285D01*
X143526247Y-125214285D02*
X143764342Y-125214285D01*
X143764342Y-125214285D02*
X143859580Y-125261904D01*
X143859580Y-125261904D02*
X143907200Y-125309523D01*
X143907200Y-125309523D02*
X143954819Y-125404761D01*
X143954819Y-125404761D02*
X143954819Y-125690475D01*
X143954819Y-125690475D02*
X143907200Y-125785713D01*
X143907200Y-125785713D02*
X143859580Y-125833332D01*
X149833333Y-111859580D02*
X149785714Y-111907200D01*
X149785714Y-111907200D02*
X149642857Y-111954819D01*
X149642857Y-111954819D02*
X149547619Y-111954819D01*
X149547619Y-111954819D02*
X149404762Y-111907200D01*
X149404762Y-111907200D02*
X149309524Y-111811961D01*
X149309524Y-111811961D02*
X149261905Y-111716723D01*
X149261905Y-111716723D02*
X149214286Y-111526247D01*
X149214286Y-111526247D02*
X149214286Y-111383390D01*
X149214286Y-111383390D02*
X149261905Y-111192914D01*
X149261905Y-111192914D02*
X149309524Y-111097676D01*
X149309524Y-111097676D02*
X149404762Y-111002438D01*
X149404762Y-111002438D02*
X149547619Y-110954819D01*
X149547619Y-110954819D02*
X149642857Y-110954819D01*
X149642857Y-110954819D02*
X149785714Y-111002438D01*
X149785714Y-111002438D02*
X149833333Y-111050057D01*
X150214286Y-111050057D02*
X150261905Y-111002438D01*
X150261905Y-111002438D02*
X150357143Y-110954819D01*
X150357143Y-110954819D02*
X150595238Y-110954819D01*
X150595238Y-110954819D02*
X150690476Y-111002438D01*
X150690476Y-111002438D02*
X150738095Y-111050057D01*
X150738095Y-111050057D02*
X150785714Y-111145295D01*
X150785714Y-111145295D02*
X150785714Y-111240533D01*
X150785714Y-111240533D02*
X150738095Y-111383390D01*
X150738095Y-111383390D02*
X150166667Y-111954819D01*
X150166667Y-111954819D02*
X150785714Y-111954819D01*
X146833333Y-133359580D02*
X146785714Y-133407200D01*
X146785714Y-133407200D02*
X146642857Y-133454819D01*
X146642857Y-133454819D02*
X146547619Y-133454819D01*
X146547619Y-133454819D02*
X146404762Y-133407200D01*
X146404762Y-133407200D02*
X146309524Y-133311961D01*
X146309524Y-133311961D02*
X146261905Y-133216723D01*
X146261905Y-133216723D02*
X146214286Y-133026247D01*
X146214286Y-133026247D02*
X146214286Y-132883390D01*
X146214286Y-132883390D02*
X146261905Y-132692914D01*
X146261905Y-132692914D02*
X146309524Y-132597676D01*
X146309524Y-132597676D02*
X146404762Y-132502438D01*
X146404762Y-132502438D02*
X146547619Y-132454819D01*
X146547619Y-132454819D02*
X146642857Y-132454819D01*
X146642857Y-132454819D02*
X146785714Y-132502438D01*
X146785714Y-132502438D02*
X146833333Y-132550057D01*
X147785714Y-133454819D02*
X147214286Y-133454819D01*
X147500000Y-133454819D02*
X147500000Y-132454819D01*
X147500000Y-132454819D02*
X147404762Y-132597676D01*
X147404762Y-132597676D02*
X147309524Y-132692914D01*
X147309524Y-132692914D02*
X147214286Y-132740533D01*
D11*
%TO.C,VD5*%
X116700000Y-137650000D02*
X119990000Y-137650000D01*
X116700000Y-137650000D02*
X116010000Y-136990000D01*
X116010000Y-132350000D02*
X116010000Y-136990000D01*
X119990000Y-132350000D02*
X119990000Y-137650000D01*
X119990000Y-132350000D02*
X116010000Y-132350000D01*
%TO.C,C23*%
X149859420Y-112490000D02*
X150140580Y-112490000D01*
X149859420Y-113510000D02*
X150140580Y-113510000D01*
%TO.C,VD20*%
X157350000Y-140510000D02*
X157350000Y-144490000D01*
X157350000Y-140510000D02*
X162650000Y-140510000D01*
X157350000Y-144490000D02*
X161990000Y-144490000D01*
X162650000Y-143800000D02*
X161990000Y-144490000D01*
X162650000Y-143800000D02*
X162650000Y-140510000D01*
%TO.C,C22*%
X159859420Y-137990000D02*
X160140580Y-137990000D01*
X159859420Y-139010000D02*
X160140580Y-139010000D01*
%TO.C,XP2*%
X154110000Y-128890000D02*
X154110000Y-130000000D01*
X153000000Y-128890000D02*
X154110000Y-128890000D01*
X152000000Y-128890000D02*
X145890000Y-128890000D01*
X152000000Y-128890000D02*
X152000000Y-131110000D01*
X145890000Y-128890000D02*
X145890000Y-131110000D01*
X152000000Y-131110000D02*
X145890000Y-131110000D01*
%TO.C,XP1*%
X154100000Y-145275000D02*
X154100000Y-144025000D01*
X153810000Y-144985000D02*
X153810000Y-139015000D01*
X153810000Y-139015000D02*
X146190000Y-139015000D01*
X153800000Y-144975000D02*
X153800000Y-144225000D01*
X153800000Y-144225000D02*
X152000000Y-144225000D01*
X153800000Y-142725000D02*
X153050000Y-142725000D01*
X153050000Y-142725000D02*
X153050000Y-139775000D01*
X153050000Y-139775000D02*
X150000000Y-139775000D01*
X152850000Y-145275000D02*
X154100000Y-145275000D01*
X152000000Y-144975000D02*
X153800000Y-144975000D01*
X152000000Y-144225000D02*
X152000000Y-144975000D01*
X150500000Y-144975000D02*
X150500000Y-144225000D01*
X150500000Y-144225000D02*
X149500000Y-144225000D01*
X149500000Y-144975000D02*
X150500000Y-144975000D01*
X149500000Y-144225000D02*
X149500000Y-144975000D01*
X148000000Y-144975000D02*
X148000000Y-144225000D01*
X148000000Y-144225000D02*
X146200000Y-144225000D01*
X146950000Y-142725000D02*
X146950000Y-139775000D01*
X146950000Y-139775000D02*
X150000000Y-139775000D01*
X146200000Y-144975000D02*
X148000000Y-144975000D01*
X146200000Y-144225000D02*
X146200000Y-144975000D01*
X146200000Y-142725000D02*
X146950000Y-142725000D01*
X146190000Y-144985000D02*
X153810000Y-144985000D01*
X146190000Y-139015000D02*
X146190000Y-144985000D01*
%TO.C,VD19*%
X164850000Y-140510000D02*
X164850000Y-144490000D01*
X164850000Y-140510000D02*
X170150000Y-140510000D01*
X164850000Y-144490000D02*
X169490000Y-144490000D01*
X170150000Y-143800000D02*
X169490000Y-144490000D01*
X170150000Y-143800000D02*
X170150000Y-140510000D01*
%TO.C,VD18*%
X172350000Y-140510000D02*
X172350000Y-144490000D01*
X172350000Y-140510000D02*
X177650000Y-140510000D01*
X172350000Y-144490000D02*
X176990000Y-144490000D01*
X177650000Y-143800000D02*
X176990000Y-144490000D01*
X177650000Y-143800000D02*
X177650000Y-140510000D01*
%TO.C,VD17*%
X180010000Y-137650000D02*
X183990000Y-137650000D01*
X180010000Y-137650000D02*
X180010000Y-132350000D01*
X183990000Y-137650000D02*
X183990000Y-133010000D01*
X183300000Y-132350000D02*
X183990000Y-133010000D01*
X183300000Y-132350000D02*
X180010000Y-132350000D01*
%TO.C,VD16*%
X175010000Y-129650000D02*
X178990000Y-129650000D01*
X175010000Y-129650000D02*
X175010000Y-124350000D01*
X178990000Y-129650000D02*
X178990000Y-125010000D01*
X178300000Y-124350000D02*
X178990000Y-125010000D01*
X178300000Y-124350000D02*
X175010000Y-124350000D01*
%TO.C,VD15*%
X170010000Y-121650000D02*
X173990000Y-121650000D01*
X170010000Y-121650000D02*
X170010000Y-116350000D01*
X173990000Y-121650000D02*
X173990000Y-117010000D01*
X173300000Y-116350000D02*
X173990000Y-117010000D01*
X173300000Y-116350000D02*
X170010000Y-116350000D01*
%TO.C,VD14*%
X165010000Y-113650000D02*
X168990000Y-113650000D01*
X165010000Y-113650000D02*
X165010000Y-108350000D01*
X168990000Y-113650000D02*
X168990000Y-109010000D01*
X168300000Y-108350000D02*
X168990000Y-109010000D01*
X168300000Y-108350000D02*
X165010000Y-108350000D01*
%TO.C,VD13*%
X160010000Y-105650000D02*
X163990000Y-105650000D01*
X160010000Y-105650000D02*
X160010000Y-100350000D01*
X163990000Y-105650000D02*
X163990000Y-101010000D01*
X163300000Y-100350000D02*
X163990000Y-101010000D01*
X163300000Y-100350000D02*
X160010000Y-100350000D01*
%TO.C,VD12*%
X155010000Y-97650000D02*
X158990000Y-97650000D01*
X155010000Y-97650000D02*
X155010000Y-92350000D01*
X158990000Y-97650000D02*
X158990000Y-93010000D01*
X158300000Y-92350000D02*
X158990000Y-93010000D01*
X158300000Y-92350000D02*
X155010000Y-92350000D01*
%TO.C,VD11*%
X152650000Y-88990000D02*
X152650000Y-85010000D01*
X152650000Y-88990000D02*
X147350000Y-88990000D01*
X152650000Y-85010000D02*
X148010000Y-85010000D01*
X147350000Y-85700000D02*
X148010000Y-85010000D01*
X147350000Y-85700000D02*
X147350000Y-88990000D01*
%TO.C,VD10*%
X144990000Y-92350000D02*
X141010000Y-92350000D01*
X144990000Y-92350000D02*
X144990000Y-97650000D01*
X141010000Y-92350000D02*
X141010000Y-96990000D01*
X141700000Y-97650000D02*
X141010000Y-96990000D01*
X141700000Y-97650000D02*
X144990000Y-97650000D01*
%TO.C,VD9*%
X139990000Y-100350000D02*
X136010000Y-100350000D01*
X139990000Y-100350000D02*
X139990000Y-105650000D01*
X136010000Y-100350000D02*
X136010000Y-104990000D01*
X136700000Y-105650000D02*
X136010000Y-104990000D01*
X136700000Y-105650000D02*
X139990000Y-105650000D01*
%TO.C,VD8*%
X134990000Y-108350000D02*
X131010000Y-108350000D01*
X134990000Y-108350000D02*
X134990000Y-113650000D01*
X131010000Y-108350000D02*
X131010000Y-112990000D01*
X131700000Y-113650000D02*
X131010000Y-112990000D01*
X131700000Y-113650000D02*
X134990000Y-113650000D01*
%TO.C,VD7*%
X129990000Y-116350000D02*
X126010000Y-116350000D01*
X129990000Y-116350000D02*
X129990000Y-121650000D01*
X126010000Y-116350000D02*
X126010000Y-120990000D01*
X126700000Y-121650000D02*
X126010000Y-120990000D01*
X126700000Y-121650000D02*
X129990000Y-121650000D01*
%TO.C,VD6*%
X124990000Y-124350000D02*
X121010000Y-124350000D01*
X124990000Y-124350000D02*
X124990000Y-129650000D01*
X121010000Y-124350000D02*
X121010000Y-128990000D01*
X121700000Y-129650000D02*
X121010000Y-128990000D01*
X121700000Y-129650000D02*
X124990000Y-129650000D01*
%TO.C,VD4*%
X122350000Y-140510000D02*
X122350000Y-144490000D01*
X122350000Y-140510000D02*
X127650000Y-140510000D01*
X122350000Y-144490000D02*
X126990000Y-144490000D01*
X127650000Y-143800000D02*
X126990000Y-144490000D01*
X127650000Y-143800000D02*
X127650000Y-140510000D01*
%TO.C,VD3*%
X129850000Y-140510000D02*
X129850000Y-144490000D01*
X129850000Y-140510000D02*
X135150000Y-140510000D01*
X129850000Y-144490000D02*
X134490000Y-144490000D01*
X135150000Y-143800000D02*
X134490000Y-144490000D01*
X135150000Y-143800000D02*
X135150000Y-140510000D01*
%TO.C,VD2*%
X137350000Y-140510000D02*
X137350000Y-144490000D01*
X137350000Y-140510000D02*
X142650000Y-140510000D01*
X137350000Y-144490000D02*
X141990000Y-144490000D01*
X142650000Y-143800000D02*
X141990000Y-144490000D01*
X142650000Y-143800000D02*
X142650000Y-140510000D01*
%TO.C,VD1*%
X152660000Y-137110000D02*
X152660000Y-134890000D01*
X152660000Y-134890000D02*
X148250000Y-134890000D01*
X148250000Y-137110000D02*
X152660000Y-137110000D01*
%TO.C,R4*%
X145522500Y-125762742D02*
X145522500Y-126237258D01*
X144477500Y-125762742D02*
X144477500Y-126237258D01*
%TO.C,R3*%
X147522500Y-125762742D02*
X147522500Y-126237258D01*
X146477500Y-125762742D02*
X146477500Y-126237258D01*
%TO.C,R2*%
X153522500Y-125762742D02*
X153522500Y-126237258D01*
X152477500Y-125762742D02*
X152477500Y-126237258D01*
%TO.C,R1*%
X150477500Y-126237258D02*
X150477500Y-125762742D01*
X151522500Y-126237258D02*
X151522500Y-125762742D01*
%TO.C,DD1*%
X152310000Y-123385000D02*
X147690000Y-123385000D01*
X147690000Y-116615000D02*
X152310000Y-116615000D01*
X154190000Y-123170000D02*
X153860000Y-122930000D01*
X154190000Y-122690000D01*
X154190000Y-123170000D01*
G36*
X154190000Y-123170000D02*
G01*
X153860000Y-122930000D01*
X154190000Y-122690000D01*
X154190000Y-123170000D01*
G37*
%TO.C,C21*%
X167359420Y-137990000D02*
X167640580Y-137990000D01*
X167359420Y-139010000D02*
X167640580Y-139010000D01*
%TO.C,C20*%
X174859420Y-137990000D02*
X175140580Y-137990000D01*
X174859420Y-139010000D02*
X175140580Y-139010000D01*
%TO.C,C19*%
X177490000Y-135140580D02*
X177490000Y-134859420D01*
X178510000Y-135140580D02*
X178510000Y-134859420D01*
%TO.C,C18*%
X172490000Y-127140580D02*
X172490000Y-126859420D01*
X173510000Y-127140580D02*
X173510000Y-126859420D01*
%TO.C,C17*%
X167490000Y-119140580D02*
X167490000Y-118859420D01*
X168510000Y-119140580D02*
X168510000Y-118859420D01*
%TO.C,C16*%
X162490000Y-111140580D02*
X162490000Y-110859420D01*
X163510000Y-111140580D02*
X163510000Y-110859420D01*
%TO.C,C15*%
X157490000Y-103140580D02*
X157490000Y-102859420D01*
X158510000Y-103140580D02*
X158510000Y-102859420D01*
%TO.C,C14*%
X152490000Y-95140580D02*
X152490000Y-94859420D01*
X153510000Y-95140580D02*
X153510000Y-94859420D01*
%TO.C,C13*%
X150140580Y-91510000D02*
X149859420Y-91510000D01*
X150140580Y-90490000D02*
X149859420Y-90490000D01*
%TO.C,C12*%
X147510000Y-94859420D02*
X147510000Y-95140580D01*
X146490000Y-94859420D02*
X146490000Y-95140580D01*
%TO.C,C11*%
X142510000Y-102859420D02*
X142510000Y-103140580D01*
X141490000Y-102859420D02*
X141490000Y-103140580D01*
%TO.C,C10*%
X137510000Y-110859420D02*
X137510000Y-111140580D01*
X136490000Y-110859420D02*
X136490000Y-111140580D01*
%TO.C,C9*%
X132510000Y-118859420D02*
X132510000Y-119140580D01*
X131490000Y-118859420D02*
X131490000Y-119140580D01*
%TO.C,C8*%
X127510000Y-126859420D02*
X127510000Y-127140580D01*
X126490000Y-126859420D02*
X126490000Y-127140580D01*
%TO.C,C7*%
X122510000Y-134859420D02*
X122510000Y-135140580D01*
X121490000Y-134859420D02*
X121490000Y-135140580D01*
%TO.C,C6*%
X124859420Y-137990000D02*
X125140580Y-137990000D01*
X124859420Y-139010000D02*
X125140580Y-139010000D01*
%TO.C,C5*%
X132359420Y-137990000D02*
X132640580Y-137990000D01*
X132359420Y-139010000D02*
X132640580Y-139010000D01*
%TO.C,C4*%
X139859420Y-137990000D02*
X140140580Y-137990000D01*
X139859420Y-139010000D02*
X140140580Y-139010000D01*
%TO.C,C3*%
X148490000Y-126140580D02*
X148490000Y-125859420D01*
X149510000Y-126140580D02*
X149510000Y-125859420D01*
%TO.C,C2*%
X149859420Y-114490000D02*
X150140580Y-114490000D01*
X149859420Y-115510000D02*
X150140580Y-115510000D01*
%TO.C,C1*%
X149859420Y-132490000D02*
X150140580Y-132490000D01*
X149859420Y-133510000D02*
X150140580Y-133510000D01*
%TD*%
M02*
