%TF.GenerationSoftware,KiCad,Pcbnew,9.0.5*%
%TF.CreationDate,2025-11-17T06:01:47+03:00*%
%TF.ProjectId,CHRISTMAS_RISC_V,43485249-5354-44d4-9153-5f524953435f,rev?*%
%TF.SameCoordinates,Original*%
%TF.FileFunction,Copper,L2,Bot*%
%TF.FilePolarity,Positive*%
%FSLAX46Y46*%
G04 Gerber Fmt 4.6, Leading zero omitted, Abs format (unit mm)*
G04 Created by KiCad (PCBNEW 9.0.5) date 2025-11-17 06:01:47*
%MOMM*%
%LPD*%
G01*
G04 APERTURE LIST*
G04 Aperture macros list*
%AMRoundRect*
0 Rectangle with rounded corners*
0 $1 Rounding radius*
0 $2 $3 $4 $5 $6 $7 $8 $9 X,Y pos of 4 corners*
0 Add a 4 corners polygon primitive as box body*
4,1,4,$2,$3,$4,$5,$6,$7,$8,$9,$2,$3,0*
0 Add four circle primitives for the rounded corners*
1,1,$1+$1,$2,$3*
1,1,$1+$1,$4,$5*
1,1,$1+$1,$6,$7*
1,1,$1+$1,$8,$9*
0 Add four rect primitives between the rounded corners*
20,1,$1+$1,$2,$3,$4,$5,0*
20,1,$1+$1,$4,$5,$6,$7,0*
20,1,$1+$1,$6,$7,$8,$9,0*
20,1,$1+$1,$8,$9,$2,$3,0*%
G04 Aperture macros list end*
%TA.AperFunction,ComponentPad*%
%ADD10C,3.800000*%
%TD*%
%TA.AperFunction,ComponentPad*%
%ADD11R,1.350000X1.350000*%
%TD*%
%TA.AperFunction,ComponentPad*%
%ADD12C,1.350000*%
%TD*%
%TA.AperFunction,ComponentPad*%
%ADD13RoundRect,0.250000X0.600000X0.750000X-0.600000X0.750000X-0.600000X-0.750000X0.600000X-0.750000X0*%
%TD*%
%TA.AperFunction,ComponentPad*%
%ADD14O,1.700000X2.000000*%
%TD*%
%TA.AperFunction,ViaPad*%
%ADD15C,0.600000*%
%TD*%
%TA.AperFunction,Conductor*%
%ADD16C,1.000000*%
%TD*%
G04 APERTURE END LIST*
D10*
%TO.P,HOLE1,1,1*%
%TO.N,unconnected-(HOLE1-Pad1)*%
X150000000Y-81000000D03*
%TD*%
D11*
%TO.P,XP2,1,1*%
%TO.N,/RST_EXT*%
X153000000Y-130000000D03*
D12*
%TO.P,XP2,2,2*%
%TO.N,VCC5V0*%
X151000000Y-130000000D03*
%TO.P,XP2,3,3*%
%TO.N,GND*%
X149000000Y-130000000D03*
%TO.P,XP2,4,4*%
%TO.N,/SWIO_EXT*%
X147000000Y-130000000D03*
%TD*%
D13*
%TO.P,XP1,1,1*%
%TO.N,VCC5V0*%
X151250000Y-142525000D03*
D14*
%TO.P,XP1,2,2*%
%TO.N,GND*%
X148750000Y-142525000D03*
%TD*%
D15*
%TO.N,GND*%
X127000000Y-129000000D03*
X132000000Y-121000000D03*
X137000000Y-113000000D03*
X142000000Y-105000000D03*
X148000000Y-91000000D03*
X147000000Y-97000000D03*
X153000000Y-93000000D03*
X158000000Y-101000000D03*
X163000000Y-109000000D03*
X168000000Y-117000000D03*
X173000000Y-125000000D03*
X178000000Y-133000000D03*
X122000000Y-137000000D03*
X177000000Y-138500000D03*
X169500000Y-138500000D03*
X162000000Y-138500000D03*
X127000000Y-138500000D03*
X134500000Y-138500000D03*
X142000000Y-138500000D03*
X117000000Y-135000000D03*
%TO.N,VCC5V0*%
X141500000Y-136000000D03*
X143500000Y-136000000D03*
X142500000Y-136000000D03*
X158500000Y-136000000D03*
X157500000Y-136000000D03*
X156500000Y-136000000D03*
%TO.N,GND*%
X178000000Y-127000000D03*
X173000000Y-119000000D03*
X168000000Y-111000000D03*
X163000000Y-103000000D03*
X158000000Y-95000000D03*
X150000000Y-86000000D03*
X142000000Y-95000000D03*
X137000000Y-103000000D03*
X132000000Y-111000000D03*
X127000000Y-119000000D03*
X122000000Y-127000000D03*
X183000000Y-135000000D03*
X175000000Y-143500000D03*
X167500000Y-143500000D03*
X160000000Y-143500000D03*
X125000000Y-143500000D03*
X132500000Y-143500000D03*
X140000000Y-143500000D03*
X151000000Y-119000000D03*
X150000000Y-119000000D03*
X148000000Y-115000000D03*
X148000000Y-113000000D03*
%TD*%
D16*
%TO.N,VCC5V0*%
X142500000Y-136000000D02*
X141500000Y-136000000D01*
X156500000Y-136000000D02*
X142500000Y-136000000D01*
X157500000Y-136000000D02*
X156500000Y-136000000D01*
X158500000Y-136000000D02*
X157500000Y-136000000D01*
%TD*%
%TA.AperFunction,Conductor*%
%TO.N,GND*%
G36*
X153951494Y-84519685D02*
G01*
X153988383Y-84556362D01*
X192690519Y-144025498D01*
X194826987Y-147308363D01*
X194847056Y-147375289D01*
X194827756Y-147442440D01*
X194775215Y-147488497D01*
X194723058Y-147500000D01*
X105180348Y-147500000D01*
X105113309Y-147480315D01*
X105067554Y-147427511D01*
X105057610Y-147358353D01*
X105076419Y-147308363D01*
X108104147Y-142656001D01*
X108356166Y-142268753D01*
X147400000Y-142268753D01*
X147400000Y-142275000D01*
X148316988Y-142275000D01*
X148284075Y-142332007D01*
X148250000Y-142459174D01*
X148250000Y-142590826D01*
X148284075Y-142717993D01*
X148316988Y-142775000D01*
X147400000Y-142775000D01*
X147400000Y-142781246D01*
X147433242Y-142991127D01*
X147433242Y-142991130D01*
X147498904Y-143193217D01*
X147595379Y-143382557D01*
X147720272Y-143554459D01*
X147720276Y-143554464D01*
X147870535Y-143704723D01*
X147870540Y-143704727D01*
X148042442Y-143829620D01*
X148231782Y-143926095D01*
X148433871Y-143991757D01*
X148500000Y-144002231D01*
X148500000Y-142958012D01*
X148557007Y-142990925D01*
X148684174Y-143025000D01*
X148815826Y-143025000D01*
X148942993Y-142990925D01*
X149000000Y-142958012D01*
X149000000Y-144002230D01*
X149066126Y-143991757D01*
X149066129Y-143991757D01*
X149268217Y-143926095D01*
X149457557Y-143829620D01*
X149629458Y-143704728D01*
X149768330Y-143565856D01*
X149829653Y-143532371D01*
X149899345Y-143537355D01*
X149955279Y-143579226D01*
X149961551Y-143588440D01*
X149965185Y-143594331D01*
X149965186Y-143594334D01*
X150057288Y-143743656D01*
X150181344Y-143867712D01*
X150330666Y-143959814D01*
X150497203Y-144014999D01*
X150599991Y-144025500D01*
X151900008Y-144025499D01*
X152002797Y-144014999D01*
X152169334Y-143959814D01*
X152318656Y-143867712D01*
X152442712Y-143743656D01*
X152534814Y-143594334D01*
X152589999Y-143427797D01*
X152600500Y-143325009D01*
X152600499Y-141724992D01*
X152589999Y-141622203D01*
X152534814Y-141455666D01*
X152442712Y-141306344D01*
X152318656Y-141182288D01*
X152169334Y-141090186D01*
X152002797Y-141035001D01*
X152002795Y-141035000D01*
X151900010Y-141024500D01*
X150599998Y-141024500D01*
X150599981Y-141024501D01*
X150497203Y-141035000D01*
X150497200Y-141035001D01*
X150330668Y-141090185D01*
X150330663Y-141090187D01*
X150181342Y-141182289D01*
X150057289Y-141306342D01*
X149961551Y-141461559D01*
X149909603Y-141508283D01*
X149840640Y-141519506D01*
X149776558Y-141491662D01*
X149768331Y-141484143D01*
X149629464Y-141345276D01*
X149629459Y-141345272D01*
X149457557Y-141220379D01*
X149268215Y-141123903D01*
X149066124Y-141058241D01*
X149000000Y-141047768D01*
X149000000Y-142091988D01*
X148942993Y-142059075D01*
X148815826Y-142025000D01*
X148684174Y-142025000D01*
X148557007Y-142059075D01*
X148500000Y-142091988D01*
X148500000Y-141047768D01*
X148499999Y-141047768D01*
X148433875Y-141058241D01*
X148231784Y-141123903D01*
X148042442Y-141220379D01*
X147870540Y-141345272D01*
X147870535Y-141345276D01*
X147720276Y-141495535D01*
X147720272Y-141495540D01*
X147595379Y-141667442D01*
X147498904Y-141856782D01*
X147433242Y-142058869D01*
X147433242Y-142058872D01*
X147400000Y-142268753D01*
X108356166Y-142268753D01*
X108403354Y-142196244D01*
X111809733Y-136962052D01*
X112371699Y-136098543D01*
X140499499Y-136098543D01*
X140537947Y-136291829D01*
X140537950Y-136291839D01*
X140613364Y-136473907D01*
X140613371Y-136473920D01*
X140722860Y-136637781D01*
X140722863Y-136637785D01*
X140862214Y-136777136D01*
X140862218Y-136777139D01*
X141026079Y-136886628D01*
X141026092Y-136886635D01*
X141208160Y-136962049D01*
X141208165Y-136962051D01*
X141208169Y-136962051D01*
X141208170Y-136962052D01*
X141401456Y-137000500D01*
X141401459Y-137000500D01*
X158598543Y-137000500D01*
X158728582Y-136974632D01*
X158791835Y-136962051D01*
X158973914Y-136886632D01*
X159137782Y-136777139D01*
X159277139Y-136637782D01*
X159386632Y-136473914D01*
X159462051Y-136291835D01*
X159500500Y-136098541D01*
X159500500Y-135901459D01*
X159500500Y-135901456D01*
X159462052Y-135708170D01*
X159462051Y-135708169D01*
X159462051Y-135708165D01*
X159462049Y-135708160D01*
X159386635Y-135526092D01*
X159386628Y-135526079D01*
X159277139Y-135362218D01*
X159277136Y-135362214D01*
X159137785Y-135222863D01*
X159137781Y-135222860D01*
X158973920Y-135113371D01*
X158973907Y-135113364D01*
X158791839Y-135037950D01*
X158791829Y-135037947D01*
X158598543Y-134999500D01*
X158598541Y-134999500D01*
X157598541Y-134999500D01*
X156598541Y-134999500D01*
X142598541Y-134999500D01*
X141401459Y-134999500D01*
X141401457Y-134999500D01*
X141208170Y-135037947D01*
X141208160Y-135037950D01*
X141026092Y-135113364D01*
X141026079Y-135113371D01*
X140862218Y-135222860D01*
X140862214Y-135222863D01*
X140722863Y-135362214D01*
X140722860Y-135362218D01*
X140613371Y-135526079D01*
X140613364Y-135526092D01*
X140537950Y-135708160D01*
X140537947Y-135708170D01*
X140499500Y-135901456D01*
X140499500Y-135901459D01*
X140499500Y-136098541D01*
X140499500Y-136098543D01*
X140499499Y-136098543D01*
X112371699Y-136098543D01*
X115594422Y-131146554D01*
X116400800Y-129907486D01*
X145824500Y-129907486D01*
X145824500Y-130092513D01*
X145853445Y-130275265D01*
X145910619Y-130451232D01*
X145910620Y-130451235D01*
X145994622Y-130616096D01*
X146103379Y-130765787D01*
X146234213Y-130896621D01*
X146383904Y-131005378D01*
X146437224Y-131032546D01*
X146548764Y-131089379D01*
X146548767Y-131089380D01*
X146636750Y-131117967D01*
X146724736Y-131146555D01*
X146907486Y-131175500D01*
X146907487Y-131175500D01*
X147092513Y-131175500D01*
X147092514Y-131175500D01*
X147275264Y-131146555D01*
X147451235Y-131089379D01*
X147616096Y-131005378D01*
X147765787Y-130896621D01*
X147896621Y-130765787D01*
X147954112Y-130686656D01*
X147957774Y-130682466D01*
X147974867Y-130671579D01*
X148600000Y-130046446D01*
X148600000Y-130052661D01*
X148627259Y-130154394D01*
X148679920Y-130245606D01*
X148754394Y-130320080D01*
X148845606Y-130372741D01*
X148947339Y-130400000D01*
X148953553Y-130400000D01*
X148363568Y-130989983D01*
X148363568Y-130989984D01*
X148384165Y-131004949D01*
X148548956Y-131088915D01*
X148548959Y-131088916D01*
X148724852Y-131146066D01*
X148907527Y-131175000D01*
X149092473Y-131175000D01*
X149275147Y-131146066D01*
X149451040Y-131088916D01*
X149451043Y-131088915D01*
X149615836Y-131004947D01*
X149615845Y-131004942D01*
X149636430Y-130989984D01*
X149636431Y-130989983D01*
X149046448Y-130400000D01*
X149052661Y-130400000D01*
X149154394Y-130372741D01*
X149245606Y-130320080D01*
X149320080Y-130245606D01*
X149372741Y-130154394D01*
X149400000Y-130052661D01*
X149400000Y-130046447D01*
X150014238Y-130660686D01*
X150049162Y-130691165D01*
X150072207Y-130722883D01*
X150103379Y-130765787D01*
X150234213Y-130896621D01*
X150383904Y-131005378D01*
X150437224Y-131032546D01*
X150548764Y-131089379D01*
X150548767Y-131089380D01*
X150636750Y-131117967D01*
X150724736Y-131146555D01*
X150907486Y-131175500D01*
X150907487Y-131175500D01*
X151092513Y-131175500D01*
X151092514Y-131175500D01*
X151275264Y-131146555D01*
X151451235Y-131089379D01*
X151616096Y-131005378D01*
X151731608Y-130921453D01*
X151797412Y-130897974D01*
X151865466Y-130913799D01*
X151903758Y-130947460D01*
X151967455Y-131032547D01*
X152082664Y-131118793D01*
X152082671Y-131118797D01*
X152217517Y-131169091D01*
X152217516Y-131169091D01*
X152224444Y-131169835D01*
X152277127Y-131175500D01*
X153722872Y-131175499D01*
X153782483Y-131169091D01*
X153917331Y-131118796D01*
X154032546Y-131032546D01*
X154118796Y-130917331D01*
X154169091Y-130782483D01*
X154175500Y-130722873D01*
X154175499Y-129277128D01*
X154169091Y-129217517D01*
X154155775Y-129181816D01*
X154118797Y-129082671D01*
X154118793Y-129082664D01*
X154032547Y-128967455D01*
X154032544Y-128967452D01*
X153917335Y-128881206D01*
X153917328Y-128881202D01*
X153782482Y-128830908D01*
X153782483Y-128830908D01*
X153722883Y-128824501D01*
X153722881Y-128824500D01*
X153722873Y-128824500D01*
X153722864Y-128824500D01*
X152277129Y-128824500D01*
X152277123Y-128824501D01*
X152217516Y-128830908D01*
X152082671Y-128881202D01*
X152082664Y-128881206D01*
X151967455Y-128967452D01*
X151903758Y-129052539D01*
X151847823Y-129094410D01*
X151778132Y-129099393D01*
X151731607Y-129078545D01*
X151616099Y-128994624D01*
X151616098Y-128994623D01*
X151616096Y-128994622D01*
X151562772Y-128967452D01*
X151451235Y-128910620D01*
X151451232Y-128910619D01*
X151275265Y-128853445D01*
X151132972Y-128830908D01*
X151092514Y-128824500D01*
X150907486Y-128824500D01*
X150867028Y-128830908D01*
X150724734Y-128853445D01*
X150548767Y-128910619D01*
X150548764Y-128910620D01*
X150383903Y-128994622D01*
X150304188Y-129052539D01*
X150234213Y-129103379D01*
X150234211Y-129103381D01*
X150234210Y-129103381D01*
X150103378Y-129234213D01*
X150049163Y-129308833D01*
X150029745Y-129323805D01*
X149400000Y-129953551D01*
X149400000Y-129947339D01*
X149372741Y-129845606D01*
X149320080Y-129754394D01*
X149245606Y-129679920D01*
X149154394Y-129627259D01*
X149052661Y-129600000D01*
X149046447Y-129600000D01*
X149636431Y-129010016D01*
X149636430Y-129010015D01*
X149615834Y-128995050D01*
X149451043Y-128911084D01*
X149451040Y-128911083D01*
X149275147Y-128853933D01*
X149092473Y-128825000D01*
X148907527Y-128825000D01*
X148724852Y-128853933D01*
X148548959Y-128911083D01*
X148548956Y-128911084D01*
X148384167Y-128995049D01*
X148363568Y-129010015D01*
X148953554Y-129600000D01*
X148947339Y-129600000D01*
X148845606Y-129627259D01*
X148754394Y-129679920D01*
X148679920Y-129754394D01*
X148627259Y-129845606D01*
X148600000Y-129947339D01*
X148600000Y-129953552D01*
X147988310Y-129341862D01*
X147987844Y-129341491D01*
X147984541Y-129340536D01*
X147972885Y-129329573D01*
X147957773Y-129317532D01*
X147954109Y-129313338D01*
X147896621Y-129234213D01*
X147765787Y-129103379D01*
X147616096Y-128994622D01*
X147562778Y-128967455D01*
X147451235Y-128910620D01*
X147451232Y-128910619D01*
X147275265Y-128853445D01*
X147132972Y-128830908D01*
X147092514Y-128824500D01*
X146907486Y-128824500D01*
X146867028Y-128830908D01*
X146724734Y-128853445D01*
X146548767Y-128910619D01*
X146548764Y-128910620D01*
X146383903Y-128994622D01*
X146304188Y-129052539D01*
X146234213Y-129103379D01*
X146234211Y-129103381D01*
X146234210Y-129103381D01*
X146103381Y-129234210D01*
X146103381Y-129234211D01*
X146103379Y-129234213D01*
X146072199Y-129277129D01*
X145994622Y-129383903D01*
X145910620Y-129548764D01*
X145910619Y-129548767D01*
X145853445Y-129724734D01*
X145824500Y-129907486D01*
X116400800Y-129907486D01*
X116447988Y-129834977D01*
X145915022Y-84556363D01*
X145968087Y-84510912D01*
X146018951Y-84500000D01*
X153884455Y-84500000D01*
X153951494Y-84519685D01*
G37*
%TD.AperFunction*%
%TD*%
M02*
